<?xml version="1.0" encoding="UTF-8"?><svg id="d" xmlns="http://www.w3.org/2000/svg" width="600" height="600" viewBox="0 0 600 600"><defs><style>.f{fill:none;stroke:#fff;stroke-linecap:round;stroke-miterlimit:10;stroke-width:14.2327px;}</style></defs><path class="f" d="M238.8865,401.565l18.1001,49.8289-29.1947,91.4167,22.606-.2509s1.4228-9.9-19.3887-9.669"/><path class="f" d="M149.9347,363.9201l32.0018,88.0999-29.1947,91.8639,22.606-.2509s1.3574-9.9-19.4541-9.669"/><path class="f" d="M466.987,359.379v183.5252h22.6074s0-9.9006-20.8128-9.9006"/><path class="f" d="M409.3805,411.4723v131.4319h-22.6074s0-9.9006,20.8128-9.9006"/><path class="f" d="M494.0546,273.2911c-.7644,9.8432-1.9612,19.7201-3.809,29.1821-1.8515,9.4618-4.3469,18.5129-7.7083,26.7047,0,0-24.1689,67.8216-101.5845,91.089l4.4225-67.2208c.7382-11.2199-7.759-20.9139-18.9788-21.6521l-19.5094-1.2835c-16.6482-1.0953-29.2604-15.4799-28.1651-32.1281,.5478-8.3259,4.4169-15.642,10.2332-20.7367,5.8164-5.0983,13.5762-7.9756,21.8986-7.428l41.9018,2.7568c16.6482,1.0953,31.0326-11.5133,32.1279-28.1614,.5475-8.3223-2.3298-16.0822-7.4283-21.895-5.0949-5.8162-12.4109-9.6853-20.7331-10.2329l-19.5131-1.2838c-11.2161-.7379-19.7134-10.432-18.9753-21.6518l4.3929-66.7706,132.3614,69.8418s1.6113,48.0641-.9334,80.8703Z"/><path class="f" d="M262.0953,210.6531c2.0433,16.5585-9.724,31.6389-26.2826,33.6822l-41.6763,5.1428c-8.2811,1.0219-15.3645,5.3021-20.1191,11.3994-4.7588,6.0942-7.1887,14.0057-6.1668,22.2868,2.0433,16.5586,17.1236,28.3259,33.6859,26.2821l19.4044-2.3945c11.1594-1.377,21.3189,6.5537,22.6959,17.7132l9.8511,79.8314c-17.7927-3.5314-39.1498-8.5222-39.1498-8.5222l.0027,.0217c-78.2785-18.9536-106.1769-85.038-106.1769-85.038-3.8235-7.9867-6.8347-16.8802-9.2157-26.2219-2.3846-9.3412-4.1466-19.1332-5.4676-28.9173-4.4159-32.6072-5.5456-80.6854-5.5456-80.6854l92.2802-55.568,6.0942,49.3867c1.3771,11.1594,11.5365,19.0903,22.6961,17.7132l19.4079-2.3949c8.2774-1.0214,16.1889,1.4085,22.283,6.1671,6.0975,4.7546,10.3777,11.838,11.3992,20.1155Z"/></svg>