<svg width="307" height="307" viewBox="0 0 307 307" fill="none" xmlns="http://www.w3.org/2000/svg">
<path d="M151.568 61.73H73.8066C65.172 61.73 58.1724 68.7297 58.1724 77.3643V155.126C58.1724 163.76 65.172 170.76 73.8066 170.76H151.568C160.203 170.76 167.203 163.76 167.203 155.126V77.3643C167.203 68.7297 160.203 61.73 151.568 61.73Z" fill="white"/>
<path d="M151.568 61.73H73.8066C65.172 61.73 58.1724 68.7297 58.1724 77.3643V155.126C58.1724 163.76 65.172 170.76 73.8066 170.76H151.568C160.203 170.76 167.203 163.76 167.203 155.126V77.3643C167.203 68.7297 160.203 61.73 151.568 61.73Z" stroke="#CBCBCB" stroke-width="4.28884" stroke-miterlimit="10" stroke-linecap="round"/>
<path d="M234.07 144.93H156.309C147.674 144.93 140.674 151.93 140.674 160.564V238.326C140.674 246.961 147.674 253.96 156.309 253.96H234.07C242.705 253.96 249.704 246.961 249.704 238.326V160.564C249.704 151.93 242.705 144.93 234.07 144.93Z" fill="white"/>
<path d="M234.07 144.93H156.309C147.674 144.93 140.674 151.93 140.674 160.564V238.326C140.674 246.961 147.674 253.96 156.309 253.96H234.07C242.705 253.96 249.704 246.961 249.704 238.326V160.564C249.704 151.93 242.705 144.93 234.07 144.93Z" stroke="#CBCBCB" stroke-width="4.28884" stroke-miterlimit="10" stroke-linecap="round"/>
<path d="M117.595 81.993V81.9902L142.582 91.8185C142.676 95.7637 143.823 103.899 143.751 112.207C143.73 114.7 143.599 117.209 143.298 119.625C142.996 122.04 142.524 124.364 141.819 126.486C141.819 126.486 136.908 143.992 117.809 151.197" stroke="#D2D2D2" stroke-width="4.28884" stroke-linecap="round" stroke-linejoin="round"/>
<path d="M108.261 151.181V151.187C89.2066 144.074 84.2044 126.665 84.2044 126.665C83.4867 124.547 83 122.226 82.6848 119.813C82.3684 117.399 82.2223 114.891 82.1858 112.398C82.062 104.09 83.1571 95.9481 83.2279 92.0024L108.048 82.0843V82.0857L108.084 95.3406C108.093 98.1798 110.403 101.166 113.243 101.157L118.18 101.142C122.393 101.129 125.819 104.534 125.832 108.747C125.846 112.96 122.441 116.386 118.227 116.399L107.624 116.432C103.41 116.445 100.005 119.871 100.018 124.085C100.031 128.298 103.458 131.703 107.671 131.69L112.608 131.674C115.447 131.666 117.756 133.96 117.765 136.799L117.81 151.197L117.812 151.196" stroke="#0AAD94" stroke-width="4.28884" stroke-linecap="round" stroke-linejoin="round"/>
<path d="M190.248 234.291V234.296C171.194 227.184 166.191 209.775 166.191 209.775C165.474 207.657 164.987 205.336 164.672 202.922C164.355 200.509 164.209 198.001 164.173 195.508C164.049 187.2 165.144 179.058 165.215 175.112L190.035 165.194V165.196" stroke="#D1D1D1" stroke-width="4.28884" stroke-linecap="round" stroke-linejoin="round"/>
<path d="M199.582 165.103V165.1L224.569 174.928C224.664 178.873 225.81 187.009 225.738 195.317C225.717 197.81 225.586 200.319 225.285 202.735C224.984 205.15 224.511 207.474 223.807 209.596C223.807 209.596 218.895 227.101 199.797 234.307L199.752 219.909C199.743 217.07 197.435 214.775 194.595 214.784L189.658 214.8C185.445 214.813 182.019 211.408 182.006 207.194C181.993 202.981 185.398 199.555 189.611 199.542L200.215 199.509C204.428 199.496 207.833 196.07 207.82 191.857C207.807 187.644 204.381 184.239 200.167 184.252L195.23 184.267C192.391 184.276 190.082 181.981 190.073 179.142L190.03 165.197L190.011 165.209" stroke="#723BBA" stroke-width="4.28884" stroke-linecap="round" stroke-linejoin="round"/>
<path d="M179.39 85.0784C183.666 84.8812 188.047 85.3891 192.379 86.6851C206.911 91.031 217.029 103.084 219.603 117.041" stroke="white" stroke-width="5.52146" stroke-linecap="round" stroke-linejoin="round"/>
<path d="M206.27 113.106L218.599 135.283L231.643 113.517L206.27 113.106Z" fill="white"/>
<path d="M124.433 229.446C120.157 229.644 115.776 229.136 111.444 227.84C96.9122 223.494 86.794 211.441 84.2197 197.484" stroke="white" stroke-width="5.52146" stroke-linecap="round" stroke-linejoin="round"/>
<path d="M97.5538 201.419L85.2244 179.242L72.1807 201.008L97.5538 201.419Z" fill="white"/>
</svg>
