<?xml version="1.0" encoding="UTF-8"?><svg id="b" xmlns="http://www.w3.org/2000/svg" width="500" height="500" viewBox="0 0 500 500"><defs><style>.g{fill:#fff;}.h{stroke-width:18.2769px;}.h,.i,.j,.k,.l,.m{fill:none;stroke-linecap:round;}.h,.i,.j,.k,.m{stroke-miterlimit:10;}.h,.j,.k,.l{stroke:#fff;}.i{stroke-width:2.7906px;}.i,.m{stroke:#565656;}.j,.l{stroke-width:5.6693px;}.k,.m{stroke-width:2.6785px;}.l{stroke-linejoin:round;}</style></defs><rect class="j" x="117.0452" y="92.5293" width="150.1739" height="269.064" rx="22.7148" ry="22.7148" transform="translate(-22.1085 20.7301) rotate(-5.8406)"/><g><rect class="g" x="225.3542" y="204.3836" width="89.4996" height="89.1416" rx="44.5708" ry="44.5708"/><rect class="h" x="225.3542" y="204.3836" width="89.4996" height="89.1416" rx="44.5708" ry="44.5708"/><rect class="i" x="225.3542" y="204.3836" width="89.4996" height="89.1416" rx="44.5708" ry="44.5708"/></g><path class="g" d="M264.6421,243.6527v-20.1871c-6.6043,0-13.0945-.0005-19.5847,.0044-.1015,0-.213,.0506-.3018,.1062-.0963,.0602-.1715,.1541-.1307,.1158v19.9606h20.0173Zm10.6441-.0587h20.19c0-6.609,.0005-13.1002-.0047-19.5915,0-.1005-.0543-.2125-.1135-.2984-.0636-.0923-.1628-.1601-.1202-.1201h-19.9516v20.0099Zm-10.6434,30.7773v-20.1863c-6.6033,0-13.0934-.0005-19.5834,.0044-.1017,0-.2139,.049-.3023,.1049-.096,.0607-.1698,.1563-.133,.1209v19.9562h20.0188Zm10.7085-6.1621v6.0561h20.0175v-5.942h-3.5747c1.4905,1.3583,.9707,2.3536-.1134,3.2738-1.1386,.0312-2.3649,.3965-3.0994-1.0119-.075-.7524-.1602-1.6074-.2294-2.3014h-6.0959c-.1723,1.1978,.3874,2.5038-.9285,3.1863h-2.7157v-3.2609h-3.2606Zm13.0804-20.8953h-13.0339v10.2489h3.4372v-6.9804h9.5967v-3.2685Zm-6.1485,10.362h13.0196v-10.3549h-2.6181v6.1656c-3.3732,1.5604-7.0132,.0972-10.4015,.9106v3.2787Zm-13.9226-27.167v13.0202h3.2647v-13.0202h-3.2647Zm-3.7242,20.1311v-3.4382c-4.4652,.0075-8.8086-.0095-13.0246,.0107v3.4274h13.0246Zm6.9871,16.7506v-13.2303c-1.2132,.0553-2.3026,.105-3.2611,.1487v13.0816h3.2611Zm16.8074-6.133h-13.0474v3.5129c1.3886-1.4296,2.9498-.6663,4.3562-.7831,1.4916-.1239,3.0023-.059,4.5031-.0187,1.385,.0372,2.8212-.3097,4.1882,.5642v-3.2753Zm-20.1244-10.6789h3.2542v-3.2596h-3.2542v3.2596Zm.0009-24.4399h3.4548c-.0551-.9817-.103-1.8351-.1433-2.5533h-3.3116v2.5533Zm-23.6124,21.0647v3.3687h2.6414c-.0593-1.2158-.1121-2.3006-.1642-3.3687h-2.4772Zm26.981,24.4358c-1.0061,0-1.7047-.0602-2.3853,.0243-.3638,.0452-.968,.3083-.9937,.528-.0865,.739,.038,1.5028,.0737,2.1182h3.3053v-2.6705Zm22.3918-7.7914c.5034,.3211,.8289,.5288,1.2962,.8269v-3.3508h-3.1021c.221,1.1339,.421,2.1597,.6406,3.2858,.3527-.2306,.6736-.4404,1.1653-.7619Z"/><path d="M264.6421,243.6527h-20.0173v-19.9606c-.0408,.0383,.0345-.0556,.1307-.1158,.0889-.0556,.2003-.1061,.3018-.1062,6.4902-.0049,12.9805-.0044,19.5847-.0044v20.1871Zm-17.2277-16.4588v12.86h13.7507v-13.7219h-12.8888c-.242,.242-.488,.488-.8619,.8619Z"/><path d="M275.2862,243.594v-20.0099h19.9516c-.0426-.04,.0566,.0278,.1202,.1201,.0591,.0859,.1134,.1978,.1135,.2984,.0052,6.4912,.0047,12.9824,.0047,19.5915h-20.19Zm3.5489-17.2769v13.7335h13.7435v-12.85c-.351-.351-.597-.597-.8835-.8835h-12.86Z"/><path d="M264.6428,274.3713h-20.0188v-19.9562c-.0368,.0354,.0371-.0602,.133-.1209,.0885-.0559,.2006-.1048,.3023-.1049,6.49-.0048,12.9801-.0044,19.5834-.0044v20.1863Zm-17.0597-16.5878c-.048,.0759-.2648,.2593-.2657,.4437-.0192,4.1598-.0148,8.3197-.0148,12.3648,.3599,.3599,.6059,.6059,.9135,.9134h12.983v-13.7219h-13.616Z"/><path d="M275.3513,268.2091h3.2606v3.2609h2.7157c1.3158-.6826,.7561-1.9886,.9285-3.1863h6.0959c.0692,.694,.1544,1.549,.2294,2.3014,.7345,1.4085,1.9608,1.0432,3.0994,1.0119,1.0841-.9203,1.6039-1.9155,.1134-3.2738h3.5747v5.942h-20.0175v-6.0561Z"/><path d="M288.4317,247.3138v3.2685h-9.5967v6.9804h-3.4372v-10.2489h13.0339Z"/><path d="M282.2833,257.6758v-3.2787c3.3883-.8134,7.0282,.6498,10.4015-.9106v-6.1656h2.6181v10.3549h-13.0196Z"/><path d="M268.3607,230.5088h3.2647v13.0202h-3.2647v-13.0202Z"/><path d="M264.6366,250.6399h-13.0246v-3.4274c4.216-.0202,8.5594-.0032,13.0246-.0107v3.4382Z"/><path d="M271.6236,267.3905h-3.2611v-13.0816c.9585-.0437,2.0479-.0934,3.2611-.1487v13.2303Z"/><path d="M288.431,261.2574v3.2753c-1.367-.8739-2.8031-.527-4.1882-.5642-1.5008-.0403-3.0115-.1052-4.5031,.0187-1.4064,.1168-2.9676-.6465-4.3562,.7831v-3.5129h13.0474Z"/><path d="M268.3066,250.5785v-3.2596h3.2542v3.2596h-3.2542Z"/><path d="M268.3075,226.1386v-2.5533h3.3116c.0403,.7182,.0882,1.5716,.1433,2.5533h-3.4548Z"/><path d="M244.6951,247.2033h2.4772c.0521,1.0681,.1049,2.1529,.1642,3.3687h-2.6414v-3.3687Z"/><path d="M271.6762,271.6391v2.6705h-3.3053c-.0357-.6154-.1602-1.3791-.0737-2.1182,.0257-.2198,.6299-.4828,.9937-.528,.6806-.0845,1.3792-.0243,2.3853-.0243Z"/><path d="M294.0679,263.8477c-.4917,.3215-.8126,.5312-1.1653,.7619-.2195-1.1261-.4195-2.1519-.6406-3.2858h3.1021v3.3508c-.4673-.2981-.7928-.5057-1.2962-.8269Z"/><path class="g" d="M247.4144,227.1939c.3739-.3739,.6199-.6199,.8619-.8619h12.8888v13.7219h-13.7507v-12.86Zm4.1941,3.3112v6.2355c2.1398-.0476,4.1644,.0678,6.05-.0707v-6.1648h-6.05Z"/><path class="g" d="M278.8351,226.3171h12.86c.2865,.2865,.5325,.5325,.8835,.8835v12.85h-13.7435v-13.7335Zm3.4373,10.3005h6.0476v-6.0572h-6.0476v6.0572Z"/><path class="g" d="M247.5831,257.7835h13.616v13.7219h-12.983c-.3076-.3075-.5536-.5536-.9135-.9134,0-4.045-.0045-8.205,.0148-12.3648,.0009-.1844,.2177-.3678,.2657-.4437Zm4.0265,3.4398v6.2389c2.1406-.0442,4.1633,.0378,6.0476-.0436v-6.1954h-6.0476Z"/><path d="M251.6084,230.5051h6.05v6.1648c-1.8856,.1385-3.9101,.023-6.05,.0707v-6.2355Z"/><path d="M282.2724,236.6177v-6.0572h6.0476v6.0572h-6.0476Z"/><path d="M251.6096,261.2232h6.0476v6.1954c-1.8843,.0814-3.907-.0007-6.0476,.0436v-6.2389Z"/><path class="m" d="M189.8634,166.4064l-.0003-.0021,19.35,5.1013c.4128,2.912,1.9692,8.8337,2.6384,14.9898,.2012,1.8473,.3228,3.7154,.3098,5.5297-.013,1.8143-.1605,3.5756-.4974,5.2074,0,0-2.1126,13.3843-15.6225,20.3789"/><path class="k" d="M188.9725,218.4299l.0005,.0041c-14.7224-3.6073-19.9391-16.058-19.9391-16.058-.7154-1.5049-1.2776-3.1806-1.7208-4.9398-.4441-1.7591-.7704-3.6026-1.0143-5.4447-.8142-6.1385-.7118-12.2605-1.0026-15.1871l17.5087-9.5001v.0011s1.1796,9.8079,1.1796,9.8079c.2535,2.1007,2.2236,4.1099,4.3243,3.8564l3.6532-.4408c3.1174-.3761,5.9496,1.8461,6.3257,4.9636h0c.3761,3.1175-1.8461,5.9496-4.9636,6.3257l-7.8459,.9467c-3.1174,.3761-5.3397,3.2082-4.9636,6.3257h0c.3761,3.1175,3.2082,5.3397,6.3257,4.9636l3.6532-.4408c2.1007-.2535,4.0091,1.244,4.2626,3.3447l1.2854,10.6532,.0015-.0008"/><g><path class="l" d="M352.1726,450.7364c3.3495-3.4992,5.7449-6.4761,6.7087-8.1282,13.3054,1.7741,24.1715,1.7741,26.6108-3.5481,3.7699-8.4268-14.6359-31.7112-32.3765-41.4685-11.0878-7.5397-22.6192-6.4309-25.0585-3.1046-5.1004,7.318,14.3864,18.2035,23.9497,27.7196-5.5439-5.9874-17.7405-11.3096-31.933-7.0962-9.5355,2.8828-17.5188,9.5355-20.6234,19.5146-.6653-.4435-1.5523-.4435-2.4393-.4435-3.3264,0-5.9874,2.6611-5.9874,5.9874s2.6611,5.9874,5.9874,5.9874c.6653,0,2.4393-.4435,2.4393-.4435"/><path class="j" d="M319.8438,459.7939c-7.0371,7.6792-11.7448,9.7757-11.7448,12.0862,0,3.3264,9.3138,2.4393,12.8619,1.1088,6.9249-2.4601,14.0369-7.1292,20.2286-12.1457"/><path class="j" d="M299.4146,445.7188c1.4563,8.7693,6.988,12.2428,17.5547,13.2994,1.1523,.1152,2.2544,.2113,3.3138,.2917,9.1347,.6932,15.1038,.221,22.8535,.8171,7.0962,.6653,13.5272,4.2134,15.7447,3.1046,2.2176-1.1088,.887-5.3222-1.9958-7.7615-3.7699-3.3264-8.8703-5.7657-17.7405-6.6527,1.7741-4.8787,1.3305-11.7531-1.5523-15.523"/></g><g><g><rect class="j" x="384.7877" y="143.871" width="73.3063" height="73.3063" rx="12.8609" ry="12.8609"/><rect class="j" x="384.7877" y="161.4448" width="73.3063" height="55.7324" rx="12.8609" ry="12.8609"/><rect class="j" x="384.7877" y="180.5241" width="73.3063" height="36.6531" rx="12.8609" ry="12.8609"/></g><g><path class="g" d="M411.6916,204.9868v-12.7698h2.7431v4.5992c.8461-.8595,1.8484-1.2893,3.0069-1.2893,1.2625,0,2.307,.408,3.1337,1.2238,.8264,.816,1.2398,1.9876,1.2398,3.5148,0,1.5798-.4216,2.7962-1.2643,3.6498-.8429,.8537-1.8664,1.2805-3.0702,1.2805-.5923,0-1.1764-.1322-1.7524-.3964s-1.0724-.6546-1.4888-1.1715v1.3588h-2.5478Zm2.7237-4.8258c0,.9582,.1691,1.6669,.5076,2.1254,.4751,.6506,1.1064,.9757,1.8938,.9757,.6053,0,1.1211-.2307,1.5473-.6924s.6396-1.189,.6396-2.182c0-1.0568-.2147-1.8191-.6444-2.2866-.4294-.4673-.9797-.7012-1.6499-.7012-.6574,0-1.204,.2279-1.64,.6838-.436,.4561-.654,1.1485-.654,2.0775Z"/><path class="g" d="M424.0213,204.9868v-12.7698h2.7431v12.7698h-2.7431Z"/><path class="g" d="M436.3997,204.9868v-1.3851c-.3776,.4937-.8737,.8829-1.4888,1.1673-.6149,.2844-1.2641,.4268-1.9475,.4268-.6964,0-1.3214-.1366-1.8744-.4094-.5532-.273-.9534-.6562-1.2008-1.1499-.2474-.4935-.371-1.176-.371-2.047v-5.8535h2.7433v4.2507c0,1.3009,.0503,2.0979,.1512,2.3912,.1007,.2932,.2846,.5256,.5516,.6968,.2668,.1715,.6053,.257,1.0153,.257,.4685,0,.8883-.1146,1.2593-.3441,.371-.2293,.6247-.5138,.7613-.8537,.1368-.3397,.2051-1.1715,.2051-2.4955v-3.9024h2.7433v9.2508h-2.548Z"/><path class="g" d="M447.7923,202.0426l2.7335,.4094c-.3515,.8943-.9065,1.5751-1.6645,2.0426-.7583,.4675-1.7069,.7012-2.8458,.7012-1.8027,0-3.1369-.5256-4.0024-1.5767-.6834-.8419-1.0251-1.9046-1.0251-3.1881,0-1.5331,.4491-2.7337,1.3472-3.6018s2.0338-1.3023,3.4071-1.3023c1.5423,0,2.7593,.4545,3.651,1.3632,.8915,.909,1.318,2.3012,1.2789,4.1768h-6.8726c.0194,.7261,.2406,1.2907,.6638,1.6943,.423,.4036,.9502,.6053,1.5816,.6053,.4294,0,.7906-.1046,1.0836-.3135,.2928-.2091,.514-.5458,.6638-1.0105Zm.1562-2.4739c-.0196-.7085-.2245-1.2471-.6151-1.6158s-.8657-.5532-1.4253-.5532c-.5989,0-1.0934,.1947-1.4838,.5837-.3906,.3892-.5825,.9176-.5761,1.5854h4.1003Z"/></g></g><path class="g" d="M416.1498,355.5589l.0338-4.5563c.0159-2.1513,.1089-12.7354,.1089-12.7354,.0065-.8733-.3292-1.701-.9451-2.3262-.616-.6252-1.4386-.973-2.3164-.9795l-5.3715-.04c-5.9244-.0443-10.7084-4.9001-10.6643-10.8242,.0213-2.8699,1.159-5.5597,3.2034-7.5739,2.0444-2.0145,4.751-3.1117,7.6209-3.0903l10.458,.0777c1.15,.009,2.2337-.4312,3.0528-1.2378,.819-.8068,1.2748-1.8844,1.2833-3.034s-.4312-2.2338-1.238-3.0526c-.8069-.8191-1.8843-1.2749-3.0339-1.2832l-5.1669-.0384c-5.3628-.0401-9.6936-4.4356-9.6539-9.7984l.0475-6.3728-16.5994,7.1488c-.4959,4.6489-1.6507,17.261-.7415,26.6501,.504,5.2059,2.9162,10.6603,6.7919,15.3581,3.8447,4.6605,8.8774,8.2912,14.1797,10.2316,1.2581,.4185,2.1758,1.5938,2.2022,2.9951l.0884,4.6854-4.4056-1.5967c-13.3677-4.8463-23.994-17.906-25.2671-31.0528-1.1992-12.3837,.8783-29.1816,.9673-29.8908l.2295-1.8277,29.0681-12.5186-.1209,16.2379c-.0134,1.8117,1.4497,3.297,3.2616,3.3103l5.1668,.0384c2.8698,.0214,5.5596,1.1591,7.5738,3.2035,2.0143,2.0444,3.1118,4.7509,3.0904,7.6207-.0213,2.8699-1.1591,5.5595-3.2034,7.5737-2.0446,2.0145-4.7513,3.112-7.6208,3.0906l-10.458-.0777c-1.1503-.0097-2.2339,.431-3.0529,1.2378-.819,.8068-1.2746,1.8844-1.2832,3.034-.0176,2.3732,1.8988,4.3183,4.2721,4.3358l5.3714,.04c2.598,.0193,5.0329,1.0492,6.8563,2.8998,1.8233,1.8508,2.817,4.3007,2.7975,6.8987,0,.0027-.0365,4.1514-.0676,7.7803,3.7552-1.9892,7.2429-4.7844,10.1003-8.1335,3.9435-4.6215,6.4349-10.0255,7.0157-15.2164,1.0478-9.3666,.1225-21.8892-.2898-26.5236l-20.7697-9.3603c-1.1582-.4697-1.9846-1.5943-2.0096-2.923l-.0962-5.0901,28.9072,13.0273,.1976,1.8332c.0759,.7044,1.8437,17.3923,.4608,29.7523-.7222,6.4565-3.7469,13.0908-8.5168,18.681-4.6616,5.4635-10.7732,9.6978-17.2087,11.9231l-4.3062,1.489Z"/><g><polygon class="g" points="342.0599 106.4896 327.7432 106.4896 328.7756 94.8736 341.0274 94.8736 342.0599 106.4896"/><polygon class="g" points="319.1349 78.6815 325.9577 74.9399 329.2591 81.9829 319.1349 78.6815"/><polyline class="j" points="310.0207 66.5182 301.8323 69.1575 294.7846 44.8472 299.8868 32.2419 326.6931 52.7783"/><polygon class="j" points="351.916 43.6778 369.8781 32.2419 374.9803 44.8472 367.9326 69.1575 375.8702 85.9646 371.0682 103.0718 351.2703 98.5699 341.066 106.073 328.6989 106.073 318.4946 98.5699 298.6968 103.0718 293.8947 85.9646 301.8323 69.1575 294.7846 44.8472 299.8868 32.2419 317.8489 43.6778 351.916 43.6778"/><polygon class="g" points="350.63 78.6815 343.8072 74.9399 340.5058 81.9829 350.63 78.6815"/><polyline class="j" points="359.7442 66.5182 367.9326 69.1575 374.9803 44.8472 369.8781 32.2419 343.4426 52.4942"/></g></svg>