<?xml version="1.0" encoding="UTF-8"?><svg xmlns="http://www.w3.org/2000/svg" width="600" height="600" viewBox="0 0 600 600"><defs><style>.f,.g{fill:#fff;}.g,.h{stroke-width:7.937px;}.g,.h,.i,.j{stroke:#fff;stroke-linecap:round;stroke-linejoin:round;}.h,.i,.j{fill:none;}.i{stroke-width:3.9685px;}.j{stroke-width:7.0866px;}</style></defs><g id="c"><path class="f" d="M307.0567,192.795l.0168-7.2116c.0079-3.405,.0699-20.1574,.0699-20.1574,.0033-1.3822-.5347-2.6895-1.5146-3.6741-.9801-.9845-2.2848-1.5284-3.6741-1.5317l-8.5019-.0201c-9.377-.0225-16.9877-7.6693-16.9656-17.0458,.0107-4.5424,1.7897-8.8088,5.0091-12.0131,3.2195-3.2048,7.4944-4.9631,12.0368-4.9524l16.5526,.0388c1.8202,.005,3.5318-.7004,4.8218-1.9836,1.2897-1.2836,2.0024-2.9928,2.0067-4.8123s-.7004-3.532-1.984-4.8215c-1.2836-1.2899-2.9926-2.0026-4.8121-2.0066l-8.1781-.0192c-8.4882-.0204-15.3778-6.9422-15.3582-15.4305l.0239-10.0867-26.2146,11.448c-.7475,7.3619-2.4737,27.3325-.9592,42.1855,.8396,8.2353,4.7013,16.8488,10.8732,24.2528,6.1226,7.3452,14.117,13.0511,22.5247,16.0796,1.9945,.6523,3.4565,2.505,3.5095,4.7227l.1776,7.4149-6.9856-2.4916c-21.1962-7.5628-38.1197-28.147-40.2404-48.9443-1.9976-19.5902,1.1554-46.1932,1.2905-47.3163l.3485-2.8946,45.9058-20.0472-.0606,25.7008c-.0066,2.8676,2.321,5.2065,5.1888,5.2131l8.1779,.0192c4.5422,.0107,8.8086,1.7897,12.013,5.0093,3.2046,3.2195,4.9633,7.4942,4.9526,12.0366-.0107,4.5424-1.7898,8.8084-5.0091,12.0128-3.2199,3.2048-7.4949,4.9636-12.0367,4.9528l-16.5526-.0388c-1.8206-.0061-3.5321,.7001-4.822,1.9837-1.2897,1.2836-2.0022,2.9927-2.0066,4.8123-.0087,3.7562,3.0401,6.8193,6.7964,6.828l8.5017,.0201c4.112,.0097,7.974,1.6202,10.8749,4.5344,2.9007,2.9146,4.493,6.784,4.4832,10.8961,0,.0043-.0243,6.5708-.0443,12.3146,5.9273-3.1785,11.4249-7.6307,15.9204-12.9542,6.2042-7.3463,10.104-15.9193,10.9814-24.1397,1.5831-14.8331,.0177-34.6452-.672-41.9769l-32.9478-14.6475c-1.8368-.7341-3.1538-2.5074-3.2041-4.6101l-.1931-8.0554,45.8567,20.3859,.3275,2.8998c.1258,1.1143,3.0579,27.5122,.9687,47.0856-1.0911,10.2246-5.825,20.7492-13.3294,29.6351-7.3341,8.6846-16.9729,15.4355-27.1405,19.0093l-6.8035,2.3912Z"/></g><g id="d"><g><path class="j" d="M334.1044,530.8363h20.8195c12.1789,0,22.0533-9.87,22.0588-22.0489v-20.8195"/><path class="j" d="M223.0073,487.9579v20.8195c.0055,12.1789,9.8799,22.0489,22.0588,22.0489h20.8195"/><path class="j" d="M265.8956,376.8609h-20.8195c-12.1827,0-22.0588,9.8761-22.0588,22.0588v20.8195"/><path class="j" d="M376.9927,419.7492v-20.8195c0-12.1827-9.8761-22.0588-22.0588-22.0588h-20.8195"/><path class="h" d="M319.0053,463.49s.4858,9.8347-17.3298,9.8347h0c-17.8453,0-17.3298-9.8347-17.3298-9.8347"/><circle class="h" cx="297.8387" cy="452.4259" r="53.0998"/><line class="h" x1="285.2974" y1="428.0869" x2="285.2974" y2="438.4173"/><line class="h" x1="323.6451" y1="428.3347" x2="323.6451" y2="438.6652"/><path class="h" d="M309.3886,428.3347v17.7065s.4957,8.5955-8.8533,8.5955"/></g><g><path class="g" d="M441.5778,448.4306c-5.0045,0-9.0615,4.0569-9.0615,9.0615,0,5.0045,4.057,9.0615,9.0615,9.0615,5.0045,0,9.0615-4.057,9.0615-9.0615s-4.0569-9.0615-9.0615-9.0615h0Z"/><path class="g" d="M470.7946,448.4306c-5.0045-.0054-9.0659,4.047-9.0713,9.0516-.0055,5.0045,4.047,9.0659,9.0515,9.0713,5.0045,.0055,9.0659-4.047,9.0714-9.0516v-.0099c-.0054-4.9984-4.0532-9.0506-9.0516-9.0615Z"/><path class="g" d="M500.0015,448.4306c-5.0045-.0054-9.0659,4.047-9.0713,9.0516-.0055,5.0045,4.047,9.0659,9.0515,9.0713,5.0045,.0055,9.0659-4.047,9.0714-9.0516v-.0099c0-5.0007-4.0509-9.056-9.0516-9.0615Z"/><path class="h" d="M529.2083,448.4306c-5.0045,0-9.0615,4.0569-9.0615,9.0615,0,5.0045,4.057,9.0615,9.0615,9.0615,5.0045,0,9.0615-4.057,9.0615-9.0615-.0054-5.0022-4.0592-9.056-9.0615-9.0615Z"/><path class="h" d="M558.4251,448.4306c-5.0045-.0054-9.0659,4.047-9.0713,9.0516-.0055,5.0045,4.047,9.0659,9.0515,9.0713,5.0045,.0055,9.0659-4.047,9.0714-9.0516v-.0099c-.0054-4.9984-4.0532-9.0506-9.0516-9.0615Z"/><path class="j" d="M533.8283,530.866h20.8195c12.1827,0,22.0588-9.8761,22.0588-22.0588h0v-20.8195"/><path class="j" d="M422.7411,487.9877v20.8195c0,12.1673,9.8519,22.037,22.0192,22.0588h20.8195"/><path class="j" d="M465.5798,376.8906h-20.8195c-12.1789,.0055-22.0489,9.8799-22.0489,22.0588v20.8195"/><path class="j" d="M576.7165,419.7789v-20.8195c0-12.1827-9.8761-22.0588-22.0588-22.0588h-20.8195"/></g><g><path class="i" d="M116.7335,506.0214c-.1411-.0126-.2806-.0392-.4164-.0793-8.655-2.3893-14.3655-5.6113-20.3437-11.4805-7.5955-7.5119-11.8537-17.7609-11.8176-28.4435,0-8.3972,7.1976-15.2379,16.0311-15.2379s16.0509,6.8606,16.0509,15.238c0,6.7416,5.8295,12.2141,12.9973,12.2141s13.0073-5.4726,13.0073-12.2141c0-21.9002-18.8367-39.7257-42.0952-39.7257-16.5069,0-31.5664,9.1904-38.3575,23.417-2.3674,5.1058-3.5469,10.6816-3.4501,16.3087-.016,7.1028,1.2919,14.1464,3.8566,20.77,.1592,.3772,.1592,.8026,0,1.1798-.158,.3464-.4523,.6119-.813,.7336-.1759,.0742-.3643,.1146-.5552,.119-.6277-.0047-1.1859-.4005-1.3979-.9914-2.6574-6.9649-4.0215-14.3563-4.0251-21.811-.0982-6.0908,1.1652-12.1267,3.698-17.6669,7.2769-15.2677,23.4071-25.1421,41.074-25.1421,24.8843,0,45.1189,19.1837,45.1189,42.7594,0,8.3972-7.1877,15.2379-16.0311,15.2379s-16.0211-6.8407-16.0211-15.2379c0-6.7416-5.8394-12.2141-13.0073-12.2141s-13.0469,5.4725-13.0469,12.2141c-.0519,9.8747,3.8796,19.3532,10.9055,26.2921,5.542,5.4924,10.9055,8.4964,18.9656,10.7469,.3794,.0937,.7048,.3369,.9022,.6741,.1998,.3519,.2566,.7673,.1586,1.1599-.1363,.6657-.7091,1.1525-1.388,1.1797Z"/><path class="i" d="M87.6952,504.8416c-.3734,.0024-.7316-.1481-.9914-.4164-4.481-4.2285-8.2357-9.1656-11.1137-14.6133-3.9163-7.3104-5.8959-15.5017-5.7502-23.7938,0-16.0013,13.7012-29.0185,30.5453-29.0185s30.5453,13.0172,30.5453,29.0185c.1651,.8213-.3669,1.621-1.1882,1.786s-1.6209-.3669-1.786-1.1882c-.0396-.1973-.0396-.4005,0-.5978,0-14.3358-12.343-25.9947-27.5215-25.9947s-27.6008,11.6688-27.6008,25.9947c-.1367,7.7753,1.7237,15.4557,5.4032,22.3067,2.7729,5.1656,6.3579,9.8519,10.618,13.8797,.5842,.6097,.5842,1.5714,0,2.1811-.3173,.2896-.7303,.452-1.1599,.456Z"/><path class="i" d="M128.0355,494.4318c-5.926,.1527-11.7564-1.5151-16.7052-4.7786-7.9299-5.2635-12.7322-14.1179-12.8189-23.6352,.1651-.8213,.9647-1.3533,1.786-1.1882,.5993,.1204,1.0677,.5889,1.1882,1.1882,.0687,8.5148,4.3782,16.4348,11.4904,21.117,4.4665,2.9211,9.7256,4.3925,15.0595,4.2135,2.0379-.0367,4.0698-.2322,6.0773-.585h.2875c.7381,.0189,1.3584,.5601,1.4772,1.2888,.0729,.3871-.0128,.7872-.2379,1.1104-.2351,.3346-.5902,.5654-.9914,.6444-2.182,.3994-4.3945,.6084-6.6127,.6246Z"/><path class="i" d="M52.53,436.9302c-.3255-.0052-.6424-.1051-.9121-.2875-.323-.2375-.5373-.5946-.5948-.9914-.0664-.4037,.0299-.8171,.2677-1.15,5.3137-7.5845,12.3949-13.7606,20.6312-17.9941,17.8898-8.9161,38.9277-8.9161,56.8175,0,8.219,4.1925,15.2985,10.316,20.6312,17.8453,.2356,.3263,.3319,.7329,.2677,1.1302-.0648,.4016-.2903,.7595-.6246,.9914-.2669,.1892-.585,.2929-.9121,.2974-.4875-.0019-.9432-.2427-1.2194-.6444-5.0451-7.1559-11.7547-12.9775-19.5505-16.963-17.0343-8.4673-37.0557-8.4452-54.0714,.0595-7.8049,4.0326-14.5243,9.8848-19.5902,17.0621l-.0694,.109c-.2387,.3534-.6447,.5564-1.0707,.5353Z"/><path class="i" d="M133.0917,407.3863c-.2258,.0008-.4479-.0573-.6444-.1685-11.074-5.6808-20.6312-8.0701-32.072-8.0701-11.1705-.0684-22.1731,2.7197-31.963,8.0998-.2148,.1103-.4526,.168-.694,.1685-.5742-.0051-1.1026-.3146-1.388-.813-.1757-.3508-.2077-.7562-.0892-1.1302,.1073-.3843,.3645-.7094,.7138-.9022,10.2497-5.5919,21.7445-8.5074,33.4203-8.4765,11.7482,0,22.0291,2.5876,33.3311,8.4071,.3544,.1847,.6216,.5018,.7436,.8824,.1193,.3692,.0798,.7715-.1091,1.1104-.2188,.506-.6996,.8494-1.2492,.8923Z"/><path class="j" d="M134.3706,527.9315h20.8195c12.1827,0,22.0588-9.8761,22.0588-22.0588v-20.8195"/><path class="j" d="M23.2835,485.0432v20.8195c0,12.1789,9.87,22.0534,22.0489,22.0588h20.8195"/><path class="j" d="M66.1618,373.9561h-20.8195c-12.1773,0-22.0489,9.8716-22.0489,22.0489v20.8195"/><path class="j" d="M177.2589,416.8344v-20.8195c0-12.1773-9.8716-22.0489-22.0489-22.0489h-20.8295"/></g><line class="j" x1="300" y1="338.6562" x2="300" y2="232.2261"/><path class="j" d="M399.4468,164.3405h54.0597c22.4674,0,40.6809,18.2134,40.6809,40.6809h0v138.4779"/><path class="j" d="M105.8126,343.4993V205.0214h0c0-22.4674,18.2134-40.6809,40.6809-40.6809h54.0597"/></g></svg>