<svg xmlns="http://www.w3.org/2000/svg" xmlns:xlink="http://www.w3.org/1999/xlink" viewBox="0 0 834.34 834"><defs><style>.cls-1,.cls-2{fill:#50239f;}.cls-2{opacity:0.21;mix-blend-mode:multiply;}.cls-3{fill:#5c34b6;}.cls-4{isolation:isolate;}.cls-10,.cls-15,.cls-17,.cls-18,.cls-5,.cls-6,.cls-7,.cls-8,.cls-9{fill:none;}.cls-10,.cls-15,.cls-5,.cls-9{stroke:#00e8cc;}.cls-10,.cls-17,.cls-18,.cls-5,.cls-6,.cls-7,.cls-8,.cls-9{stroke-linecap:round;}.cls-10,.cls-17,.cls-18,.cls-5,.cls-9{stroke-linejoin:round;}.cls-5,.cls-6,.cls-7,.cls-8{stroke-width:18px;}.cls-17,.cls-6,.cls-7,.cls-8{stroke:#50239f;}.cls-15,.cls-6,.cls-7,.cls-8{stroke-miterlimit:10;}.cls-6{stroke-dasharray:92 133 0 52.16;}.cls-7{stroke-dasharray:36 47 0 52.16;}.cls-8{stroke-dasharray:101 90 37 80;}.cls-9{stroke-width:5.23px;}.cls-10{stroke-width:3.47px;}.cls-11,.cls-12{fill:#00e8cc;}.cls-12{fill-rule:evenodd;}.cls-13{clip-path:url(#clip-path);}.cls-14{clip-path:url(#clip-path-2);}.cls-15{stroke-width:11px;}.cls-16{clip-path:url(#clip-path-3);}.cls-17{stroke-width:9.49px;}.cls-18{stroke:#fff;stroke-width:3.68px;stroke-dasharray:261.59 35.62 18.42 21.06;}</style><clipPath id="clip-path"><rect class="cls-1" x="298.65" y="14.81" width="237.03" height="248.39" rx="29.08"/></clipPath><clipPath id="clip-path-2"><path class="cls-2" d="M306.39,231.25V206a14.35,14.35,0,0,1,14.35-14.36H513.6A14.36,14.36,0,0,1,528,206v25.22a24.08,24.08,0,0,1-24.08,24.08H330.47A24.08,24.08,0,0,1,306.39,231.25Z"/></clipPath><clipPath id="clip-path-3"><path class="cls-3" d="M360.42-7.28H486a12,12,0,0,1,12,12V202.27a12,12,0,0,1-12,12H360.42a24.08,24.08,0,0,1-24.08-24.08V16.8A24.08,24.08,0,0,1,360.42-7.28Z" transform="translate(520.67 -313.67) rotate(90)"/></clipPath></defs><title>Artboard 32 copy 12</title><g class="cls-4"><g id="Layer_16" data-name="Layer 16"><path class="cls-5" d="M168,511V377.58A70.59,70.59,0,0,1,238.61,307H299"/><path class="cls-6" d="M168,511V377.58A70.59,70.59,0,0,1,238.61,307H299"/><line class="cls-5" x1="421" y1="511" x2="421" y2="400"/><line class="cls-7" x1="421" y1="511" x2="421" y2="400"/></g><g id="Layer_17" data-name="Layer 17"><path class="cls-5" d="M536,307h67.42A70.58,70.58,0,0,1,674,377.58V507"/><path class="cls-8" d="M536,307h67.42A70.58,70.58,0,0,1,674,377.58V507"/></g><g id="Layer_25" data-name="Layer 25"><path class="cls-1" d="M528.73,555.44a14.9,14.9,0,0,0-14.85-14.78l-193.57-.53a14.62,14.62,0,0,0-14.67,14.73L306.93,790a14.34,14.34,0,0,0,14.29,14.22l194.68.53A14.07,14.07,0,0,0,530,790.61Z"/><path class="cls-1" d="M778.34,555.44a14.9,14.9,0,0,0-14.85-14.78l-193.56-.53a14.62,14.62,0,0,0-14.68,14.73L556.54,790a14.34,14.34,0,0,0,14.29,14.22l194.68.53a14.07,14.07,0,0,0,14.12-14.17Z"/><path class="cls-1" d="M277.79,555.44A14.89,14.89,0,0,0,263,540.66l-193.57-.53A14.64,14.64,0,0,0,54.7,554.86L56,790a14.34,14.34,0,0,0,14.29,14.22l194.69.53a14.06,14.06,0,0,0,14.11-14.17Z"/><path class="cls-9" d="M452.23,746.83h21a22.25,22.25,0,0,0,22.25-22.24v-21"/><path class="cls-9" d="M340.17,703.58v21a22.25,22.25,0,0,0,22.25,22.24h21"/><path class="cls-9" d="M383.43,591.52h-21a22.25,22.25,0,0,0-22.25,22.25v21"/><path class="cls-9" d="M495.49,634.78v-21a22.25,22.25,0,0,0-22.25-22.25h-21"/><path class="cls-10" d="M437,678.9s.49,9.92-17.48,9.92h0c-18,0-17.48-9.92-17.48-9.92"/><circle class="cls-10" cx="415.65" cy="667.74" r="53.56"/><line class="cls-10" x1="403" y1="643.19" x2="403" y2="653.61"/><line class="cls-10" x1="441.68" y1="643.44" x2="441.68" y2="653.86"/><path class="cls-10" d="M427.3,643.44V661.3s.5,8.67-8.93,8.67"/><circle class="cls-11" cx="608.79" cy="672.85" r="7.64"/><path class="cls-11" d="M608.79,666.71a6.14,6.14,0,1,1-6.14,6.14,6.14,6.14,0,0,1,6.14-6.14m0-3a9.14,9.14,0,1,0,9.14,9.14,9.14,9.14,0,0,0-9.14-9.14Z"/><path class="cls-12" d="M638.26,680.49a7.64,7.64,0,1,1,7.63-7.64A7.65,7.65,0,0,1,638.26,680.49Z"/><path class="cls-11" d="M638.26,666.71a6.14,6.14,0,1,1-6.14,6.14,6.13,6.13,0,0,1,6.14-6.14m0-3a9.14,9.14,0,1,0,9.13,9.14,9.15,9.15,0,0,0-9.13-9.14Z"/><path class="cls-12" d="M667.72,680.49a7.64,7.64,0,1,1,7.64-7.64A7.65,7.65,0,0,1,667.72,680.49Z"/><path class="cls-11" d="M667.72,666.71a6.14,6.14,0,1,1-6.14,6.14,6.14,6.14,0,0,1,6.14-6.14m0-3a9.14,9.14,0,1,0,9.13,9.14,9.14,9.14,0,0,0-9.13-9.14Z"/><path class="cls-11" d="M697.18,666.71a6.14,6.14,0,1,1-6.13,6.14,6.14,6.14,0,0,1,6.13-6.14m0-3a9.14,9.14,0,1,0,9.14,9.14,9.15,9.15,0,0,0-9.14-9.14Z"/><path class="cls-11" d="M726.65,666.71a6.14,6.14,0,1,1-6.14,6.14,6.14,6.14,0,0,1,6.14-6.14m0-3a9.14,9.14,0,1,0,9.13,9.14,9.15,9.15,0,0,0-9.13-9.14Z"/><path class="cls-9" d="M701.84,746.86h21a22.25,22.25,0,0,0,22.25-22.25v-21"/><path class="cls-9" d="M589.79,703.61v21A22.25,22.25,0,0,0,612,746.86h21"/><path class="cls-9" d="M633,591.55H612a22.25,22.25,0,0,0-22.24,22.25v21"/><path class="cls-9" d="M745.1,634.81v-21a22.25,22.25,0,0,0-22.25-22.25h-21"/><path class="cls-12" d="M183.5,721.8a2.16,2.16,0,0,1-.42-.08c-8.73-2.41-14.49-5.66-20.52-11.58a40.16,40.16,0,0,1-11.92-28.69c0-8.47,7.26-15.37,16.17-15.37S183,673,183,681.45c0,6.8,5.88,12.32,13.11,12.32s13.12-5.52,13.12-12.32c0-22.09-19-40.07-42.46-40.07-16.65,0-31.84,9.27-38.69,23.62a37.57,37.57,0,0,0-3.48,16.45,57.66,57.66,0,0,0,3.89,20.95,1.53,1.53,0,0,1,0,1.19,1.39,1.39,0,0,1-.82.74,1.53,1.53,0,0,1-.56.12,1.51,1.51,0,0,1-1.41-1,61.8,61.8,0,0,1-4.06-22,41.26,41.26,0,0,1,3.73-17.82c7.34-15.4,23.61-25.36,41.43-25.36,25.1,0,45.51,19.35,45.51,43.13,0,8.47-7.25,15.37-16.17,15.37s-16.16-6.9-16.16-15.37c0-6.8-5.89-12.32-13.12-12.32S153.7,674.6,153.7,681.4a37,37,0,0,0,11,26.52c5.59,5.54,11,8.57,19.13,10.84a1.46,1.46,0,0,1,.91.68,1.59,1.59,0,0,1,.16,1.17A1.49,1.49,0,0,1,183.5,721.8Z"/><path class="cls-12" d="M154.21,720.61a1.38,1.38,0,0,1-1-.42A56.65,56.65,0,0,1,142,705.45a49,49,0,0,1-5.8-24c0-16.14,13.82-29.27,30.81-29.27s30.81,13.13,30.81,29.27a1.53,1.53,0,1,1-3,0c0-14.46-12.45-26.22-27.76-26.22S139.22,667,139.22,681.45a45.85,45.85,0,0,0,5.45,22.5,55.19,55.19,0,0,0,10.71,14,1.59,1.59,0,0,1,0,2.2A1.76,1.76,0,0,1,154.21,720.61Z"/><path class="cls-12" d="M194.9,710.11a29.24,29.24,0,0,1-16.85-4.82,28.93,28.93,0,0,1-12.93-23.84,1.53,1.53,0,0,1,3,0,25.75,25.75,0,0,0,11.59,21.3A26.15,26.15,0,0,0,194.9,707a39.53,39.53,0,0,0,6.13-.59l.29,0a1.55,1.55,0,0,1,1.49,1.3,1.48,1.48,0,0,1-.24,1.12,1.6,1.6,0,0,1-1,.65A38.61,38.61,0,0,1,194.9,710.11Z"/><path class="cls-12" d="M118.74,652.11a1.69,1.69,0,0,1-.92-.29,1.51,1.51,0,0,1-.6-1,1.56,1.56,0,0,1,.27-1.16,57.51,57.51,0,0,1,20.81-18.15,64.24,64.24,0,0,1,57.31,0,57.54,57.54,0,0,1,20.81,18,1.53,1.53,0,0,1,.27,1.14,1.51,1.51,0,0,1-.63,1,1.63,1.63,0,0,1-.92.3,1.5,1.5,0,0,1-1.23-.65,54.46,54.46,0,0,0-19.72-17.11,61.13,61.13,0,0,0-54.54.06,55.2,55.2,0,0,0-19.76,17.21l-.07.11A1.23,1.23,0,0,1,118.74,652.11Z"/><path class="cls-12" d="M200,622.31a1.31,1.31,0,0,1-.65-.17C188.18,616.41,178.54,614,167,614a66.1,66.1,0,0,0-32.24,8.17,1.54,1.54,0,0,1-.7.17,1.63,1.63,0,0,1-1.4-.82,1.52,1.52,0,0,1-.09-1.14,1.5,1.5,0,0,1,.72-.91A70,70,0,0,1,167,610.92c11.85,0,22.22,2.61,33.62,8.48a1.53,1.53,0,0,1,.75.89,1.41,1.41,0,0,1-.11,1.12A1.5,1.5,0,0,1,200,622.31Z"/><path class="cls-9" d="M201.29,743.9h21a22.25,22.25,0,0,0,22.25-22.25v-21"/><path class="cls-9" d="M89.24,700.64v21a22.25,22.25,0,0,0,22.24,22.25h21"/><path class="cls-9" d="M132.49,588.59h-21a22.24,22.24,0,0,0-22.24,22.24v21"/><path class="cls-9" d="M244.55,631.84v-21a22.24,22.24,0,0,0-22.25-22.24h-21"/></g><g id="Layer_29" data-name="Layer 29"><rect class="cls-1" x="298.65" y="14.81" width="237.03" height="248.39" rx="29.08"/><rect class="cls-1" x="298.65" y="14.81" width="237.03" height="248.39" rx="29.08"/><g class="cls-13"><path class="cls-2" d="M306.39,231.25V206a14.35,14.35,0,0,1,14.35-14.36H513.6A14.36,14.36,0,0,1,528,206v25.22a24.08,24.08,0,0,1-24.08,24.08H330.47A24.08,24.08,0,0,1,306.39,231.25Z"/><g class="cls-14"><polygon class="cls-1" points="337.53 267.11 337.53 288.07 562.56 222.59 562.56 201.63 337.53 267.11"/></g></g><polygon class="cls-1" points="306.53 121.11 306.53 142.07 531.56 76.59 531.56 55.63 306.53 121.11"/><polygon class="cls-1" points="306.53 149.11 306.53 154.07 531.56 88.59 531.56 83.63 306.53 149.11"/><path class="cls-15" d="M395.39,278.6V253.18A26.56,26.56,0,0,1,422,226.61h0a26.56,26.56,0,0,1,26.57,26.57V278.6"/><path class="cls-3" d="M360.42-7.28H486a12,12,0,0,1,12,12V202.27a12,12,0,0,1-12,12H360.42a24.08,24.08,0,0,1-24.08-24.08V16.8A24.08,24.08,0,0,1,360.42-7.28Z" transform="translate(520.67 -313.67) rotate(90)"/><g class="cls-16"><polygon class="cls-1" points="306.53 121.11 306.53 142.07 531.56 76.59 531.56 55.63 306.53 121.11"/><polygon class="cls-1" points="306.53 149.11 306.53 154.07 531.56 88.59 531.56 83.63 306.53 149.11"/></g><line class="cls-17" x1="422.08" y1="217.17" x2="422.08" y2="240"/><path class="cls-18" d="M304.18,55V172a13.2,13.2,0,0,0,13.2,13.2H498.75"/><line class="cls-18" x1="420.25" y1="219" x2="420.25" y2="226.5"/><rect class="cls-1" x="377.67" y="271.57" width="86.76" height="70.68" rx="13.26"/><rect class="cls-3" x="383.93" y="276.67" width="74.23" height="60.48" rx="13.26"/><rect class="cls-11" x="404.09" y="293.09" width="33.92" height="27.63" rx="13.26"/></g></g></svg>