<?xml version="1.0" encoding="UTF-8" standalone="no"?><!DOCTYPE svg PUBLIC "-//W3C//DTD SVG 1.1//EN" "http://www.w3.org/Graphics/SVG/1.1/DTD/svg11.dtd"><svg width="100%" height="100%" viewBox="0 0 4267 4267" version="1.1" xmlns="http://www.w3.org/2000/svg" xmlns:xlink="http://www.w3.org/1999/xlink" xml:space="preserve" xmlns:serif="http://www.serif.com/" style="fill-rule:evenodd;clip-rule:evenodd;stroke-linejoin:round;stroke-miterlimit:2;"><rect id="Page-5" serif:id="Page 5" x="0" y="0" width="4266.67" height="4266.67" style="fill:none;"/><g id="Logo"><rect x="0" y="0" width="4266.67" height="4266.67" style="fill:#fff;"/></g><g id="VAULT"><path d="M2563.66,3714.82c539.955,-232.521 961.271,-770.15 1018.08,-1314.6c55.983,-536.475 -3.13,-1260.35 -5.675,-1290.9l-8.246,-98.921l-95.463,-27.191c-2.75,-0.784 -277.375,-79.35 -476.508,-164.309c-252.188,-107.591 -507.208,-255.321 -509.738,-256.791l-170.558,-99.163c-20.004,-11.629 -45.083,2.8 -45.083,25.942l0,197.408c0,54.9 30.829,102.575 76.121,126.692c38.133,21.975 284.091,162.175 536.629,269.912c140.75,60.05 309.779,115.279 413.771,147.417c14.008,214.633 40.87,741.546 -0.721,1140.12c-23.596,226.133 -130.488,463.262 -300.975,667.708c-122.467,146.854 -271.417,269.642 -431.634,357.529l0,319.15Z" style="fill:#a196c7;fill-rule:nonzero;"/><path d="M2137.4,2646.91l-233.788,0c-103.287,0 -186.971,-85.563 -183.883,-189.53c2.966,-100.058 87.691,-178.395 187.791,-178.395l445.259,0c259.304,0 474.458,-207.055 476.975,-466.342c2.537,-261.821 -209.713,-475.629 -470.963,-475.629l-223.937,1.308c-76.838,-0.2 -139.288,-62.767 -139.288,-139.65l0,-707.642c0,-23.058 -24.925,-37.495 -44.929,-26.029l-169.967,97.454c-2.575,1.48 -260.733,149.067 -515,257.005c-200.266,85.012 -472.162,163 -474.87,163.775l-96.084,27.429l-7.621,99.629c-2.354,30.783 -57,760.058 -1.075,1296.05c29.425,281.958 159.159,572.579 365.305,818.329c201.645,240.396 466.8,427.358 746.62,526.454l151.4,53.592c19.525,6.912 40.017,-7.571 40.017,-28.283l0,-160.617c0,-63.771 -41.587,-117.813 -99.125,-136.504c-230.95,-82.571 -450.662,-238.4 -619.012,-439.1c-169.742,-202.35 -276.188,-438.046 -299.73,-663.659c-41.595,-398.65 -17.4,-930.079 -4.591,-1146.5c103.254,-31.991 270.296,-86.691 410.921,-146.387c118.2,-50.175 235.395,-107.396 330.72,-156.4l0,271.408c0,235.267 191.409,426.671 426.68,426.671l223.95,-1.308c103.15,0.216 186.654,85.766 183.491,189.67c-3.041,100 -87.733,178.259 -187.783,178.259l-451.271,0c-261.254,0 -473.504,213.804 -470.967,475.629c2.517,259.287 217.671,466.337 476.971,466.337l227.784,0c77.004,0 139.654,62.65 139.654,139.455c0,0 -0.621,450.175 -0.621,543.804l0,160.612c0,20.713 20.496,35.2 40.021,28.284l151.396,-53.617c32.32,-11.446 64.254,-24.054 95.812,-37.642l0,-657.704c-8.696,-227.658 -196.512,-410.212 -426.262,-410.212" style="fill:#4a2a97;fill-rule:nonzero;"/></g></svg>