<svg xmlns="http://www.w3.org/2000/svg" xmlns:xlink="http://www.w3.org/1999/xlink" viewBox="0 0 512 512"><defs><style>.cls-1,.cls-4,.cls-6{fill:none;}.cls-2{fill:#fff;}.cls-3{clip-path:url(#clip-path);}.cls-4,.cls-6{stroke:#d6d6d6;stroke-width:6.96px;}.cls-4{stroke-miterlimit:10;}.cls-5{fill:#d6d6d6;}.cls-6{stroke-linejoin:bevel;}</style><clipPath id="clip-path"><rect class="cls-1" x="175.05" y="131.99" width="140.97" height="317.93"/></clipPath></defs><title>network_connection</title><g id="Ebene_1" data-name="Ebene 1"><polygon class="cls-2" points="345.31 88.76 312.7 123.16 313.49 116.39 325.26 132.79 328.22 136.92 324.42 139.39 287.89 163.07 318.29 131.91 317.45 138.5 305.4 122.31 302.33 118.18 306.19 115.53 345.31 88.76"/><polygon class="cls-2" points="142.05 103.64 176.45 136.25 169.68 135.46 186.09 123.69 190.22 120.73 192.68 124.54 216.36 161.06 185.2 130.67 191.79 131.51 175.59 143.55 171.47 146.62 168.82 142.76 142.05 103.64"/><polygon class="cls-2" points="145.82 292.79 178.44 258.39 177.65 265.16 165.88 248.75 162.92 244.62 166.72 242.16 203.26 218.48 172.85 249.64 173.69 243.05 185.74 259.25 188.81 263.38 184.95 266.02 145.82 292.79"/><polygon class="cls-2" points="360.65 279.95 326.25 247.33 333.02 248.12 316.61 259.89 312.49 262.86 310.02 259.06 286.34 222.52 317.5 252.93 310.91 252.09 327.1 240.03 331.23 236.96 333.87 240.82 360.65 279.95"/><g class="cls-3"><polyline class="cls-4" points="296.41 453.87 251.02 210.8 205.65 453.87"/><ellipse class="cls-5" cx="251.02" cy="202.9" rx="11.47" ry="11.47"/><path class="cls-6" d="M208,447l77.4-51.88s-57.09-62.74-57.15-62.74l40-29.44"/></g></g></svg>