<?xml version="1.0" encoding="utf-8"?>
<!-- Generator: Adobe Illustrator 23.0.0, SVG Export Plug-In . SVG Version: 6.00 Build 0)  -->
<svg version="1.1" xmlns="http://www.w3.org/2000/svg" xmlns:xlink="http://www.w3.org/1999/xlink" x="0px" y="0px"
	 viewBox="0 0 866 866" style="enable-background:new 0 0 866 866;" xml:space="preserve">
<style type="text/css">
	.st0{fill:none;stroke:#FFFFFF;stroke-width:49.7772;stroke-linecap:round;stroke-linejoin:round;stroke-miterlimit:10;}
	.st1{fill:none;stroke:#00E8CC;stroke-width:13.7225;stroke-linecap:round;stroke-linejoin:round;stroke-miterlimit:10;}
	.st2{fill:none;stroke:#000000;stroke-width:14.1145;stroke-linecap:round;stroke-miterlimit:10;}
	.st3{fill:none;stroke:#000000;stroke-width:14.1145;stroke-linecap:round;stroke-miterlimit:10;stroke-dasharray:0,43.1296;}
	
		.st4{fill:none;stroke:#000000;stroke-width:14.1145;stroke-linecap:round;stroke-miterlimit:10;stroke-dasharray:76.0705,109.9715,0,43.1296;}
	.st5{fill:#00E8CC;}
	.st6{fill:none;}
	.st7{fill:none;stroke:#4D4D4D;stroke-width:37;stroke-linejoin:round;stroke-miterlimit:10;}
	.st8{fill:none;stroke:#FFFFFF;stroke-width:47.7632;stroke-linecap:round;stroke-linejoin:round;stroke-miterlimit:10;}
	.st9{fill:none;stroke:#00E8CC;stroke-width:13.1672;stroke-linecap:round;stroke-linejoin:round;stroke-miterlimit:10;}
	
		.st10{fill:none;stroke:#000000;stroke-width:13.5434;stroke-linecap:round;stroke-miterlimit:10;stroke-dasharray:69.222,100.0709,0,39.2467;}
	.st11{clip-path:url(#XMLID_2_);fill:#CBCBCB;}
	.st12{clip-path:url(#XMLID_3_);fill:#DDDDDD;}
	.st13{clip-path:url(#XMLID_4_);fill:#CBCBCB;}
	.st14{clip-path:url(#XMLID_5_);fill:#DDDDDD;}
	.st15{clip-path:url(#XMLID_6_);fill:#D6D6D6;}
	.st16{clip-path:url(#XMLID_7_);fill:#B9B9B9;}
	.st17{fill:none;stroke:#E6E6E6;stroke-width:16.5384;stroke-linecap:round;stroke-linejoin:round;stroke-miterlimit:10;}
	.st18{fill:none;stroke:#000000;stroke-width:14;stroke-linecap:round;stroke-linejoin:round;stroke-miterlimit:10;}
	.st19{fill:#00D0B7;stroke:#E7E7E7;stroke-width:3.757;stroke-linecap:round;stroke-linejoin:round;stroke-miterlimit:10;}
	.st20{fill:#00E8CC;stroke:#FFFFFF;stroke-width:3.757;stroke-linecap:round;stroke-linejoin:round;stroke-miterlimit:10;}
	.st21{clip-path:url(#XMLID_8_);}
	.st22{fill:#FFFFFF;}
	.st23{fill:none;stroke:#00E8CC;stroke-width:12;stroke-linecap:round;stroke-miterlimit:10;}
	.st24{fill:none;stroke:#50239F;stroke-width:12;stroke-linecap:round;stroke-miterlimit:10;}
	.st25{fill:#D6D6D6;}
	.st26{clip-path:url(#XMLID_10_);}
	
		.st27{clip-path:url(#XMLID_12_);fill:none;stroke:#FFFFFF;stroke-width:3.4032;stroke-linecap:round;stroke-linejoin:round;stroke-miterlimit:10;}
	.st28{clip-path:url(#XMLID_12_);}
	.st29{fill:none;stroke:#FFFFFF;stroke-width:3.4032;stroke-linecap:round;stroke-linejoin:round;stroke-miterlimit:10;}
	.st30{fill:none;stroke:#50239F;stroke-width:13.6127;stroke-linecap:round;stroke-linejoin:round;stroke-miterlimit:10;}
	.st31{fill:none;stroke:#00E8CC;stroke-width:3.4032;stroke-linecap:round;stroke-linejoin:round;stroke-miterlimit:10;}
	.st32{fill:none;stroke:#50239F;stroke-width:10.2095;stroke-linejoin:round;stroke-miterlimit:10;}
	.st33{clip-path:url(#XMLID_12_);fill:#50239F;}
	.st34{clip-path:url(#XMLID_12_);fill:#00E8CC;}
	.st35{clip-path:url(#XMLID_10_);fill:#F9F9F9;}
	.st36{fill:none;stroke:#FFFFFF;stroke-linecap:round;stroke-linejoin:round;stroke-miterlimit:10;}
	.st37{fill:#FFFFFF;fill-opacity:0.24;}
	.st38{fill:#CCCCCC;}
</style>
<g id="Layer_16">
</g>
<g id="Layer_17">
</g>
<g id="Layer_13">
</g>
<g id="Layer_3">
</g>
<g id="Layer_1">
</g>
<g id="Layer_2">
</g>
<g id="Layer_5">
</g>
<g id="Layer_6">
</g>
<g id="Layer_7">
</g>
<g id="Layer_8">
</g>
<g id="Layer_9">
</g>
<g id="Layer_10">
</g>
<g id="Layer_11">
</g>
<g id="Layer_12">
</g>
<g id="Layer_14">
</g>
<g id="Layer_4">
	<g>
		<path class="st0" d="M840.67,326.2c-189.6,4.61-320.13-17.69-375.6-69.39c-51.26-47.79-70.53-85.04-86.69-118.68
			c-18.19-37.88-44.67-75.51-86.5-65.67c-30.17,7.09-52.79,38.88-62.57,73.35c-9.78,34.47-9.03,119.73-8.17,156"/>
		<path class="st1" d="M840.67,326.2c-189.6,4.61-320.13-17.69-375.6-69.39c-51.26-47.79-70.53-85.04-86.69-118.68
			c-18.19-37.88-44.67-75.51-86.5-65.67c-30.17,7.09-52.79,38.88-62.57,73.35c-9.78,34.47-9.03,119.73-8.17,156"/>
		<g>
			<path class="st2" d="M840.67,326.2c-12.27,0.3-24.29,0.48-36.07,0.56"/>
			<path class="st3" d="M694.69,323.62c-7.31-0.51-14.47-1.08-21.5-1.71"/>
			<path class="st4" d="M651.74,319.74c-88.68-10.01-152.19-30.79-186.67-62.94c-51.26-47.79-70.53-85.04-86.69-118.68
				c-18.19-37.88-44.67-75.51-86.5-65.67c-30.17,7.09-52.79,38.88-62.57,73.35c-6.03,21.27-8.06,61.87-8.52,98.37"/>
			<path class="st2" d="M220.68,265.74c0.03,14.13,0.24,26.72,0.46,36.07"/>
		</g>
	</g>
	<g>
		<path class="st5" d="M188.36,200.37l0.16-2.37c0.07-1.21-0.2-2.23-0.82-3.09c-0.62-0.85-1.49-1.38-2.6-1.57
			c-0.94-0.17-1.71-0.04-2.3,0.41c-0.6,0.45-0.93,1.15-1.01,2.11c-0.08,0.96,0.13,1.8,0.64,2.51c0.5,0.72,1.18,1.18,2.04,1.38
			l-0.26,4.95c-2.05-0.23-3.69-1.21-4.91-2.96c-1.22-1.75-1.75-3.81-1.58-6.19c0.19-2.41,0.97-4.27,2.35-5.6
			c1.38-1.33,3.14-1.86,5.27-1.61c2.42,0.31,4.24,1.97,5.45,4.99c0.62-1.11,1.45-1.91,2.49-2.38c1.04-0.47,2.18-0.64,3.42-0.5
			c1.54,0.17,2.87,0.73,3.99,1.66c1.12,0.93,1.95,2.15,2.49,3.63s0.74,3.07,0.61,4.75c-0.16,2.28-0.95,4.1-2.37,5.46
			c-1.42,1.36-3.23,1.96-5.43,1.81l0.29-4.91c0.95,0.08,1.74-0.14,2.37-0.66s0.99-1.28,1.08-2.27c0.09-1.14-0.18-2.15-0.8-3
			c-0.63-0.86-1.48-1.39-2.56-1.59c-1.16-0.22-2.07-0.07-2.73,0.46c-0.65,0.53-1.03,1.37-1.14,2.53l-0.19,2.91L188.36,200.37z"/>
		<path class="st6" d="M213.81,132.08l-4.85,16.35l-3.37-1.61L200,135.68c-1.14-2.28-2.15-3.87-3.02-4.77
			c-0.87-0.89-1.83-1.42-2.87-1.57c-1.46-0.18-2.42,0.41-2.86,1.77c-0.34,1.07-0.23,2.08,0.33,3.04s1.45,1.7,2.66,2.23l-1.39,4.76
			c-1.5-0.54-2.75-1.41-3.76-2.6s-1.65-2.57-1.93-4.14c-0.29-1.57-0.19-3.15,0.29-4.73c0.72-2.27,1.89-3.85,3.5-4.75
			c1.61-0.9,3.43-0.98,5.44-0.22c2.26,0.87,4.27,2.95,6.03,6.25l1.59,3.11l3.03,6.36l3.05-10.13L213.81,132.08z"/>
		<path class="st5" d="M237.26,71.3l-6.42,7.42l4.4,5.39l7.55-8.72l2.72,3.33l-10.92,12.61l-16.44-20.11l10.89-12.59l2.73,3.37
			l-7.51,8.68l3.91,4.8l6.44-7.44L237.26,71.3z"/>
		<path class="st6" d="M287.21,53.45l2.07-25.89l7.32-0.66c1.72-0.12,3.3,0.12,4.74,0.74c1.44,0.61,2.65,1.58,3.63,2.88
			c0.98,1.31,1.64,2.83,1.98,4.55c0.19,1.01,0.27,2.05,0.25,3.12l-0.04,0.94c-0.17,3.78-1.36,6.91-3.57,9.4
			c-2.21,2.48-5.05,3.88-8.5,4.2L287.21,53.45z M294.06,31.41l-1.38,17.29l2.14-0.18c2.36-0.22,4.17-1.26,5.44-3.12
			c1.27-1.86,1.85-4.54,1.73-8.05l-0.02-0.56c-0.14-1.93-0.65-3.37-1.51-4.33c-0.87-0.96-2.06-1.39-3.6-1.29L294.06,31.41z"/>
		<path class="st5" d="M367.92,75.02c1.16-0.81,1.44-2.04,0.82-3.71l-1.43-3.36c-1.52-4.03-1.12-7.07,1.21-9.09
			c1.07-0.95,2.3-1.51,3.69-1.67c1.38-0.17,2.84,0.08,4.38,0.73c1.53,0.66,2.92,1.63,4.17,2.92c1.71,1.79,2.59,3.73,2.65,5.81
			c0.06,2.08-0.77,3.96-2.48,5.63l-3.61-3.64c0.87-0.78,1.33-1.59,1.38-2.45c0.06-0.86-0.33-1.72-1.15-2.58
			c-0.81-0.85-1.72-1.38-2.72-1.61c-1.01-0.22-1.91-0.05-2.72,0.52c-1.06,0.74-1.18,2.06-0.35,3.96l1.01,2.27l0.5,1.38
			c1.22,3.66,0.65,6.5-1.7,8.52c-1.15,0.99-2.41,1.56-3.8,1.72c-1.38,0.16-2.81-0.08-4.27-0.72c-1.46-0.64-2.8-1.61-4.03-2.89
			c-1.25-1.32-2.12-2.73-2.6-4.25s-0.51-3.01-0.09-4.46c0.39-1.36,1.16-2.58,2.31-3.66l3.61,3.67c-2.09,1.84-2.13,3.8-0.12,5.89
			c0.88,0.89,1.8,1.43,2.77,1.62S367.17,75.56,367.92,75.02z"/>
		<path class="st6" d="M407.24,130.66l-4.29-8.82l-10.21,2.93l-2.25-4.63l24.96-7.19l7.08,14.58l-4.17,1.19l-4.82-9.93l-6.45,1.84
			l4.3,8.85L407.24,130.66z"/>
		<path class="st6" d="M429.88,179.19c1.31-0.54,1.84-1.69,1.59-3.45l-0.68-3.59c-0.63-4.27,0.41-7.14,3.11-8.63
			c1.25-0.7,2.57-0.98,3.96-0.85c1.39,0.13,2.76,0.68,4.12,1.65c1.36,0.97,2.51,2.21,3.45,3.74c1.29,2.11,1.74,4.19,1.36,6.24
			c-0.38,2.05-1.59,3.71-3.62,4.97l-2.76-4.33c1.01-0.57,1.63-1.27,1.87-2.1c0.24-0.83,0.05-1.75-0.58-2.77
			c-0.61-1-1.38-1.72-2.32-2.15c-0.94-0.43-1.86-0.46-2.77-0.07c-1.2,0.5-1.59,1.76-1.19,3.8l0.5,2.43l0.2,1.46
			c0.41,3.83-0.74,6.49-3.47,7.96c-1.33,0.72-2.69,1.01-4.08,0.88c-1.39-0.14-2.73-0.67-4.02-1.61c-1.29-0.94-2.4-2.17-3.33-3.69
			c-0.95-1.55-1.49-3.12-1.64-4.71c-0.15-1.59,0.14-3.05,0.86-4.38c0.67-1.24,1.68-2.27,3.04-3.08l2.75,4.35
			c-2.43,1.35-2.89,3.26-1.37,5.73c0.67,1.06,1.46,1.78,2.36,2.17C428.15,179.54,429.03,179.55,429.88,179.19z"/>
		<path class="st5" d="M468.47,224.84l-6.39-6.23l-5.57,1.94l-4.07-3.96l27.66-8.78l3.41,3.33l-14.38,21.73l-3.76-3.67
			L468.47,224.84z M466.57,217.02l4.42,4.31l5.62-7.83L466.57,217.02z"/>
		<path class="st6" d="M519.47,266.33c-1.37,0.54-2.98,0.64-4.82,0.3c-1.84-0.34-3.71-1.09-5.6-2.23c-1.5-0.89-2.64-1.99-3.4-3.31
			c-0.77-1.32-1.12-2.78-1.07-4.39c0.05-1.61,0.49-3.22,1.32-4.85c0.75-1.52,1.9-3.14,3.46-4.87s3.27-3.05,5.13-3.95
			c1.86-0.9,3.7-1.32,5.53-1.24c1.83,0.08,3.58,0.63,5.26,1.65c2.29,1.38,3.72,3.09,4.29,5.11c0.57,2.02,0.27,4.26-0.92,6.72
			l-4.28-2.51c0.61-1.3,0.81-2.4,0.6-3.31s-0.84-1.69-1.9-2.37c-1.84-1.15-3.79-1.19-5.87-0.11c-2.07,1.08-4.13,3.2-6.16,6.35
			c-1.11,1.67-1.62,3.17-1.54,4.49c0.08,1.32,0.76,2.37,2.05,3.14c1.49,0.92,2.98,1.31,4.49,1.17l2.96-3.38l-4.04-2.35l2.55-3.01
			l8.45,4.92L519.47,266.33z"/>
		<path class="st5" d="M576.58,289.24l-5.01-1.19l4.37-10.24l-9.66-2.29l-4.39,10.23l-5.01-1.19l10.22-23.88l5.01,1.19l-4.15,9.67
			l9.68,2.29l4.13-9.68l5.01,1.19L576.58,289.24z"/>
		<path class="st5" d="M633.23,280.72l2.37,0.17c1.2,0.08,2.23-0.19,3.09-0.8c0.86-0.61,1.39-1.48,1.59-2.59
			c0.18-0.94,0.05-1.71-0.39-2.31c-0.44-0.6-1.14-0.94-2.1-1.03s-1.8,0.12-2.52,0.62c-0.72,0.5-1.19,1.18-1.39,2.03l-4.95-0.29
			c0.24-2.05,1.24-3.68,2.99-4.88c1.75-1.21,3.82-1.72,6.21-1.54c2.41,0.21,4.27,1,5.58,2.39s1.84,3.15,1.57,5.28
			c-0.33,2.42-2,4.22-5.03,5.41c1.11,0.63,1.9,1.46,2.36,2.51c0.46,1.05,0.62,2.19,0.47,3.42c-0.18,1.54-0.75,2.86-1.69,3.98
			s-2.16,1.93-3.65,2.46c-1.49,0.53-3.08,0.72-4.76,0.58c-2.28-0.17-4.09-0.98-5.44-2.41c-1.35-1.43-1.94-3.25-1.77-5.45l4.91,0.32
			c-0.09,0.95,0.13,1.74,0.64,2.38c0.52,0.64,1.27,1,2.26,1.09c1.14,0.1,2.15-0.16,3.01-0.78c0.86-0.62,1.4-1.47,1.61-2.55
			c0.23-1.16,0.08-2.07-0.45-2.73c-0.53-0.66-1.37-1.04-2.52-1.16l-2.91-0.21L633.23,280.72z"/>
		<path class="st5" d="M706.67,290.06l-9.79-0.6l-2.46,10.33l-5.14-0.32l6.01-25.27l16.18,0.99l-1.02,4.22l-11.02-0.68l-1.56,6.53
			l9.82,0.6L706.67,290.06z"/>
		<path class="st5" d="M815.56,305.45l-4.96-0.14l3.91-19.38l-6.27,1.71l0.89-4.32l10.79-3.39h0.65L815.56,305.45z"/>
		<path class="st6" d="M877.39,306.37l-17.05-0.08l0.6-3.69l9.13-8.48c1.87-1.74,3.11-3.15,3.73-4.24c0.62-1.09,0.85-2.15,0.7-3.2
			c-0.24-1.45-1.07-2.2-2.5-2.24c-1.12-0.03-2.07,0.36-2.83,1.17c-0.76,0.8-1.22,1.86-1.39,3.17l-4.96,0
			c0.1-1.59,0.58-3.04,1.44-4.33s2.01-2.3,3.43-3.02s2.97-1.06,4.62-1.04c2.38,0.06,4.23,0.73,5.55,2.03
			c1.32,1.3,1.9,3.01,1.73,5.16c-0.2,2.41-1.63,4.93-4.31,7.54l-2.54,2.4l-5.26,4.69l10.58,0.08L877.39,306.37z"/>
	</g>
	<line class="st7" x1="347.07" y1="495.16" x2="347.07" y2="869.3"/>
	<g>
		<path class="st8" d="M362.05,316.99c-6.85-43.35-8.67-88.08-0.91-130.41c7.76-42.33,25.62-82.23,53.54-109.03
			c55.58-53.33,149.81-45.04,201.66,20.22c6.86,8.63,12.8,18.42,16.78,29.29c26.26,71.71-8.88,126.4-13.64,195.71
			c-5.35,78,9.86,133.42,39.59,181.03"/>
		<path class="st9" d="M362.05,316.99c-6.85-43.35-8.67-88.08-0.91-130.41c7.76-42.33,25.62-82.23,53.54-109.03
			c55.58-53.33,149.81-45.04,201.66,20.22c6.86,8.63,12.8,18.42,16.78,29.29c26.26,71.71-8.88,126.4-13.64,195.71
			c-5.35,78,9.86,133.42,39.59,181.03"/>
		<path class="st10" d="M362.05,316.99c-6.85-43.35-8.67-88.08-0.91-130.41c7.76-42.33,25.62-82.23,53.54-109.03
			c55.58-53.33,149.81-45.04,201.66,20.22c6.86,8.63,12.8,18.42,16.78,29.29c26.26,71.71-8.88,126.4-13.64,195.71
			c-5.35,78,9.86,133.42,39.59,181.03"/>
	</g>
	<g>
		<path class="st6" d="M336.84,257.53c0.01,2.21-0.7,3.95-2.12,5.19c-1.42,1.24-3.43,1.92-6.03,2.02c-0.87,0.03-1.73,0.01-2.6-0.07
			l-4.82-0.6c-3.51-0.48-6.18-1.55-8.03-3.19c-1.85-1.64-2.78-3.78-2.79-6.42c-0.01-2.22,0.69-3.95,2.11-5.2s3.42-1.93,6.01-2.03
			c0.88-0.03,1.75-0.01,2.62,0.07l4.78,0.62c3.53,0.5,6.22,1.55,8.07,3.18C335.9,252.73,336.83,254.87,336.84,257.53z
			 M318.11,252.05c-2.33,0.06-3.51,0.91-3.55,2.55c-0.04,2.37,1.79,3.83,5.52,4.38l5.95,0.73c1.24,0.16,2.28,0.22,3.09,0.2
			c2.38,0,3.58-0.85,3.62-2.54c0.09-2.38-1.8-3.85-5.68-4.39l-6.27-0.77C319.78,252.09,318.88,252.03,318.11,252.05z"/>
		<path class="st5" d="M329.28,193.84l-1.16,9.74l10.17,3.06l-0.61,5.11l-24.89-7.45l1.92-16.09l4.15,1.26l-1.31,10.96l6.42,1.94
			l1.17-9.77L329.28,193.84z"/>
		<path class="st6" d="M342.59,141.2l0.85-2.68l3.69,1.92l-0.85,2.68l4.99,2.59l-1.49,4.73l-4.99-2.59l-3.06,9.69l-3.2-1.38
			l-11.88-17.46l1.56-4.94L342.59,141.2z M339.43,151.04l1.66-5.12l-8.16-4.41l0.47,0.63L339.43,151.04z"/>
		<path class="st6" d="M357.7,99.52l-9.27-9.66l7.26-11.96l3.27,2.77l-5.1,8.4l3.86,4.32c-0.02-1.23,0.34-2.45,1.07-3.67
			c1.14-1.87,2.68-2.92,4.63-3.14c1.95-0.22,3.96,0.41,6.04,1.89c1.37,1,2.41,2.21,3.12,3.63c0.71,1.43,1.02,2.92,0.92,4.48
			c-0.1,1.56-0.59,3.04-1.48,4.45c-0.76,1.23-1.72,2.17-2.89,2.84c-1.17,0.67-2.41,0.99-3.73,0.96c-1.32-0.03-2.58-0.41-3.79-1.13
			l2.53-4.16c0.92,0.5,1.76,0.68,2.54,0.54s1.41-0.6,1.9-1.35c0.64-0.98,0.77-2.03,0.4-3.14s-1.16-2.12-2.36-3.03
			c-1.07-0.81-2.08-1.19-3.02-1.12c-0.94,0.06-1.71,0.57-2.31,1.51c-0.66,1.05-0.87,2.27-0.62,3.66L357.7,99.52z"/>
		<path class="st6" d="M406.93,44.72l-7.52,6.3l5.31,9.19l-3.95,3.31l-13.02-22.48l12.42-10.41l2.16,3.76l-8.46,7.09l3.35,5.81
			l7.55-6.32L406.93,44.72z"/>
		<path class="st5" d="M456.86,25.21l-8.48,2.8l-0.85,5.83l-5.39,1.78l4.97-28.59l4.52-1.49l12.64,22.78l-4.99,1.65L456.86,25.21z
			 M449.04,23.29l5.86-1.93l-4.35-8.6L449.04,23.29z"/>
		<path class="st6" d="M509.37,19.61l12.41,0.87l-1.02,4.18l-18.91-1.27l0.8-3.31l16.47-16.87l-12.15-0.85l1.04-4.21l18.61,1.25
			l-0.8,3.24L509.37,19.61z"/>
		<path class="st5" d="M575.22,35.34l-8.11-3.74l-4.6,3.69l-5.16-2.38l23.13-17.52l4.33,1.99l-6.29,25.28l-4.77-2.2L575.22,35.34z
			 M570.82,28.6l5.6,2.58l2.68-9.26L570.82,28.6z"/>
		<path class="st5" d="M637,64.72c-1.88,1.65-4.29,2-7.24,1.04c0.22,1.19,0.14,2.32-0.23,3.39s-1.01,2-1.92,2.8
			c-1.71,1.54-3.67,2.18-5.88,1.94c-2.21-0.25-4.2-1.29-5.97-3.12c-1.64-1.66-2.49-3.46-2.56-5.38s0.7-3.61,2.31-5.04
			c2.12-1.89,4.81-2.23,8.09-1.02c-0.25-2.19,0.44-4.02,2.08-5.5c1.08-0.97,2.3-1.58,3.64-1.83s2.69-0.13,4.03,0.37
			s2.56,1.31,3.63,2.42c1.54,1.6,2.32,3.3,2.34,5.12C639.33,61.74,638.56,63.34,637,64.72z M624.39,68.26
			c0.8-0.62,1.26-1.34,1.38-2.16c0.12-0.82-0.15-1.58-0.81-2.27c-0.74-0.77-1.63-1.17-2.68-1.21c-1.05-0.04-2.03,0.3-2.96,1.01
			c-0.8,0.62-1.26,1.33-1.37,2.14c-0.11,0.8,0.17,1.56,0.85,2.27c0.75,0.78,1.64,1.18,2.67,1.22
			C622.5,69.29,623.47,68.96,624.39,68.26z M633.27,61.37c0.75-0.6,1.18-1.25,1.29-1.94s-0.11-1.33-0.67-1.92
			c-0.64-0.67-1.41-1.01-2.32-1.01s-1.78,0.32-2.61,0.98c-0.74,0.6-1.19,1.25-1.33,1.95c-0.15,0.7,0.07,1.36,0.64,1.96
			c0.63,0.66,1.41,0.99,2.34,0.99C631.54,62.36,632.42,62.03,633.27,61.37z"/>
		<path class="st6" d="M657.8,106.54l13.29-1.58l5.17,13l-4.18,0.95l-3.63-9.13l-5.77,0.48c1,0.73,1.75,1.75,2.28,3.07
			c0.81,2.04,0.72,3.9-0.28,5.59c-1,1.69-2.71,2.92-5.15,3.68c-1.62,0.49-3.21,0.59-4.78,0.3s-2.94-0.94-4.13-1.96
			c-1.19-1.02-2.07-2.3-2.65-3.86c-0.52-1.34-0.7-2.68-0.53-4.02c0.17-1.33,0.66-2.52,1.48-3.55c0.82-1.03,1.88-1.81,3.18-2.35
			l1.8,4.52c-0.95,0.43-1.61,1-1.96,1.71c-0.36,0.71-0.38,1.49-0.06,2.33c0.4,1.1,1.15,1.84,2.26,2.21
			c1.11,0.37,2.38,0.35,3.83-0.06c1.29-0.36,2.2-0.94,2.72-1.73c0.52-0.79,0.58-1.71,0.19-2.75c-0.44-1.16-1.29-2.06-2.55-2.69
			L657.8,106.54z"/>
		<path class="st5" d="M670.06,178.76l0.11,2.81l-4.12-0.55l-0.11-2.81l-5.57-0.74l-0.2-4.95l5.57,0.74l-0.41-10.15l3.47,0.21
			l17.11,12.38l0.21,5.18L670.06,178.76z M669.68,168.43l0.18,5.38l9.17,1.37l-0.65-0.43L669.68,168.43z"/>
		<path class="st6" d="M672.04,240.39c-2.42-0.64-4.05-2.45-4.9-5.43c-0.87,0.85-1.85,1.41-2.95,1.7c-1.1,0.29-2.23,0.28-3.4-0.04
			c-2.23-0.57-3.86-1.83-4.88-3.8c-1.03-1.97-1.27-4.2-0.74-6.7c0.47-2.29,1.48-3.99,3.04-5.13c1.56-1.14,3.38-1.43,5.48-0.89
			c2.75,0.7,4.54,2.75,5.36,6.15c1.68-1.43,3.58-1.87,5.72-1.34c1.41,0.36,2.59,1.03,3.55,2c0.96,0.97,1.6,2.16,1.94,3.56
			c0.34,1.4,0.34,2.85,0.01,4.36c-0.47,2.16-1.45,3.76-2.95,4.8C675.83,240.67,674.07,240.92,672.04,240.39z M662.09,231.9
			c0.96,0.32,1.82,0.3,2.56-0.05s1.23-1,1.43-1.94c0.23-1.04,0.06-2.01-0.49-2.9c-0.55-0.89-1.38-1.52-2.49-1.89
			c-0.96-0.32-1.81-0.3-2.54,0.05c-0.73,0.35-1.2,1.01-1.41,1.97c-0.23,1.05-0.07,2.02,0.47,2.89
			C660.17,230.91,660.99,231.53,662.09,231.9z M672.75,235.43c0.92,0.29,1.7,0.28,2.33-0.01s1.04-0.84,1.22-1.62
			c0.2-0.9,0.05-1.73-0.45-2.49c-0.5-0.75-1.26-1.3-2.26-1.62c-0.91-0.29-1.7-0.29-2.36-0.02c-0.67,0.27-1.09,0.81-1.27,1.62
			c-0.2,0.89-0.04,1.72,0.49,2.5C670.96,234.55,671.73,235.1,672.75,235.43z"/>
		<path class="st6" d="M647.11,300.68l16.8,9.24l-0.92,5.18l-23.54-13.83l0.9-5.11l17.03,1.64l-15.62-9.57l0.9-5.11l25.47,2.98
			l-0.88,4.95l-17.88-2.65l16.59,9.94l-0.76,4.31L647.11,300.68z"/>
		<path class="st5" d="M657.51,395.61l0.45,2.33c0.24,1.18,0.76,2.11,1.57,2.78c0.81,0.67,1.79,0.96,2.91,0.86
			c0.95-0.07,1.66-0.4,2.13-0.98c0.46-0.58,0.61-1.35,0.45-2.29c-0.17-0.95-0.58-1.7-1.25-2.27c-0.67-0.57-1.44-0.84-2.32-0.82
			l-1-4.85c2.04-0.3,3.88,0.24,5.49,1.62c1.62,1.38,2.65,3.25,3.09,5.59c0.42,2.38,0.14,4.38-0.86,6.01c-1,1.63-2.57,2.6-4.7,2.89
			c-2.42,0.31-4.6-0.83-6.53-3.45c-0.32,1.23-0.92,2.21-1.81,2.93c-0.89,0.72-1.95,1.17-3.18,1.34c-1.53,0.22-2.96,0.02-4.28-0.6
			s-2.43-1.58-3.33-2.89s-1.49-2.79-1.79-4.45c-0.42-2.25-0.12-4.21,0.92-5.88c1.03-1.68,2.63-2.72,4.8-3.12l0.96,4.83
			c-0.94,0.16-1.64,0.58-2.13,1.24s-0.64,1.49-0.47,2.47c0.2,1.13,0.71,2.03,1.54,2.71c0.82,0.67,1.78,0.97,2.88,0.9
			c1.18-0.08,2.02-0.46,2.52-1.14s0.65-1.59,0.46-2.74l-0.55-2.87L657.51,395.61z"/>
		<path class="st6" d="M664.19,455.13l-3.08-8.38l-5.86-0.65l-1.96-5.33l28.74,4l1.64,4.47l-22.34,13.41l-1.81-4.93L664.19,455.13z
			 M665.84,447.25l2.13,5.79l8.44-4.64L665.84,447.25z"/>
		<path class="st5" d="M700.34,484.6l-3.91,1.59l-0.46-0.85c-2.04-3.47-5.34-5.03-9.9-4.67c1.95,0.64,3.36,1.84,4.23,3.61
			c0.62,1.24,0.81,2.45,0.58,3.65s-0.81,2.29-1.76,3.28c-0.95,0.99-2.15,1.79-3.61,2.4c-1.55,0.65-3.14,0.91-4.77,0.78
			s-3.11-0.63-4.43-1.52c-1.32-0.89-2.34-2.05-3.05-3.51c-0.73-1.51-0.97-3-0.73-4.48c0.24-1.48,0.93-2.82,2.06-4.03
			c1.13-1.21,2.56-2.15,4.28-2.83l1.49-0.56c4.17-1.54,8.03-1.72,11.58-0.55c3.56,1.17,6.25,3.53,8.09,7.08L700.34,484.6z
			 M685.93,484.65c-0.37-0.77-0.91-1.35-1.62-1.75s-1.47-0.64-2.29-0.71l-1.51,0.53c-0.5,0.19-1.02,0.43-1.56,0.73
			c-0.97,0.53-1.64,1.16-2.01,1.89s-0.36,1.5,0.03,2.28c0.37,0.79,0.98,1.36,1.84,1.72c0.86,0.36,1.82,0.46,2.87,0.29
			s2.02-0.54,2.89-1.12c0.76-0.52,1.27-1.11,1.52-1.79C686.33,486.04,686.28,485.35,685.93,484.65z"/>
		<path class="st6" d="M712.74,522.53l1.5,1.84c0.77,0.93,1.67,1.49,2.71,1.69c1.03,0.2,2.03-0.01,2.97-0.63
			c0.81-0.52,1.27-1.14,1.41-1.87c0.13-0.73-0.1-1.48-0.7-2.23c-0.6-0.75-1.32-1.22-2.18-1.4c-0.86-0.18-1.67-0.05-2.43,0.38
			l-3.19-3.79c1.65-1.24,3.52-1.63,5.6-1.19c2.08,0.44,3.88,1.59,5.38,3.45c1.5,1.89,2.21,3.79,2.1,5.7s-1.02,3.5-2.75,4.77
			c-1.98,1.43-4.44,1.45-7.38,0.07c0.31,1.24,0.24,2.38-0.2,3.44c-0.44,1.06-1.16,1.96-2.16,2.69c-1.24,0.92-2.59,1.43-4.05,1.51
			c-1.46,0.08-2.89-0.24-4.3-0.96c-1.41-0.72-2.64-1.74-3.69-3.06c-1.44-1.77-2.11-3.64-1.99-5.61c0.11-1.97,1.02-3.64,2.73-5.03
			l3.14,3.79c-0.75,0.59-1.17,1.29-1.28,2.1c-0.11,0.81,0.14,1.61,0.76,2.39c0.71,0.9,1.59,1.45,2.64,1.65s2.03,0.01,2.96-0.58
			c1-0.63,1.56-1.37,1.68-2.2c0.12-0.83-0.18-1.71-0.89-2.63l-1.85-2.26L712.74,522.53z"/>
		<path class="st6" d="M748.01,558.22l1.79,1.56c0.92,0.79,1.9,1.19,2.95,1.22c1.05,0.03,1.99-0.35,2.83-1.11
			c0.71-0.64,1.07-1.34,1.07-2.08s-0.35-1.44-1.06-2.08c-0.71-0.65-1.51-0.99-2.38-1.02s-1.65,0.23-2.33,0.79l-3.78-3.21
			c1.43-1.49,3.2-2.2,5.33-2.1c2.13,0.09,4.09,0.93,5.88,2.5c1.8,1.61,2.81,3.37,3.02,5.27s-0.42,3.63-1.92,5.17
			c-1.72,1.74-4.14,2.17-7.27,1.3c0.51,1.17,0.64,2.31,0.38,3.42s-0.82,2.12-1.68,3.02c-1.07,1.12-2.32,1.84-3.74,2.16
			c-1.42,0.32-2.89,0.25-4.4-0.23s-2.89-1.27-4.15-2.4c-1.72-1.51-2.68-3.24-2.9-5.2c-0.22-1.96,0.4-3.76,1.86-5.42l3.73,3.21
			c-0.64,0.7-0.94,1.47-0.91,2.29s0.41,1.56,1.15,2.23c0.85,0.77,1.81,1.16,2.88,1.19s2-0.33,2.82-1.07
			c0.88-0.79,1.31-1.61,1.29-2.45c-0.02-0.84-0.46-1.66-1.32-2.44l-2.2-1.92L748.01,558.22z"/>
	</g>
	<g>
		<g>
			<defs>
				<rect id="XMLID_191_" x="345.81" y="294.84" width="26.18" height="13.16"/>
			</defs>
			<use xlink:href="#XMLID_191_"  style="overflow:visible;fill:#DDDDDD;"/>
			<clipPath id="XMLID_2_">
				<use xlink:href="#XMLID_191_"  style="overflow:visible;"/>
			</clipPath>
			<rect x="342.81" y="294.84" class="st11" width="18.1" height="13.16"/>
		</g>
		<g>
			<defs>
				<path id="XMLID_190_" d="M372.35,296.78h-26.9c-1.52,0-2.75-1.23-2.75-2.75l0,0c0-1.52,1.23-2.75,2.75-2.75h26.9
					c1.52,0,2.75,1.23,2.75,2.75l0,0C375.1,295.55,373.87,296.78,372.35,296.78z"/>
			</defs>
			<use xlink:href="#XMLID_190_"  style="overflow:visible;fill:#C7C7C7;"/>
			<clipPath id="XMLID_3_">
				<use xlink:href="#XMLID_190_"  style="overflow:visible;"/>
			</clipPath>
			<path class="st12" d="M380.06,291.29H355.6c-1.52,0-2.75,1.23-2.75,2.75s1.23,2.75,2.75,2.75h24.45V291.29z"/>
		</g>
	</g>
	<g>
		<g>
			<defs>
				<rect id="XMLID_189_" x="205.81" y="294.84" width="26.18" height="13.16"/>
			</defs>
			<use xlink:href="#XMLID_189_"  style="overflow:visible;fill:#D6D6D6;"/>
			<clipPath id="XMLID_4_">
				<use xlink:href="#XMLID_189_"  style="overflow:visible;"/>
			</clipPath>
			<rect x="202.81" y="294.84" class="st13" width="18.1" height="13.16"/>
		</g>
		<g>
			<defs>
				<path id="XMLID_188_" d="M232.35,296.78h-26.9c-1.52,0-2.75-1.23-2.75-2.75l0,0c0-1.52,1.23-2.75,2.75-2.75h26.9
					c1.52,0,2.75,1.23,2.75,2.75l0,0C235.1,295.55,233.87,296.78,232.35,296.78z"/>
			</defs>
			<use xlink:href="#XMLID_188_"  style="overflow:visible;fill:#C7C7C7;"/>
			<clipPath id="XMLID_5_">
				<use xlink:href="#XMLID_188_"  style="overflow:visible;"/>
			</clipPath>
			<path class="st14" d="M240.06,291.29H215.6c-1.52,0-2.75,1.23-2.75,2.75s1.23,2.75,2.75,2.75h24.45V291.29z"/>
		</g>
	</g>
	<g>
		<defs>
			<path id="XMLID_84_" d="M481.86,314.26L481.86,314.26c0-0.01,0-0.01,0-0.02c-0.01-4.52-3.68-8.17-8.2-8.16l-304.19,0.73
				c-4.52,0.01-8.18,3.67-8.17,8.19c0,0.01,0,0.01,0,0.02h0l0.01,29.6l-0.01,141.88c0,0.01,0,0.01,0,0.01
				c-0.01,4.52,3.65,8.19,8.16,8.19l304.2,0.74c0.01,0,0.01,0,0.03,0c4.51,0,8.16-3.65,8.16-8.16v-0.01L481.86,314.26z"/>
		</defs>
		<use xlink:href="#XMLID_84_"  style="overflow:visible;fill:#EBEBEB;"/>
		<clipPath id="XMLID_6_">
			<use xlink:href="#XMLID_84_"  style="overflow:visible;"/>
		</clipPath>
		<path class="st15" d="M332.86,486.5l-0.01-63.6l0.01-107.88c0-0.01,0-0.01,0-0.01c0.01-4.52-3.65-8.19-8.16-8.19l-177.88-0.27
			v188.44l177.88-0.27c4.52-0.01,8.18-3.67,8.17-8.19C332.86,486.51,332.86,486.51,332.86,486.5L332.86,486.5z"/>
	</g>
	<g>
		<defs>
			<path id="XMLID_83_" d="M319.1,441.76l-0.01-117.4h0c0-0.01,0-0.01,0-0.02c-0.01-4.21-3.43-7.62-7.64-7.61l-131.73,0.28
				c-4.21,0.01-7.63,3.43-7.62,7.64c0,0.01,0,0.01,0,0.02h0l0.01,51.1l-0.01,101.1h0c0,0.01,0,0.01,0,0.02l0,0
				c-0.01,4.21,3.4,7.63,7.62,7.64l131.73,0.28c4.21,0.01,7.64-3.4,7.64-7.61c0-0.01,0-0.01,0-0.02h0l0-25.86h0.01L319.1,441.76z"/>
		</defs>
		<use xlink:href="#XMLID_83_"  style="overflow:visible;fill:#EDEEEE;"/>
		<clipPath id="XMLID_7_">
			<use xlink:href="#XMLID_83_"  style="overflow:visible;"/>
		</clipPath>
		<path class="st16" d="M329.1,441.76l-0.01-117.4h0c0-0.01,0-0.01,0-0.02c-0.01-4.21-3.43-7.62-7.64-7.61l-131.73,0.28
			c-4.21,0.01-7.63,3.43-7.62,7.64c0,0.01,0,0.01,0,0.02h0l0.01,51.1l-0.01,101.1h0c0,0.01,0,0.01,0,0.02l0,0
			c-0.01,4.21,3.4,7.63,7.62,7.64l131.73,0.28c4.21,0.01,7.64-3.4,7.64-7.61c0-0.01,0-0.01,0-0.02h0l0-46.86h0.01L329.1,441.76z"/>
	</g>
	<line class="st17" x1="195.73" y1="396.8" x2="304.41" y2="396.8"/>
	<line class="st18" x1="198.07" y1="396.8" x2="290.07" y2="396.8"/>
	<path class="st19" d="M118.18,754.84h95.49l13.86,88.64h-33.32c0,4.73-6.32,8.55-14.12,8.55c-7.79,0-14.11-3.83-14.11-8.55h-33.94
		L118.18,754.84z"/>
	<path class="st20" d="M283.55,689.74l-69.89,64.07h-33.32c0,4.73-6.32,8.55-14.12,8.55c-7.79,0-14.11-3.83-14.11-8.55h-33.94
		l69.89-64.07"/>
	<path class="st19" d="M171.18,599.84h95.49l15.86,88.64h-33.32c0,4.73-6.32,8.55-14.12,8.55c-7.79,0-14.11-3.83-14.11-8.55h-33.94
		L171.18,599.84z"/>
	<path class="st20" d="M187.03,511.27h95.49l-15.86,88.64h-33.32c0,4.73-6.32,8.55-14.12,8.55c-7.79,0-14.11-3.83-14.11-8.55h-33.94
		L187.03,511.27z"/>
	<path class="st19" d="M171.18,422.71h95.49l15.86,88.64h-33.32c0,4.73-6.32,8.55-14.12,8.55c-7.79,0-14.11-3.83-14.11-8.55h-33.94
		L171.18,422.71z"/>
	<g>
		<defs>
			<path id="XMLID_11_" d="M293.55,394.71l-26.89,28.07h-33.32c0,4.73-6.32,8.55-14.12,8.55c-7.79,0-14.11-3.83-14.11-8.55h-33.94
				l26.89-28.07"/>
		</defs>
		<use xlink:href="#XMLID_11_"  style="overflow:visible;fill:#00E8CC;"/>
		<clipPath id="XMLID_8_">
			<use xlink:href="#XMLID_11_"  style="overflow:visible;"/>
		</clipPath>
		<g class="st21">
			<path class="st22" d="M247.13,398.57l-2.15,1.92h-8.2l-5.55,4.95h8.2l-2.16,1.93H218.8l2.16-1.93h7.69l5.55-4.95h-7.69l2.15-1.92
				H247.13z"/>
		</g>
		
			<use xlink:href="#XMLID_11_"  style="overflow:visible;fill:none;stroke:#FFFFFF;stroke-width:3.757;stroke-linecap:round;stroke-linejoin:round;stroke-miterlimit:10;"/>
	</g>
	<g>
		<path class="st22" d="M177.65,822.42l0.44,2.57h5.74l0.39,2.3h-14.93l-0.79-4.66c-0.26-1.53-0.08-2.71,0.56-3.54
			c0.63-0.83,1.68-1.25,3.14-1.25c1,0,1.87,0.21,2.62,0.64c0.75,0.43,1.37,1.02,1.86,1.79l5.71-2.97h0.13l0.42,2.46L177.65,822.42z
			 M175.99,824.98l-0.4-2.37c-0.13-0.78-0.46-1.38-0.97-1.82s-1.16-0.65-1.92-0.65c-0.8,0-1.38,0.2-1.75,0.6s-0.49,1-0.37,1.81
			l0.41,2.43H175.99z"/>
		<path class="st22" d="M174.15,807.3l0.93,5.44h4.59l-1.08-6.36h2.07l1.48,8.66H167.2l-1.47-8.6h2.09l1.07,6.29h4.12l-0.93-5.44
			H174.15z"/>
		<path class="st22" d="M177.78,801.63l-1.03-6.01h2.07l1.42,8.31h-14.93l-0.39-2.3H177.78z"/>
		<path class="st22" d="M173.65,785.65l0.87,5.13l3.66,1.07l0.41,2.39l-15.78-5l-0.35-2.07l14.08-5.01l0.41,2.4L173.65,785.65z
			 M172.32,790.14l-0.65-3.84l-5.87,1.92L172.32,790.14z"/>
		<path class="st22" d="M165.86,775.52l-5.87-2.78l-0.45-2.66l8.09,4l6.83-4.09l0.46,2.68l-4.99,2.85l5.96,2.86l0.46,2.67l-8.23-4.1
			l-6.72,4.01l-0.45-2.66L165.86,775.52z"/>
	</g>
	<g>
		<path class="st22" d="M237.41,661.65h-14.93l-0.77-4.54c-0.26-1.5-0.11-2.64,0.43-3.42s1.49-1.17,2.82-1.17
			c0.68,0,1.33,0.16,1.93,0.49c0.6,0.33,1.11,0.81,1.52,1.44c0.1-0.71,0.41-1.27,0.95-1.66c0.54-0.39,1.23-0.59,2.08-0.59
			c1.4,0,2.55,0.4,3.43,1.2c0.89,0.8,1.46,1.94,1.71,3.43L237.41,661.65z M228.37,659.35l-0.38-2.26c-0.12-0.72-0.4-1.27-0.83-1.68
			c-0.43-0.4-0.99-0.6-1.66-0.6c-0.74,0-1.24,0.19-1.5,0.56s-0.33,0.95-0.2,1.74l0.38,2.24H228.37z M230.28,659.35h4.67l-0.44-2.56
			c-0.12-0.72-0.42-1.29-0.89-1.69c-0.47-0.41-1.07-0.61-1.79-0.61c-1.55,0-2.23,0.7-2.02,2.11L230.28,659.35z"/>
		<path class="st22" d="M218.72,639.62h9.98c1.59,0,2.92,0.45,4,1.35c1.08,0.9,1.75,2.1,2,3.6c0.26,1.52,0.01,2.72-0.75,3.61
			c-0.76,0.89-1.95,1.34-3.57,1.34h-9.97l-0.39-2.29h9.99c1,0,1.72-0.22,2.17-0.67c0.45-0.45,0.6-1.11,0.45-1.98
			c-0.3-1.77-1.51-2.66-3.61-2.66h-9.91L218.72,639.62z"/>
		<path class="st22" d="M229.46,626.42c0.79,0.48,1.43,1.14,1.94,1.99c0.51,0.85,0.85,1.81,1.04,2.89c0.19,1.11,0.07,2.09-0.35,2.95
			c-0.42,0.85-1.12,1.51-2.1,1.98s-2.17,0.71-3.57,0.72h-1.17c-2.26,0-4.1-0.48-5.53-1.44c-1.43-0.96-2.29-2.3-2.59-4.01
			c-0.25-1.47-0.04-2.64,0.64-3.51c0.68-0.87,1.77-1.39,3.29-1.57l0.38,2.26c-1.75,0.25-2.5,1.18-2.22,2.77
			c0.18,1.03,0.73,1.81,1.66,2.35s2.2,0.81,3.82,0.83h1.15c1.61,0,2.81-0.3,3.6-0.91c0.79-0.6,1.09-1.44,0.91-2.51
			c-0.2-1.18-0.64-2.01-1.33-2.51h-2.92l0.47,2.73h-1.97l-0.86-5.02H229.46z"/>
	</g>
	<g>
		<path class="st22" d="M232.15,481.79c1.62,0.13,2.95,0.65,3.99,1.56c1.05,0.91,1.7,2.12,1.96,3.63c0.18,1.05,0.06,1.98-0.37,2.79
			c-0.43,0.8-1.12,1.42-2.09,1.86s-2.13,0.66-3.5,0.68h-1.39c-1.41,0-2.69-0.22-3.84-0.66c-1.15-0.44-2.08-1.08-2.81-1.91
			s-1.18-1.78-1.36-2.87c-0.25-1.46,0-2.64,0.74-3.53s1.92-1.41,3.52-1.56l0.39,2.29c-1.05,0.11-1.78,0.39-2.18,0.83
			c-0.4,0.45-0.53,1.1-0.38,1.96c0.17,1,0.71,1.77,1.63,2.31c0.92,0.54,2.17,0.81,3.77,0.82h1.32c1.61,0,2.8-0.26,3.56-0.77
			c0.76-0.51,1.06-1.26,0.89-2.25c-0.15-0.9-0.5-1.58-1.03-2.04s-1.35-0.74-2.43-0.86L232.15,481.79z"/>
		<path class="st22" d="M227.59,468c1.46,0,2.79,0.22,3.97,0.67c1.18,0.45,2.14,1.09,2.87,1.92s1.19,1.79,1.38,2.88
			c0.18,1.07,0.05,2.03-0.4,2.87s-1.18,1.49-2.2,1.95s-2.24,0.69-3.67,0.7h-0.84c-1.46,0-2.78-0.23-3.97-0.69
			c-1.19-0.46-2.15-1.1-2.89-1.94c-0.73-0.83-1.19-1.79-1.38-2.87c-0.18-1.08-0.06-2.04,0.39-2.87s1.17-1.48,2.19-1.93
			c1.02-0.46,2.26-0.69,3.71-0.69H227.59z M227.2,470.3c-1.65,0-2.88,0.28-3.66,0.83c-0.79,0.55-1.09,1.34-0.92,2.36
			c0.17,1,0.74,1.77,1.72,2.33c0.97,0.56,2.27,0.85,3.87,0.86h0.86c1.64,0,2.86-0.28,3.66-0.85s1.11-1.35,0.94-2.36
			c-0.17-1.02-0.74-1.8-1.71-2.35c-0.97-0.55-2.29-0.82-3.98-0.82H227.2z"/>
		<path class="st22" d="M227.51,459.71l0.44,2.57h5.74l0.39,2.3h-14.93l-0.79-4.66c-0.26-1.53-0.08-2.71,0.56-3.54
			c0.63-0.83,1.68-1.25,3.14-1.25c1,0,1.87,0.21,2.62,0.64c0.75,0.43,1.37,1.02,1.86,1.79l5.71-2.97h0.13l0.42,2.46L227.51,459.71z
			 M225.85,462.27l-0.4-2.37c-0.13-0.78-0.46-1.38-0.97-1.82c-0.52-0.44-1.16-0.65-1.92-0.65c-0.8,0-1.38,0.2-1.75,0.6
			s-0.49,1-0.37,1.81l0.41,2.43H225.85z"/>
		<path class="st22" d="M230.11,441.3l0.39,2.3l-9.59,5.9h10.59l0.39,2.3h-14.93l-0.39-2.3l9.62-5.92h-10.63l-0.39-2.28H230.11z"/>
	</g>
	<g>
		<path class="st22" d="M181.73,729.21l-3.42,3.06h14.06l-1.89,1.69h-14.06l-3.39,3.03h-2.29l8.71-7.78H181.73z"/>
		<path class="st22" d="M199.59,722.42l-4.25,3.8l2.92,0.79l-1.98,1.77l-12.2-3.7l1.71-1.53l20.51-3.71l-1.99,1.78L199.59,722.42z
			 M193.58,725.73l3.18-2.84l-8.37,1.42L193.58,725.73z"/>
		<path class="st22" d="M214.62,710.5c0.37,0.35,0.41,0.85,0.1,1.47c-0.31,0.63-0.91,1.34-1.8,2.14c-0.92,0.82-2.04,1.55-3.38,2.18
			s-2.77,1.12-4.31,1.46c-1.54,0.34-3.09,0.52-4.65,0.54h-1.28c-2.47,0-4-0.35-4.6-1.06s-0.18-1.7,1.24-2.97
			c1.22-1.09,2.64-1.96,4.26-2.6s3.35-1.03,5.19-1.16l-1.87,1.67c-2.18,0.19-3.93,0.87-5.25,2.05c-0.85,0.76-1.05,1.34-0.57,1.74
			c0.47,0.4,1.59,0.6,3.34,0.62h1.26c1.77,0,3.39-0.22,4.86-0.67c1.48-0.45,2.66-1.07,3.55-1.86c0.98-0.87,1.34-1.49,1.09-1.86h-3.2
			l-2.26,2.02h-2.16l4.16-3.72H214.62z"/>
	</g>
	<line class="st23" x1="263.07" y1="330.8" x2="259.07" y2="330.8"/>
	<line class="st24" x1="307.07" y1="330.8" x2="303.07" y2="330.8"/>
	<g>
		<defs>
			<path id="XMLID_171_" d="M350.01,330.82l134.62,0.36c4.28,0.01,7.78,3.48,7.8,7.77l0.05,8.87l0.38,131.43
				c0.02,4.12-3.3,7.45-7.42,7.45l-135.21-0.36c-4.12-0.01-7.48-3.35-7.51-7.47l-0.38-131.43l-0.05-8.87
				C342.27,334.28,345.72,330.82,350.01,330.82z"/>
		</defs>
		<use xlink:href="#XMLID_171_"  style="overflow:visible;fill:#EDEDED;"/>
		<clipPath id="XMLID_9_">
			<use xlink:href="#XMLID_171_"  style="overflow:visible;"/>
		</clipPath>
		
			<use xlink:href="#XMLID_171_"  style="overflow:visible;fill:none;stroke:#EDEDED;stroke-width:1.7445;stroke-linejoin:round;stroke-miterlimit:10;"/>
	</g>
	<path id="XMLID_170_" class="st25" d="M350.01,330.82l134.62,0.36c4.28,0.01,7.78,3.48,7.8,7.77l0.05,8.87l0.38,131.43
		c0.02,4.12-3.3,7.45-7.42,7.45l-135.21-0.36c-4.12-0.01-7.48-3.35-7.51-7.47l-0.38-131.43l-0.05-8.87
		C342.27,334.28,345.72,330.82,350.01,330.82z"/>
	<g>
		<defs>
			<path id="XMLID_167_" d="M358.45,330.83l131.62,0.36c4.28,0.01,7.78,3.48,7.8,7.77l0.05,8.87l0.38,131.43
				c0.02,4.12-3.3,7.45-7.42,7.45l-132.21-0.36c-4.12-0.01-7.48-3.35-7.51-7.47l-0.38-131.43l-0.05-8.87
				C350.71,334.29,354.16,330.83,358.45,330.83z"/>
		</defs>
		<use xlink:href="#XMLID_167_"  style="overflow:visible;fill:#FFFFFF;"/>
		<clipPath id="XMLID_10_">
			<use xlink:href="#XMLID_167_"  style="overflow:visible;"/>
		</clipPath>
		<g class="st26">
			<g>
				<defs>
					<path id="XMLID_168_" d="M357.44,322.26l130.54,0.36c5.5,0.01,9.98,4.47,10.01,9.97l0.07,11.38l0.8,136.78
						c0.03,5.29-4.23,9.57-9.52,9.56l-131.3-0.36c-5.29-0.01-9.6-4.3-9.63-9.59l-0.8-136.78l-0.07-11.38
						C347.51,326.7,351.94,322.26,357.44,322.26z"/>
				</defs>
				<use xlink:href="#XMLID_168_"  style="overflow:visible;fill:#50239F;"/>
				<clipPath id="XMLID_12_">
					<use xlink:href="#XMLID_168_"  style="overflow:visible;"/>
				</clipPath>
				<g class="st28">
					<path class="st29" d="M527.5,410.93l-17.49-49.11c-1.63-4.58-8.11-4.58-9.75,0l-11.98,33.63c-1.63,4.58-8.11,4.58-9.75,0
						l-11.98-33.63c-1.63-4.58-8.11-4.58-9.75,0l-11.98,33.63c-1.63,4.58-8.11,4.58-9.75,0l-11.98-33.63
						c-1.63-4.58-8.11-4.58-9.75,0l-11.98,33.63c-1.63,4.58-8.11,4.58-9.75,0l-11.98-33.63c-1.63-4.58-8.11-4.58-9.75,0
						l-17.49,49.11"/>
					<g>
						<path class="st30" d="M550.99,375.89l-17.49-14.07c-1.63-4.58-8.11-4.58-9.75,0l-11.98,33.63c-1.63,4.58-8.11,4.58-9.75,0
							l-11.98-33.63c-1.63-4.58-8.11-4.58-9.75,0l-11.98,33.63c-1.63,4.58-8.11,4.58-9.75,0l-11.98-33.63
							c-1.63-4.58-8.11-4.58-9.75,0l-11.98,33.63c-1.63,4.58-8.11,4.58-9.75,0l-11.98-33.63c-1.63-4.58-8.11-4.58-9.75,0
							l-17.49,14.07"/>
						<path class="st31" d="M550.99,375.89l-17.49-14.07c-1.63-4.58-8.11-4.58-9.75,0l-11.98,33.63c-1.63,4.58-8.11,4.58-9.75,0
							l-11.98-33.63c-1.63-4.58-8.11-4.58-9.75,0l-11.98,33.63c-1.63,4.58-8.11,4.58-9.75,0l-11.98-33.63
							c-1.63-4.58-8.11-4.58-9.75,0l-11.98,33.63c-1.63,4.58-8.11,4.58-9.75,0l-11.98-33.63c-1.63-4.58-8.11-4.58-9.75,0
							l-17.49,14.07"/>
					</g>
					<g>
						<line class="st32" x1="527.5" y1="410.93" x2="510.01" y2="361.82"/>
						<line class="st29" x1="527.5" y1="410.93" x2="510.01" y2="361.82"/>
					</g>
					<g>
						<line class="st32" x1="435.1" y1="395.45" x2="423.13" y2="361.82"/>
						<line class="st29" x1="435.1" y1="395.45" x2="423.13" y2="361.82"/>
					</g>
					<g>
						<line class="st32" x1="478.54" y1="395.45" x2="466.57" y2="361.82"/>
						<line class="st29" x1="478.54" y1="395.45" x2="466.57" y2="361.82"/>
					</g>
				</g>
				<g class="st28">
					<path class="st29" d="M527.5,465.93l-17.49-49.11c-1.63-4.58-8.11-4.58-9.75,0l-11.98,33.63c-1.63,4.58-8.11,4.58-9.75,0
						l-11.98-33.63c-1.63-4.58-8.11-4.58-9.75,0l-11.98,33.63c-1.63,4.58-8.11,4.58-9.75,0l-11.98-33.63
						c-1.63-4.58-8.11-4.58-9.75,0l-11.98,33.63c-1.63,4.58-8.11,4.58-9.75,0l-11.98-33.63c-1.63-4.58-8.11-4.58-9.75,0
						l-17.49,49.11"/>
					<g>
						<path class="st30" d="M550.99,430.89l-17.49-14.07c-1.63-4.58-8.11-4.58-9.75,0l-11.98,33.63c-1.63,4.58-8.11,4.58-9.75,0
							l-11.98-33.63c-1.63-4.58-8.11-4.58-9.75,0l-11.98,33.63c-1.63,4.58-8.11,4.58-9.75,0l-11.98-33.63
							c-1.63-4.58-8.11-4.58-9.75,0l-11.98,33.63c-1.63,4.58-8.11,4.58-9.75,0l-11.98-33.63c-1.63-4.58-8.11-4.58-9.75,0
							l-17.49,14.07"/>
						<path class="st31" d="M550.99,430.89l-17.49-14.07c-1.63-4.58-8.11-4.58-9.75,0l-11.98,33.63c-1.63,4.58-8.11,4.58-9.75,0
							l-11.98-33.63c-1.63-4.58-8.11-4.58-9.75,0l-11.98,33.63c-1.63,4.58-8.11,4.58-9.75,0l-11.98-33.63
							c-1.63-4.58-8.11-4.58-9.75,0l-11.98,33.63c-1.63,4.58-8.11,4.58-9.75,0l-11.98-33.63c-1.63-4.58-8.11-4.58-9.75,0
							l-17.49,14.07"/>
					</g>
					<g>
						<line class="st32" x1="527.5" y1="465.93" x2="510.01" y2="416.82"/>
						<line class="st29" x1="527.5" y1="465.93" x2="510.01" y2="416.82"/>
					</g>
					<g>
						<line class="st32" x1="435.1" y1="450.45" x2="423.13" y2="416.82"/>
						<line class="st29" x1="435.1" y1="450.45" x2="423.13" y2="416.82"/>
					</g>
					<g>
						<line class="st32" x1="478.54" y1="450.45" x2="466.57" y2="416.82"/>
						<line class="st29" x1="478.54" y1="450.45" x2="466.57" y2="416.82"/>
					</g>
				</g>
				<rect x="340.07" y="327.8" class="st33" width="72" height="159"/>
				<rect x="351.07" y="327.8" class="st34" width="58" height="159"/>
			</g>
		</g>
		<path class="st35" d="M621.49,503.82l-304.22,3.73c-7.58,0.09-13.69-2.6-13.63-6.02l0.97-36.8l331.69,0.06l-0.97,32.67
			C635.27,500.88,629.08,503.73,621.49,503.82z"/>
		<g class="st26">
			<line class="st36" x1="357.86" y1="341.86" x2="403.07" y2="341.86"/>
			<line class="st36" x1="357.86" y1="353.3" x2="389.07" y2="353.3"/>
			<line class="st36" x1="357.86" y1="364.74" x2="403.07" y2="364.74"/>
			<line class="st36" x1="357.86" y1="376.19" x2="389.07" y2="376.19"/>
			<line class="st36" x1="357.86" y1="387.63" x2="403.07" y2="387.63"/>
			<line class="st36" x1="357.86" y1="399.07" x2="389.07" y2="399.07"/>
		</g>
		
			<use xlink:href="#XMLID_167_"  style="overflow:visible;fill:none;stroke:#EDEDED;stroke-width:1.7445;stroke-linejoin:round;stroke-miterlimit:10;"/>
	</g>
	<path id="GALZ_25_" class="st37" d="M357.96,478.31c-1.14-1.25-1.84-2.91-1.86-4.72l-0.41-131.91c-0.02-4.03,3.22-7.28,7.25-7.28
		l124.66,0.35c1.83,0,3.51,0.68,4.8,1.8C493.95,337.88,359.26,479.72,357.96,478.31z"/>
</g>
<g id="Layer_20">
	<path class="st38" d="M355.09,782.31c-1.1,0-1.98-0.88-1.98-1.98s0.88-1.98,1.98-1.98c1.1,0,1.98,0.88,1.98,1.98
		S356.19,782.31,355.09,782.31z M353.11,507.3c0-1.1,0.88-1.98,1.98-1.98c1.1,0,1.98,0.88,1.98,1.98v257.17
		c0,1.1-0.89,1.98-1.98,1.98c-1.1,0-1.98-0.88-1.98-1.98"/>
</g>
<g id="Layer_15">
</g>
<g id="Layer_18">
	<path class="st22" d="M228.93,565.03l-0.93,5.12l3.28,1.07l-0.43,2.39l-14.03-5l0.37-2.06l15.83-5l-0.43,2.4L228.93,565.03z
		 M226.02,569.51l0.69-3.83l-6.54,1.92L226.02,569.51z"/>
	<path class="st22" d="M228.55,554.6l-0.46,2.56h5.74l-0.42,2.3h-14.93l0.84-4.65c0.28-1.53,0.88-2.7,1.8-3.53
		c0.92-0.83,2.12-1.24,3.58-1.24c1,0,1.8,0.21,2.39,0.64s1.01,1.02,1.23,1.78l6.75-2.97h0.13l-0.44,2.46L228.55,554.6z
		 M225.99,557.16l0.43-2.36c0.14-0.77,0.03-1.38-0.33-1.82c-0.36-0.44-0.93-0.65-1.69-0.65c-0.8,0-1.46,0.2-1.97,0.6
		c-0.51,0.4-0.84,1-1,1.8l-0.44,2.42H225.99z"/>
	<path class="st22" d="M224.43,538.14l-0.75,4.12h12.84l-0.41,2.28h-12.84l-0.74,4.09h-2.09l1.9-10.49H224.43z"/>
</g>
<g id="Layer_19">
</g>
</svg>
