<?xml version="1.0" encoding="UTF-8"?><svg xmlns="http://www.w3.org/2000/svg" width="600" height="600" viewBox="0 0 600 600"><defs><style>.e{fill:#1d1d1b;}.f{stroke-linecap:round;stroke-linejoin:round;}.f,.g,.h{fill:none;stroke:#1d1d1b;}.f,.h{stroke-width:11.4122px;}.g{stroke-width:11.4496px;}.g,.h{stroke-miterlimit:10;}</style></defs><g id="b"><path class="h" d="M278.3939,307.066l-46.8-53.3599c-4.85,.73-9.8199,1.1099-14.8799,1.1099-54.36,0-98.44-44.0801-98.44-98.4497,0-17.7402,4.7-34.3901,12.91-48.7705,16.96-29.6699,48.91-49.6699,85.53-49.6699,54.37,0,98.45,44.0703,98.45,98.4404,0,32.6099-15.86,61.5195-40.29,79.4297l3.52,71.27Z"/></g><g id="c"><path class="g" d="M267.7516,504.0556l-16.7206,24.7745,31.2818,34.5463h-23.1343s-1.9402-6.4418,17.5164-6.4418"/><path class="g" d="M379.5799,507.563l14.3534,21.2671-32.3864,34.5463h23.1343s2.2153-6.4645-17.2413-6.4645"/><path class="h" d="M421.5957,400.4325c-10.8559-42.5647-49.4499-74.0404-95.3955-74.0404-36.6251,0-68.5787,20.0007-85.5346,49.6756-8.2147,14.3767-12.9091,31.0242-12.9091,48.768,0,54.3689,44.0747,98.4437,98.4437,98.4437,24.7532,0,47.3725-9.1359,64.6702-24.2197"/><g><path class="f" d="M231.5874,451.7187c3.4962,23.4365,55.8367,37.8505,66.0138-7.6663"/><path class="f" d="M329.3167,437.0796c-8.6018,7.1807-20.4194,10.1661-31.4477,6.8929"/><path class="f" d="M329.496,449.5282c-14.7988,1.4553-25.7942-2.4808-31.1514-5.5536"/><path class="f" d="M297.1944,443.5543c-2.0716-.4885-4.0072-1.6304-5.4712-3.3946-2.1817-2.629-2.8049-6.0294-1.9842-9.0952"/></g><circle class="e" cx="300.9379" cy="383.4512" r="6.1267"/><circle class="e" cx="348.2428" cy="389.5778" r="6.1267"/><path class="e" d="M416.0591,516.79l1.3993-7.22c.6606-3.4089,3.9342-20.1763,3.9342-20.1763,.2682-1.3838-.02-2.7963-.8127-3.9703-.7929-1.174-1.9954-1.9688-3.3864-2.2384l-8.5117-1.6499c-9.3877-1.82-15.5448-10.9382-13.7251-20.3255,.8815-4.5476,3.4812-8.4798,7.32-11.0722,3.839-2.5927,8.4579-3.5344,13.0055-2.653l16.5718,3.212c1.8222,.3539,3.6718-.0245,5.2098-1.0625,1.5378-1.0384,2.5793-2.6137,2.9325-4.4353s-.0245-3.672-1.0629-5.2096c-1.0384-1.538-2.6135-2.5795-4.4351-2.9323l-8.1875-1.587c-8.4979-1.6476-14.0717-9.9013-12.4249-18.3994l1.9576-10.0983-28.4512,6.4411c-2.16,7.2305-7.7172,26.9021-9.0476,42.0693-.7377,8.4095,1.479,17.777,6.2414,26.3761,4.7244,8.5307,11.6378,15.7783,19.4784,20.4234,1.8727,1.0357,2.9818,3.1716,2.6098,5.403l-1.2435,7.4608-6.5191-3.8347c-19.7804-11.6382-32.7851-35.4997-30.9223-56.7369,1.7546-20.0046,10.0124-46.0458,10.363-47.1449l.904-2.8324,49.8225-11.2792-4.9876,25.7305c-.5563,2.8709,1.3267,5.6598,4.1978,6.2161l8.1873,1.587c4.5474,.8815,8.4796,3.4812,11.072,7.3202,2.5925,3.839,3.5346,8.4577,2.6532,13.0053s-3.4812,8.4794-7.32,11.0718c-3.8394,2.5927-8.4585,3.5348-13.0055,2.6533l-16.5718-3.212c-1.8224-.3551-3.672,.0241-5.21,1.0625-1.5378,1.0384-2.5791,2.6137-2.9323,4.4353-.7288,3.7605,1.7377,7.4131,5.4984,8.1418l8.5115,1.6499c4.1168,.7979,7.6762,3.1514,10.0231,6.6264,2.3466,3.4754,3.1997,7.6562,2.4016,11.773-.0008,.0043-1.2839,6.5766-2.4051,12.3258,6.5461-2.0473,12.906-5.4528,18.4293-9.923,7.6224-6.1687,13.1719-14.008,15.6266-22.0733,4.4291-14.5534,6.6592-34.6974,7.3738-42.173l-30.1928-20.9871c-1.699-1.0874-2.6782-3.116-2.3255-5.2317l1.3508-8.1053,42.0223,29.2093-.2278,2.9672c-.0876,1.1402-2.2113,28.1426-8.056,47.3469-3.0529,10.0318-9.8119,19.6658-19.0318,27.1274-9.0107,7.2926-19.9591,12.2066-30.8281,13.837l-7.2728,1.0909Z"/><path class="e" d="M209.7983,177.9948c.0449-3.29,.2744-6.1001,.6855-8.4307,.4111-2.3303,1.0732-4.4551,1.9878-6.3743,.9136-1.9192,2.1128-3.7803,3.5981-5.5859,1.4844-1.8047,3.3242-3.8267,5.5176-6.0659,1.5527-1.5989,3.0503-3.1187,4.4893-4.5579,1.4395-1.4395,2.6958-2.9238,3.77-4.4553,1.0732-1.5303,1.9302-3.187,2.5703-4.969,.6392-1.7822,.9595-3.8384,.9595-6.1687,0-4.7979-1.2568-8.5559-3.7695-11.2749-2.5137-2.718-6.1689-4.0781-10.9668-4.0781-2.0107,0-3.9409,.2634-5.7915,.7881-1.8506,.5259-3.4956,1.3484-4.9351,2.4675-1.4395,1.1201-2.5938,2.5359-3.4609,4.2495-.8687,1.7134-1.3027,3.759-1.3027,6.1343h-12.6797c.0449-3.8833,.7988-7.3562,2.2617-10.4182,1.4619-3.0608,3.4492-5.6545,5.9629-7.7793,2.5127-2.1248,5.4717-3.7461,8.876-4.8665,3.4038-1.1191,7.0942-1.6792,11.0693-1.6792,4.3867,0,8.2817,.6062,11.6865,1.8164,3.4033,1.2112,6.2715,2.9473,8.6016,5.209,2.3306,2.262,4.1006,5.0037,5.312,8.2249,1.2104,3.2214,1.8164,6.8198,1.8164,10.7952,0,3.1079-.48,6.0093-1.4395,8.7048-.9595,2.6965-2.251,5.2668-3.8726,7.7107-1.6221,2.4451-3.4609,4.7529-5.5176,6.9226-2.0562,2.1709-4.1807,4.2839-6.374,6.3401-2.5137,2.3303-4.2046,4.9585-5.0723,7.8821-.8682,2.9248-1.3022,6.0776-1.3022,9.4587h-12.6802Zm-.5479,21.7272c0-2.0562,.6274-3.7803,1.8848-5.1747,1.2559-1.3933,3.1182-2.0906,5.5859-2.0906s4.3408,.6973,5.6201,2.0906c1.2788,1.3944,1.9194,3.1185,1.9194,5.1747s-.6406,3.7593-1.9194,5.1064c-1.2793,1.3472-3.1523,2.022-5.6201,2.022s-4.3301-.6748-5.5859-2.022c-1.2573-1.3472-1.8848-3.0503-1.8848-5.1064Z"/></g></svg>