<?xml version="1.0" encoding="UTF-8"?><svg id="c" xmlns="http://www.w3.org/2000/svg" width="600" height="600" viewBox="0 0 600 600"><defs><style>.f{fill:#fff;}.g{stroke-width:10.2472px;}.g,.h,.i,.j{fill:none;stroke:#fff;stroke-linecap:round;stroke-linejoin:round;}.h{stroke-width:9.773px;}.i{stroke-width:10.7483px;}.j{stroke-width:8.9739px;}</style></defs><g><path class="h" d="M376.088,524.1814l-74.1631-10.7362c-1.4241-.2093-2.8622-.2093-4.2862,0l-74.1488,10.7362c-15.7345,2.2899-25.2842-19.0149-14.3104-31.9435l11.3089-13.3472c26.722,26.2056,65.8558,38.5895,105.0176,29.4587,20.9977-4.9001,39.2593-15.3712,53.5837-29.4723l11.3089,13.3608c10.9595,12.9286,1.4241,34.2334-14.3104,31.9435Z"/><g><path class="i" d="M202.5197,446.1434c-7.6247,7.2198-15.7356,10.6315-23.2218,8.863-18.7035-4.4183-26.425-39.4975-17.2465-78.3516"/><path class="i" d="M136.8646,364.9216c5.8626,7.591,15.1881,12.2697,25.0105,11.5716"/><path class="i" d="M134.4146,375.293c12.1,3.9507,22.0172,2.6925,27.0624,1.1141"/><path class="i" d="M152.4019,361.2874c-2.606,1.9344-4.0218,5.2503-3.3517,8.6466,.9283,4.7057,5.4953,7.7675,10.2005,6.8393,4.7055-.9283,7.7676-5.4951,6.8392-10.2008-.566-2.869-2.4863-5.1205-4.9648-6.2326"/></g><g><path class="i" d="M398.2522,446.8598c7.3984,6.7273,15.2158,9.8555,22.4499,8.1466,18.7035-4.4183,26.425-39.4975,17.2465-78.3516"/><path class="i" d="M463.1354,364.9216c-5.8626,7.591-15.1881,12.2697-25.0105,11.5716"/><path class="i" d="M465.5854,375.293c-12.1,3.9507-22.0172,2.6925-27.0624,1.1141"/><path class="i" d="M447.5981,361.2874c2.606,1.9344,4.0218,5.2503,3.3517,8.6466-.9283,4.7057-5.4953,7.7675-10.2005,6.8393-4.7055-.9283-7.7676-5.4951-6.8392-10.2008,.566-2.869,2.4863-5.1205,4.9648-6.2326"/></g><circle class="i" cx="300.5016" cy="404.4584" r="106.2724"/><path class="j" d="M260.8457,364.6712c1.4746,6.6709,7.2282,11.8242,14.3835,12.2094,7.1553,.3851,13.4288-4.1209,15.6109-10.595"/><path class="j" d="M310.1631,364.2568c1.4746,6.6709,7.2282,11.8242,14.3835,12.2094,7.1553,.3851,13.4288-4.1209,15.6109-10.595"/></g><g><g><line class="g" x1="391.3976" y1="148.4054" x2="445.5146" y2="148.4054"/><line class="g" x1="154.4854" y1="148.4054" x2="208.6024" y2="148.4054"/></g><g><line class="g" x1="379.1526" y1="194.1042" x2="426.0193" y2="221.1626"/><line class="g" x1="173.9807" y1="75.6481" x2="220.8474" y2="102.7066"/></g><g><line class="g" x1="379.1526" y1="102.7066" x2="426.0193" y2="75.6481"/><line class="g" x1="173.9807" y1="221.1626" x2="220.8474" y2="194.1042"/></g><path class="f" d="M305.6059,216.8538l-.0625-7.2114c-.0296-3.4049-.1519-20.1569-.1519-20.1569-.0119-1.3821-.5643-2.6834-1.5549-3.6572-.9908-.9737-2.3015-1.5032-3.6908-1.4911l-8.5016,.0735c-9.3767,.0807-17.0711-7.4819-17.1521-16.8581-.0393-4.5422,1.6927-8.8279,4.8766-12.0675,3.184-3.24,7.4394-5.0453,11.9816-5.0846l16.5521-.1433c1.8202-.0151,3.5239-.7392,4.7996-2.0366,1.2755-1.2977,1.9694-3.0146,1.9537-4.8341-.0157-1.8194-.7393-3.5241-2.0369-4.7994-1.2977-1.2757-3.0145-1.9696-4.8339-1.9535l-8.1778,.0708c-8.4879,.073-15.4533-6.7726-15.5271-15.2605l-.087-10.0863-26.087,11.7357c-.6665,7.3697-2.1728,27.358-.4949,42.1935,.9302,8.2256,4.8864,16.796,11.1394,24.1317,6.203,7.2774,14.2598,12.895,22.7002,15.8308,2.0016,.6303,3.4838,2.4668,3.5613,4.6838l.2592,7.4125-7.0126-2.4146c-21.2781-7.3291-38.4271-27.7259-40.7764-48.4986-2.213-19.567,.6471-46.2031,.7698-47.3276l.3167-2.8983,45.6825-20.551,.2221,25.7c.025,2.8675,2.3782,5.1807,5.2458,5.1557l8.1776-.0707c4.542-.0393,8.8277,1.6927,12.0674,4.8768,3.2398,3.1841,5.0454,7.4391,5.0847,11.9813,.0393,4.5422-1.6927,8.8276-4.8767,12.0671-3.1844,3.2401-7.4398,5.0458-11.9815,5.085l-16.5521,.1433c-1.8206,.014-3.5242,.7389-4.7998,2.0366-1.2755,1.2977-1.9692,3.0146-1.9535,4.834,.0326,3.756,3.1149,6.7855,6.8711,6.7528l8.5014-.0734c4.1119-.0356,7.9914,1.5323,10.9241,4.4145,2.9326,2.8825,4.5674,6.7342,4.6028,10.8461,0,.0043,.048,6.5706,.0911,12.3143,5.892-3.2435,11.3403-7.7559,15.7769-13.1286,6.123-7.4141,9.9282-16.0295,10.7151-24.259,1.4198-14.8496-.3635-34.6433-1.1338-41.9669l-33.107-14.2841c-1.8448-.7138-3.1812-2.4726-3.2546-4.5746l-.2818-8.0528,46.0782,19.8802,.3594,2.896c.1381,1.1128,3.3604,27.4769,1.4867,47.0721-.9785,10.236-5.5964,20.812-13.0026,29.78-7.2381,8.7648-16.8021,15.6213-26.9297,19.3068l-6.7768,2.466Z"/></g></svg>