<?xml version="1.0" encoding="UTF-8"?><svg id="c" xmlns="http://www.w3.org/2000/svg" width="600" height="600" viewBox="0 0 600 600"><defs><style>.h{fill:#fff;}.i{stroke-width:28.3465px;}.i,.j{fill:none;stroke:#fff;stroke-miterlimit:10;}.j{stroke-width:11.4123px;}</style></defs><path class="i" d="M452.8843,268.335v-66.2423c0-70.2559-56.9536-127.2095-127.2095-127.2095h-.0003c-70.2559,0-127.2095,56.9536-127.2095,127.2095v66.2423"/><rect class="j" x="110.3215" y="268.335" width="427.4706" height="278.9288" rx="23.3104" ry="23.3104"/><g><g><path class="h" d="M262.0356,451.1039v54.6071h7.917s0-3.4671-7.2885-3.4671l-.6285-51.14Z"/><path class="h" d="M273.0218,505.7117v3.0704h-14.0577v-54.8022c1.6636-.8196,3.2416-1.7835,4.7194-2.8771h1.4214v48.2039c7.8215,.9077,7.9169,6.1604,7.9169,6.405Z"/></g><g><path class="h" d="M233.9451,451.1039v54.6071h7.917s0-3.4671-7.2885-3.4671l-.6285-51.14Z"/><path class="h" d="M244.9332,505.7117v3.0704h-14.0577v-55.0884c1.9376,1.008,3.9927,1.8153,6.1408,2.3976v43.2154c7.8191,.9077,7.9169,6.1604,7.9169,6.405Z"/></g><path class="h" d="M277.5161,414.718c-4.6778-13.3409-17.3973-22.9313-32.3163-22.9313-18.8749,0-34.2293,15.3544-34.2293,34.2294,0,13.7642,8.164,25.6567,19.9049,31.088,.9982,.4624,2.0233,.8783,3.0703,1.2453,.0294,.0098,.0612,.0196,.0906,.0294,.9737,.3376,1.9695,.6312,2.9799,.8807,2.6226,.6459,5.3628,.9884,8.1836,.9884,4.8931,0,9.5513-1.0324,13.7642-2.8894,1.052-.4648,2.077-.9786,3.0703-1.5438,.0196-.0098,.0392-.022,.0588-.0318,1.0398-.5921,2.0453-1.238,3.0117-1.9328,5.9303-4.2521,10.454-10.3537,12.717-17.4535,1.0447-3.2735,1.6098-6.7622,1.6098-10.3806,0-3.9585-.6753-7.7604-1.9156-11.2981Zm-32.3163,39.3891c-2.8453,0-5.5927-.4257-8.1836-1.2159-1.0496-.3205-2.0723-.6997-3.0631-1.1376-.0025,.0024-.0049,0-.0074-.0024-.4672-.2031-.9247-.4184-1.3774-.6484-9.1622-4.6313-15.4572-14.1385-15.4572-25.0867,0-15.4889,12.5996-28.0886,28.0886-28.0886s28.0911,12.5996,28.0911,28.0886-12.6021,28.091-28.0911,28.091Z"/></g><g><path class="h" d="M384.4391,508.1362h-14.07v-3.0704c0-.2447,.0978-5.4851,7.89-6.4025l-.1737-41.6203v-.0147l-.0489-12.284v-.0147c1.1107-2.5248,2.0159-5.1597,2.6961-7.8827v-.0122c.1199-.46,.23-.9321,.3351-1.397v-.0122c.7511-3.4325,1.1474-6.9946,1.1474-10.6497,0-3.7995-.4281-7.4986-1.2379-11.0559-.0783-.3376-.1566-.6728-.2422-1.008-.7144-2.86-1.6783-5.6074-2.8674-8.2497v-.0147l-.0514-12.3183-.1468-35.5872,2.6129-.0098,3.5279-.0146,.0098,2.4294,.1835,44.1843,.1786,42.8607v.0147l.2569,62.1295Z"/><path class="h" d="M412.5301,508.1362h-14.07v-3.0704c0-.2447,.0978-5.4851,7.89-6.4025l-.5725-137.2966c2.1701-.6753,4.2252-1.6074,6.131-2.7621l.6214,149.5317Z"/><g><path class="h" d="M383.8201,358.9469c-1.2429-.7144-2.4245-1.5217-3.5377-2.4148l3.5279-.0146,.0098,2.4294Z"/><path class="h" d="M397.5745,304.5411c-16.7587,0-30.3932,13.6345-30.3932,30.3932,0,9.1549,4.0686,17.3776,10.4932,22.9557,.9688,.8417,1.9939,1.6245,3.0655,2.3389,.0049,.0049,.0098,.0073,.0146,.0098,.986,.6581,2.0135,1.2599,3.0777,1.8007,4.1298,2.1015,8.8002,3.2881,13.7421,3.2881,2.8453,0,5.6026-.3939,8.2155-1.1279,1.0373-.2911,2.0502-.6361,3.0386-1.0324,.0098-.0024,.0171-.0049,.0269-.0098,1.052-.4208,2.0747-.9003,3.0655-1.4336,9.5439-5.1304,16.0468-15.2149,16.0468-26.7895,0-16.7587-13.6345-30.3932-30.3933-30.3932Zm12.4773,51.9838c-.3988,.2324-.8074,.455-1.2208,.663h-.0024c-.986,.5015-2.0086,.9394-3.063,1.3064-2.5665,.8955-5.3237,1.3823-8.191,1.3823-13.7519,0-24.9423-11.188-24.9423-24.9423s11.1904-24.9399,24.9423-24.9399,24.9399,11.188,24.9399,24.9399c0,9.2111-5.0179,17.27-12.4627,21.5906Z"/></g></g><g><path class="h" d="M297.5042,500.7745c1.189-.7902,2.7206-1.3676,4.6288-1.7394l-13.6736-23.2836,8.942-11.5133c1.5291,1.3603,3.1364,2.6325,4.8172,3.8092l-6.3561,8.1837,18.7355,31.9052h-19.7679v-3.0704c0-.5896,.1932-2.6423,2.674-4.2912Z"/><path class="h" d="M366.1366,505.0658v3.0704h-19.7703l18.7355-31.9052-5.008-6.449c1.7518-1.0765,3.4349-2.2508,5.0423-3.5206l7.3689,9.4901-13.6736,23.2836c1.9083,.3718,3.4423,.9492,4.6288,1.7394,2.4833,1.649,2.6765,3.7016,2.6765,4.2912Z"/><path class="h" d="M384.0036,403.1312c-.8979-2.1383-1.9327-4.208-3.0948-6.224-.0024,0-.0024-.0024-.0024-.0024v-.0098c-.0563-.0979-.1125-.1957-.1689-.2936v-.0122c-.8979-1.5315-1.8716-3.0117-2.9211-4.46-1.7443-2.4147-3.6942-4.7047-5.8423-6.8527-10.5495-10.5494-24.5778-16.3599-39.4967-16.3599s-28.9473,5.8105-39.4992,16.3599c-8.1396,8.1396-13.4583,18.349-15.462,29.4415-.5945,3.2857-.8979,6.6497-.8979,10.0577,0,3.9511,.4086,7.8411,1.2037,11.621,2.2068,10.4858,7.4007,20.1202,15.1562,27.8757,.827,.8269,1.6735,1.622,2.542,2.3903,1.5438,1.3652,3.1487,2.6374,4.8123,3.8117,9.3433,6.6007,20.4701,10.158,32.145,10.158,10.5959,0,20.7441-2.9309,29.5124-8.4087,1.7322-1.0813,3.4081-2.263,5.0252-3.5401,1.7248-1.3603,3.3811-2.8331,4.9591-4.4111,2.2581-2.2581,4.301-4.6778,6.1114-7.2295v-.0147c.9468-1.3138,1.8275-2.6741,2.6472-4.0588v-.0122c.1346-.2324,.2691-.4673,.4037-.7022v-.0122c1.1474-2.0135,2.1652-4.1004,3.0459-6.2362v-.0147c2.7255-6.6423,4.1542-13.8204,4.1542-21.2163,0-7.5549-1.4899-14.8822-4.3328-21.6444Zm-2.9358,32.2942v.0122c-.1052,.4648-.2153,.937-.3351,1.397v.0122c-.6801,2.723-1.5854,5.3579-2.6961,7.8827v.0147c-3.3077,7.5206-8.421,14.0553-14.7918,19.0854-1.6049,1.2698-3.293,2.4392-5.0496,3.5059h-.0024c-7.5084,4.553-16.311,7.1781-25.7154,7.1781-10.5348,0-20.316-3.293-28.3675-8.9029-1.6832-1.1719-3.2905-2.4441-4.8123-3.8117-10.158-9.1133-16.5581-22.3343-16.5581-37.0233,0-27.4256,22.3124-49.7379,49.738-49.7379,20.1887,0,37.6056,12.0907,45.3904,29.4097v.0147c1.189,2.6423,2.153,5.3897,2.8674,8.2497,.0856,.3352,.1639,.6703,.2422,1.008,.8098,3.5573,1.2379,7.2564,1.2379,11.0559,0,3.6551-.3963,7.2173-1.1474,10.6497Z"/></g><g><path class="h" d="M156.5499,509.768h-11.6307v-2.5321c0-.1982,.0806-4.4943,6.4441-5.2698l-.3841-24.6194c1.485,1.0741,3.2636,1.6906,5.0911,1.7688l.4795,30.6525Z"/><path class="h" d="M179.8042,509.768h-11.7237v-2.5321c0-.1982,.0782-4.4086,6.2606-5.2454l-1.2673-25.1111c1.194,.5138,2.4245,.7535,3.638,.7535,.4918,0,.9811-.0392,1.463-.1174l1.6294,32.2526Z"/><path class="h" d="M199.3765,445.784c-1.6294-2.1309-1.8472-5.0202-.5505-7.3665,1.8863-3.4154,1.967-7.5353,.2104-11.0216-1.759-3.4936-5.1254-5.8864-9.0032-6.405-2.6594-.3572-4.8613-2.2508-5.605-4.827-1.0862-3.753-3.9487-6.7231-7.6601-7.9488-1.2135-.3988-2.4636-.5945-3.7065-.5945-2.5614,0-5.0887,.8319-7.1781,2.427-2.1334,1.6269-5.0277,1.8398-7.3788,.5432-3.4251-1.8912-7.5548-1.967-11.046-.208-3.4863,1.759-5.8742,5.1157-6.3904,8.9861-.3523,2.6545-2.246,4.849-4.8246,5.5903-3.7553,1.0813-6.7279,3.9413-7.9512,7.6503-1.2233,3.7089-.5358,7.7775,1.8399,10.8797,1.6293,2.1309,1.8471,5.0203,.5505,7.3665-1.8864,3.4153-1.9646,7.5353-.208,11.0216,1.7565,3.4936,5.123,5.8864,9.0008,6.405,2.6618,.3572,4.8612,2.2508,5.6074,4.827,.91,3.1511,3.0752,5.7493,5.9426,7.2295,.548,.2814,1.1229,.5236,1.7175,.7193,1.1033,.3621,2.2337,.5578,3.3664,.5872,.115,.0049,.2276,.0073,.3425,.0073,2.5591,0,5.0863-.8318,7.1757-2.427,2.1309-1.6269,5.0277-1.8398,7.3763-.5431,.7096,.3914,1.4483,.707,2.2068,.9395,1.6514,.5162,3.3885,.6581,5.0912,.4306,1.2869-.1737,2.5542-.5603,3.7482-1.1621,3.4863-1.759,5.8741-5.1157,6.3902-8.9861,.3548-2.6545,2.2483-4.849,4.8246-5.5903,3.7554-1.0813,6.7279-3.9413,7.9512-7.6503,1.2233-3.7089,.5358-7.7775-1.8398-10.8797Zm-7.5109,13.6639c-4.5114,1.2967-7.824,5.1402-8.4429,9.7886-.3009,2.2434-1.6294,4.1126-3.6527,5.1328-.5578,.2813-1.1351,.482-1.7224,.6018-1.5462,.3181-3.156,.0759-4.597-.7217-.1737-.0954-.3474-.1859-.5235-.2716-4.0075-1.9596-8.8026-1.5021-12.3722,1.2233-1.3309,1.0178-2.9186,1.4924-4.5236,1.3799-.5701-.0367-1.1401-.1468-1.7028-.3328-1.4142-.4648-2.5884-1.3407-3.4057-2.5003-.4305-.6092-.7608-1.2967-.9761-2.0453-1.3015-4.5041-5.1499-7.8167-9.8008-8.4381-2.2509-.3009-4.1297-1.6367-5.1499-3.6649-1.0178-2.0208-.9762-4.3157,.1198-6.2949,2.2679-4.1052,1.8888-9.1671-.9639-12.8932-1.3774-1.7982-1.7615-4.0661-1.052-6.2166,.7095-2.1481,2.3658-3.7432,4.5457-4.3695,4.5089-1.2966,7.824-5.1402,8.4429-9.7886,.2985-2.2434,1.6294-4.1126,3.6502-5.1328,.9737-.4918,2.0135-.7364,3.0484-.7364,1.1205,0,2.2387,.2863,3.271,.8563,1.7884,.9884,3.7578,1.4728,5.7176,1.4728,2.5444,0,5.074-.8171,7.1806-2.4245,1.8006-1.3774,4.0709-1.7591,6.224-1.0471,2.1554,.7095,3.7529,2.3682,4.3816,4.5456,1.304,4.5041,5.15,7.8167,9.8008,8.4381,2.2532,.3009,4.1297,1.6367,5.15,3.6649,1.0202,2.0208,.9761,4.3156-.1174,6.2949-2.2704,4.1053-1.8912,9.1671,.9614,12.8932,1.3774,1.7982,1.7615,4.0661,1.0521,6.2166-.7095,2.1481-2.3659,3.7432-4.5433,4.3695Z"/></g><g><g><path class="h" d="M473.6725,451.8955l51.0231-19.4572-2.8209-7.3974s-3.2396,1.2354-.6426,8.0455l-47.5596,18.809Z"/><path class="h" d="M528.6594,434.2119l-53.8921,20.5533-.7462-1.9597c.9909-.6557,1.9401-1.3627,2.8478-2.1285l.0024-.0024c.0342-.0269,.0661-.0538,.1003-.0831l.0024-.0024c1.7737-1.5022,3.3738-3.1976,4.7756-5.0594v-.0024l35.8686-13.6761c-1.9377-7.6307,2.9358-9.5928,3.1633-9.6785l2.8673-1.0936,5.0105,13.133Z"/></g><path class="h" d="M457.463,509.5723h-18.7477l2.3388-4.4869c.1933-.3768,.9786-1.693,2.8869-2.9065,1.3627-.8661,2.9677-1.4826,4.7977-1.8398l-6.3561-24.6341,6.2337-18.8309c1.9719,.5382,4.0221,.8881,6.1285,1.0251l-5.9646,18.0211,8.6827,33.652Z"/><path class="h" d="M456.8367,392.5793c-18.875,0-34.2294,15.3544-34.2294,34.2294,0,15.6945,10.6155,28.9571,25.0451,32.9792,1.967,.5505,4.0074,.9272,6.0992,1.1132,1.0153,.093,2.0453,.1395,3.0851,.1395,8.1591,0,15.6626-2.8698,21.5514-7.6552l.0024-.0024c1.9279-1.5658,3.682-3.337,5.2282-5.2796l.0025-.0024c.0538-.0661,.1076-.1345,.1614-.2031,1.0471-1.3334,1.9963-2.745,2.8379-4.2276,2.8306-4.9787,4.4478-10.7354,4.4478-16.8615,0-18.875-15.3569-34.2294-34.2318-34.2294Zm18.4076,55.4285l-.0024,.0024c-.7511,.6557-1.534,1.2673-2.3511,1.8349-4.553,3.1854-10.0895,5.0545-16.0541,5.0545-.3646,0-.7291-.0073-1.0912-.0244-2.1211-.0783-4.1835-.3964-6.1603-.9272-11.9855-3.2025-20.8371-14.1581-20.8371-27.1393,0-15.4889,12.5996-28.0886,28.0886-28.0886s28.091,12.5996,28.091,28.0886c0,8.4552-3.7554,16.0492-9.6834,21.1992Z"/></g><g><g><path class="h" d="M341.1943,400.4547c-.1566-.0073-.3107-.0098-.4673-.0098h-25.8622v28.8225h25.8622c1.9793,0,3.868-.4012,5.5879-1.1278,.9002-.3792,1.7541-.8489,2.5493-1.3945,3.7872-2.5982,6.2753-6.9579,6.2753-11.8901,0-7.7898-6.2142-14.1556-13.9452-14.4003Zm-21.2848,5.0349h20.8175c5.1647,0,9.3678,4.2007,9.3678,9.3653s-4.2031,9.3678-9.3678,9.3678h-20.8175v-18.7331Z"/><path class="h" d="M348.8641,426.7451c-.7951-.5456-1.649-1.0153-2.5493-1.3945-1.72-.7266-3.6086-1.1278-5.5879-1.1278h-25.8622v28.825h25.8622c.1566,0,.3107-.0024,.4673-.0098,1.7835-.0538,3.4863-.4379,5.0497-1.0887,1.9278-.8,3.6428-2.0086,5.0448-3.5157,2.3878-2.5738,3.8508-6.0185,3.8508-9.7984,0-4.9297-2.4881-9.2895-6.2753-11.8901Zm-5.8962,20.9863c-.7193,.1786-1.4679,.2716-2.2411,.2716h-20.8175v-18.7355h20.8175c5.1647,0,9.3678,4.2032,9.3678,9.3678,0,2.1579-.7314,4.1469-1.9645,5.7322-1.2746,1.6441-3.0826,2.8527-5.1622,3.364Z"/></g><rect class="h" x="322.938" y="392.1275" width="5.0451" height="10.8388"/><rect class="h" x="336.1493" y="392.1275" width="5.0451" height="10.8388"/><rect class="h" x="322.938" y="450.5995" width="5.0451" height="10.8388"/><rect class="h" x="336.1493" y="450.5995" width="5.0451" height="10.8388"/></g><g id="d"><g><path class="h" d="M241.9634,430.8983c1.9352-.2628,3.7835-.314,5.5151-.7898,3.8574-1.06,6.3942-5.0455,5.8778-8.8943-.5664-4.2217-4.0122-7.3497-8.1889-7.4337-5.5346-.1113-9.7006,5.2481-8.2189,10.5743,.0502,.1803,.1188,.3559,.1619,.5376,.2148,.9059-.2195,1.7908-.9945,2.0372-.904,.2875-1.7825-.1565-2.0855-1.1281-1.2093-3.8779-.667-7.5174,1.8434-10.7061,3.0393-3.8605,7.1276-5.3078,11.8752-4.1622,4.7531,1.1469,7.6697,4.3402,8.6565,9.1357,1.3869,6.7396-3.9002,13.4175-10.7797,13.6347-3.2469,.1025-4.7973,1.5265-5.1649,4.2696-.0742,.554-.2172,1.1034-.3785,1.64-.2312,.7694-.8013,1.1198-1.5844,1.0918-.7624-.0272-1.2475-.4561-1.4428-1.178-.0666-.2463-.0662-.5348-.0126-.7862,1.1936-5.6007,2.3905-11.2007,3.619-16.7937,.0903-.411,.3476-.8564,.6623-1.1309,.5039-.4396,1.1477-.4404,1.728-.0847,.6133,.3759,.8523,.9674,.7163,1.6618-.2828,1.4442-.601,2.8815-.9076,4.321-.2839,1.3332-.5716,2.6655-.8975,4.184Z"/><path class="h" d="M243.5973,439.1397c.0047-1.1143,.7412-1.8562,1.8464-1.8597,1.1022-.0036,1.8612,.7497,1.8599,1.8457-.0013,1.1113-.7497,1.865-1.8513,1.8645-1.092-.0005-1.8595-.7662-1.8549-1.8505Z"/></g></g><g id="e"><path class="h" d="M459.5428,442.0745c-.0225-.0066-.0448-.0175-.0677-.0192-.1461-.0103-.2928-.0136-.4383-.0287-.2047-.0213-.409-.0473-.6125-.0778-.3138-.047-.6237-.1132-.9287-.2013-.4624-.1336-.9081-.3065-1.3266-.5474-.3665-.211-.6955-.4676-.9954-.7662-.2792-.2779-.5387-.5703-.7569-.8986-.387-.5823-.6479-1.2166-.774-1.9044-.0349-.1905-.0521-.3843-.0736-.5771-.0114-.1022-.021-.2053-.0206-.3079,.0016-.4119,.0931-.8035,.2952-1.1633,.1331-.237,.3134-.4356,.5316-.6015,.2761-.2099,.5931-.3156,.9263-.3802,.1747-.0339,.3524-.0557,.5314-.0484,.3721,.0152,.7313,.0896,1.0688,.2506,.1398,.0667,.264,.1583,.3831,.2587,.2905,.2448,.4816,.5553,.607,.9082,.08,.2251,.1223,.4595,.1288,.6991,.0062,.2302,.0019,.4597-.0476,.6864-.0947,.4333-.2877,.8144-.6083,1.1232-.1605,.1546-.345,.2787-.554,.3624-.0368,.0147-.0729,.0311-.1089,.0476-.0065,.003-.0109,.0108-.0223,.0228,.0099,.0165,.0188,.0379,.0332,.0544,.301,.3435,.6625,.6004,1.0913,.7602,.0446,.0166,.0894,.0331,.1351,.0459,.4544,.1276,.9127,.2368,1.3815,.2978,.4177,.0544,.8381,.0722,1.2572,.0465,.5255-.0322,1.0329-.156,1.5178-.3665,.3326-.1444,.6447-.3226,.9299-.547,.2312-.1819,.4403-.3863,.6316-.61,.1628-.1903,.3097-.3911,.4401-.6049,.1638-.2687,.2931-.5534,.3986-.849,.2084-.5842,.3638-1.1825,.4606-1.7952,.0358-.2267,.0563-.4559,.0817-.6841,.0594-.5333,.0492-1.0688,.0433-1.6037-.002-.1817-.0222-.3635-.0404-.5446-.0202-.2009-.0429-.4018-.0732-.6014-.0297-.1958-.0662-.3908-.1071-.5845-.0729-.3457-.1687-.6855-.2837-1.0194-.1007-.2925-.2068-.5833-.3533-.857-.1919-.3583-.4207-.6892-.7067-.9805-.2425-.247-.4977-.4769-.7902-.6637-.3702-.2363-.7667-.4128-1.1876-.5376-.2594-.0769-.5244-.125-.7917-.1578-.1963-.0241-.3947-.0468-.5926-.027-.2841,.0284-.5652,.0775-.8402,.1562-.3519,.1007-.6929,.2312-1.0102,.4135-.5748,.3303-1.1792,.602-1.7667,.9067-.0351,.0182-.0717,.0337-.108,.0493-.0066,.0028-.0154,.0004-.0324,.0004-.0061-.0176-.0195-.0382-.0196-.0589-.0016-.2261-.0008-.4522-.0015-.6784-.0002-.0591,.0262-.1056,.0605-.1512,.1859-.2471,.3707-.495,.5556-.7429,.6613-.8866,1.3225-1.7732,1.9836-2.6599,.3459-.464,.6916-.9283,1.0374-1.3924,.6537-.8774,1.3075-1.7547,1.9612-2.6321,.3221-.4323,.6442-.8647,.9661-1.2972,.2107-.283,.4211-.5662,.6314-.8495,.0211-.0284,.0404-.0581,.0675-.0972-.0285-.0074-.0488-.0155-.0697-.0173-.0315-.0027-.0634-.0009-.0951-.0009-3.2352,0-6.4703,0-9.7055,0-.0396,0-.0795-.0014-.1189,.002-.0557,.0047-.0709,.0188-.0751,.0722-.0037,.0473-.0022,.0951-.0022,.1427,0,3.2531,0,6.5062,0,9.7592,0,.123-.0015,.246,0,.3689,.005,.4162,.082,.8185,.2251,1.2096,.0726,.1985,.1635,.3884,.2693,.5693,.1672,.2857,.4016,.5074,.691,.6716,.2497,.1417,.5187,.2154,.8017,.243,.0825,.008,.1666,.0083,.2495,.0033,.3901-.0236,.7682-.0948,1.1276-.26,.2696-.124,.5051-.2956,.7381-.4741,.275-.2106,.5181-.456,.7511-.7098,.1925-.2096,.3772-.428,.5152-.681,.0523-.0959,.1347-.1661,.2315-.2164,.0728-.0378,.1509-.0435,.2316-.0287,.3098,.057,.511,.2408,.6144,.5334,.0547,.1546,.0779,.3147,.0461,.4791-.0173,.0895-.0307,.1798-.0485,.2692-.0369,.1854-.1255,.3506-.2119,.515-.1143,.2176-.239,.43-.3895,.6251-.0967,.1254-.1972,.248-.2999,.3685-.077,.0904-.1558,.1801-.2413,.2622-.5811,.5579-1.2556,.9497-2.0429,1.1359-.3168,.0749-.6378,.122-.9649,.1162-.1585-.0028-.3174,.004-.4757-.0026-.2411-.01-.4822-.0235-.7227-.0434-.2286-.019-.4574-.0417-.6844-.0743-.555-.0795-1.097-.2092-1.6143-.4325-.2854-.1232-.5539-.2733-.8027-.4599-.1948-.1461-.3628-.3176-.5149-.5073-.2671-.3332-.4841-.6962-.6596-1.0845-.1626-.3597-.2705-.7365-.3416-1.1242-.0581-.3169-.0747-.6364-.0739-.9585,.0035-1.4599,.0025-2.9198,.0027-4.3797,.0002-1.9003,0-3.8005,0-5.7008,0-.0436,.0015-.0875-.002-.1308-.0045-.0556-.0189-.0708-.0722-.0756-.0433-.0038-.0871-.0024-.1307-.0024-1.5779,0-3.1559,.0002-4.7338-.0011-.0745,0-.149-.0143-.2235-.022,0-.6269,0-1.2537,0-1.8806,.0633-.0323,.1317-.0236,.1986-.0236,1.6095-.0003,3.2189-.0002,4.8284-.0004,.1577,0,.159-.0014,.159-.159,.0002-1.3328-.0005-2.6656,.0015-3.9985,.0001-.0934-.0238-.1642-.0923-.2315-.3393-.3336-.6729-.673-1.0114-1.0074-.0611-.0604-.0889-.1234-.0878-.2097,.0036-.2816,.0009-.5633,.0006-.8449,1.1657,0,2.3314,0,3.4971,0,.0229,.0154,.0446,.033,.0689,.0457,.3405,.1785,.681,.3569,1.0221,.5342,.1857,.0965,.1713,.0663,.1714,.2777,.0002,1.797,.0001,3.5939,.0002,5.3909,0,.0397-.0013,.0795,.0014,.119,.0043,.0629,.0176,.0772,.078,.0818,.0434,.0033,.0872,.0019,.1308,.0016,1.95-.013,3.9,.0045,5.8501-.0179,1.9898-.0228,3.9801-.0072,5.9702-.0084,.4123-.0003,.8246,.0005,1.2369-.0017,.0718-.0004,.1285,.018,.1805,.0705,.3965,.3998,.7952,.7975,1.1925,1.1965,.0212,.0213,.0365,.0485,.0581,.0777-.032,.0349-.0575,.0647-.085,.0924-.9211,.9293-1.8411,1.8596-2.764,2.7871-.9454,.9501-1.8949,1.8962-2.8403,2.8463-.7802,.7841-1.5572,1.5715-2.3353,2.3577-.0233,.0235-.0431,.0504-.0732,.0859,.029,0,.0414,.0033,.0511-.0005,.2629-.1032,.5348-.1763,.8114-.2289,.2518-.048,.5031-.1067,.764-.0718,.1764,.0236,.3554,.0284,.5311,.0559,.6779,.1059,1.3285,.3012,1.9427,.611,.131,.066,.2611,.1338,.3929,.1982,.5924,.2896,1.1247,.6666,1.599,1.1225,.1822,.1751,.3443,.3719,.5092,.5642,.2018,.2354,.367,.4976,.5298,.7604,.1085,.1751,.2106,.3545,.3079,.5361,.1801,.336,.3362,.6837,.4587,1.0446,.0917,.2701,.1763,.5435,.2454,.8201,.1009,.4037,.1785,.8127,.2293,1.2265,.0304,.2478,.0666,.4946,.0648,.7452-.0003,.0424,.0127,.0849,.0195,.1274v1.1426c-.0067,.0306-.0196,.0612-.0192,.0917,.0034,.2548-.0341,.5054-.0698,.7566-.0677,.4761-.1704,.9445-.3099,1.4041-.2033,.6696-.4633,1.3163-.8078,1.9272-.2386,.4231-.5219,.8146-.8496,1.1721-.2169,.2365-.4489,.4587-.7005,.6596-.3292,.263-.6737,.5023-1.0509,.6916-.2124,.1066-.4246,.215-.6432,.3077-.2771,.1175-.5576,.2285-.842,.3266-.3523,.1214-.7122,.2201-1.0785,.2901-.2721,.052-.546,.0963-.8204,.1342-.1839,.0254-.3703,.0333-.5554,.0504-.0269,.0025-.0531,.0131-.0796,.0199h-1.2609Z"/></g><g><path class="h" d="M173.2029,454.3126c-.333-.0233-.7073-.0377-1.0808-.0797-.2756-.031-.5533-.0795-.8244-.1539-.3054-.0838-.606-.1993-.9059-.3117-.4653-.1744-.9111-.4054-1.3335-.6922-.3315-.2251-.6639-.4517-.9783-.7054-.284-.2292-.5506-.4878-.8128-.7484-.2706-.2689-.5329-.5492-.7873-.8368-.2323-.2627-.4578-.5341-.6708-.8154-.3347-.4421-.6588-.8938-.9827-1.3453-.2645-.3687-.5199-.7451-.7836-1.1144-.1594-.2232-.3283-.4385-.4906-.6593-.0963-.131-.1858-.268-.2825-.3987-.2998-.4053-.6018-.8087-.9024-1.2133-.2506-.3371-.4968-.6781-.7519-1.0112-.1839-.24-.3744-.4746-.5707-.7027-.2101-.2441-.4253-.4835-.6473-.7143-.288-.2994-.5906-.584-.9181-.8255-.314-.2315-.6334-.4543-.9728-.6429-.3748-.2083-.7667-.3334-1.1594-.463-.1234-.0407-.2544-.0565-.3818-.0656-.5136-.037-1.0249-.0417-1.528,.0449-.3608,.0621-.7024,.1884-1.0388,.3244-.1992,.0805-.3843,.2001-.5691,.3142-.1812,.1118-.3576,.2333-.5297,.3605-.2466,.1822-.4637,.4012-.671,.6351-.1803,.2034-.3246,.4363-.4791,.6608-.0827,.1202-.1461,.2583-.2087,.3941-.1031,.2237-.203,.4497-.2961,.6792-.1282,.3162-.2103,.6517-.258,.9988-.0446,.3244-.0707,.6515-.0773,.9834-.0078,.3904,.0314,.7771,.0958,1.1647,.0671,.404,.1809,.7955,.3155,1.1831,.1595,.4591,.3736,.8885,.6303,1.2938,.1337,.211,.2812,.4143,.4383,.6056,.1593,.1939,.3271,.3839,.511,.548,.2375,.2118,.4721,.4315,.7456,.5888,.2088,.1201,.4093,.2597,.6178,.3804,.1147,.0664,.238,.1132,.3583,.1661,.1162,.0511,.2321,.1038,.3504,.1467,.4585,.1662,.9271,.2708,1.3991,.3017,.3114,.0204,.628,.0106,.9318-.0389,.3886-.0633,.7645-.1855,1.1167-.3708,.1701-.0895,.3503-.1585,.5175-.2533,.1847-.1048,.3605-.2268,.5385-.3442,.2775-.1829,.5136-.4228,.7537-.6559,.1547-.1502,.3007-.3121,.4401-.4795,.1957-.235,.3921-.4708,.5688-.7232,.2137-.3054,.4071-.6286,.6092-.9442,.0538-.084,.1099-.1663,.1604-.2527,.0749-.1282,.1456-.2594,.2182-.3894,.063-.1129,.1202-.1136,.1946-.005,.2559,.3739,.5124,.7474,.7689,1.1209,.124,.1806,.2491,.3603,.3724,.5415,.0675,.0993,.0714,.1648,.0069,.2616-.3387,.5085-.6801,1.0148-1.0745,1.4727-.1798,.2087-.3551,.4227-.5451,.6197-.1863,.1932-.387,.3701-.5846,.5499-.1293,.1176-.2619,.2313-.3981,.3395-.0999,.0793-.2118,.1411-.3116,.2205-.3578,.2848-.7529,.5043-1.16,.6921-.4172,.1925-.8474,.3551-1.2966,.4674-.5148,.1288-1.0373,.1877-1.5711,.1769-.4509-.0091-.9011-.0595-1.3467-.1863-.2562-.0729-.516-.1298-.7684-.2188-.2428-.0856-.4827-.1908-.7156-.3096-.3039-.1549-.6075-.3156-.8966-.5034-.2749-.1786-.5331-.3904-.7863-.6102-.3032-.2632-.5961-.5387-.8572-.8494-.3993-.4751-.77-.9769-1.0616-1.5392-.132-.2545-.2659-.509-.38-.7722-.1012-.2335-.1699-.4817-.2641-.7189-.1505-.3789-.2117-.7773-.2946-1.1709-.0198-.094-.026-.191-.0333-.2867-.0388-.5076-.0773-1.0153-.1125-1.5229-.0062-.0896-.0003-.1801,.0073-.2689,.0176-.2053,.034-.4111,.061-.6143,.048-.3618,.0936-.7244,.2091-1.0662,.0747-.221,.1275-.453,.2105-.6693,.0964-.2513,.2064-.4965,.3262-.734,.1535-.3044,.3142-.6051,.4884-.8946,.1003-.1668,.2342-.3078,.3516-.4616,.2324-.3043,.4875-.5846,.7738-.8265,.2227-.1881,.4563-.3623,.694-.5282,.3801-.2653,.7868-.4804,1.2143-.6489,.4054-.1599,.8244-.2739,1.2558-.3482,.5026-.0866,1.0116-.1169,1.5245-.0717,.5832,.0514,1.1684,.1225,1.7363,.3374,.3601,.1362,.7165,.2825,1.0647,.4634,.3961,.2058,.7743,.4454,1.1372,.7149,.3888,.2887,.7666,.5968,1.112,.9515,.2039,.2094,.4185,.4066,.6174,.6215,.1809,.1954,.3533,.4016,.5185,.6132,.3446,.4414,.6858,.8862,1.0208,1.3363,.1774,.2383,.3377,.4914,.5077,.7363,.1473,.2123,.2971,.4225,.446,.6335,.1876,.266,.3745,.5326,.5632,.7976,.1888,.2651,.3769,.5308,.5703,.792,.1898,.2565,.387,.5066,.5786,.7615,.0808,.1074,.1529,.2224,.234,.3294,.115,.1516,.2335,.3002,.3526,.448,.231,.2864,.4595,.5754,.6968,.8556,.1547,.1827,.3229,.3515,.4849,.5268,.1206,.1305,.2349,.2691,.3625,.3906,.3918,.3731,.794,.7308,1.2228,1.0512,.3779,.2823,.7756,.5207,1.1918,.7089,.4803,.2172,.9746,.3794,1.4876,.4315,.6691,.0679,1.3189,.0248,1.9362-.2288,.2058-.0845,.424-.1429,.6185-.2495,.2748-.1505,.5456-.3158,.7945-.5098,.2409-.1878,.4596-.411,.6731-.6357,.1418-.1492,.2628-.3237,.3836-.4953,.2599-.3692,.4879-.7619,.6516-1.1993,.0375-.1001,.0994-.1526,.2067-.1538,.5321-.0063,1.0636-.019,1.5955-.0275,.1333-.0021,.1618,.027,.1224,.1711-.0821,.3003-.1754,.5965-.2726,.8904-.1474,.4461-.3616,.8534-.6029,1.2371-.247,.3927-.4987,.7856-.8197,1.1127-.1987,.2025-.3924,.4111-.5967,.6066-.096,.0919-.2098,.1624-.3187,.2375-.2134,.1471-.421,.3066-.6459,.4314-.2435,.1351-.501,.2438-.7578,.3504-.2849,.1183-.5711,.2344-.8774,.2916-.2375,.0443-.4677,.1195-.7116,.1377-.2227,.0166-.4438,.0452-.7087,.073Z"/><path class="h" d="M175.5509,447.7376c-1.3348,.0224-2.6696,.0451-4.0045,.067-.1586,.0026-.1747-.0086-.1946-.1896-.0236-.2138-.0359-.4284-.0524-.6426-.0183-.2369-.0374-.4739-.0529-.7108-.0114-.1744,.0029-.1892,.165-.1934,.1022-.0027,.2045-.0031,.3067-.0048,1.9588-.0332,3.9177-.0661,5.8765-.0998,.2344-.004,.2546-.0349,.2038-.2902-.0344-.1728-.0595-.3478-.1042-.518-.0703-.2675-.1353-.5368-.257-.7891-.135-.28-.2494-.5715-.3921-.8468-.0958-.1847-.2225-.3523-.3403-.5236-.3188-.4635-.7147-.8349-1.1352-1.1824-.519-.429-1.0901-.7181-1.6977-.9146-.3486-.1128-.6998-.2034-1.0612-.24-.3299-.0334-.6576-.0481-.9815-.0203-.2566,.0221-.5116,.0741-.759,.1422-.2722,.0749-.5524,.1485-.7979,.2846-.4634,.257-.9368,.5037-1.3271,.8882-.1946,.1916-.4058,.3638-.594,.5623-.3494,.3686-.6704,.7679-.9562,1.1986-.2468,.372-.4744,.76-.7094,1.1417-.0192,.0312-.0291,.0695-.0451,.1034-.0512,.1085-.107,.1129-.1861,.0117-.0344-.0441-.0614-.0948-.0939-.1408-.2292-.3252-.4596-.6493-.6882-.975-.1063-.1515-.2105-.3047-.3138-.4585-.0812-.1208-.0834-.1778-.0004-.3046,.2483-.3792,.4998-.7551,.7681-1.1179,.29-.3923,.6091-.7507,.9388-1.1009,.2978-.3164,.6345-.5783,.9582-.8593,.2185-.1897,.4542-.3492,.6938-.4963,.3141-.1927,.6291-.3913,.98-.512,.2913-.1002,.579-.2108,.8695-.3137,.0567-.0201,.1188-.0246,.1778-.0383,.5657-.1312,1.1442-.1811,1.7296-.1513,.4967,.0252,.9908,.1165,1.4801,.2657,.7653,.2333,1.481,.5976,2.1573,1.0742,.4355,.3069,.8371,.6648,1.2132,1.0556,.1836,.1907,.3332,.4207,.5126,.6171,.2498,.2735,.4482,.5875,.6378,.9066,.3327,.5601,.5937,1.1568,.799,1.7802,.1519,.4611,.2545,.9318,.3442,1.4064,.0923,.4884,.1077,.9798,.1461,1.4701,.0114,.145-.0018,.2911-.0103,.4357-.0059,.1004-.0351,.1255-.1398,.131-.2802,.0146-.5602,.0327-.8412,.0382-1.0738,.0208-2.148,.0372-3.222,.0553v-.0009Z"/></g><g><path class="h" d="M396.9657,317.7008l9.4154,11.4378c.1355,.1646-.0567,.3558-.2816,.28l-8.6521-2.9154c-.4656-.1569-.9765-.153-1.406,.0106l-8.6312,3.2878c-.2209,.0841-.4617-.1312-.3303-.2953l9.4731-11.8222c.0925-.1155,.3109-.1066,.4125,.0168Z"/><path class="h" d="M387.2698,338.2786l8.6092,2.8991c.4923,.1658,1.0326,.1617,1.4868-.0112l8.5939-3.2719c.2209-.0841,.4617,.1313,.3302,.2953l-9.4766,11.8234c-.0925,.1155-.3109,.1066-.4125-.0168l-9.4125-11.4378c-.1355-.1646,.0567-.3557,.2815-.28Z"/><path class="h" d="M387.5583,333.796l8.561-3.2618c.3689-.1406,.8079-.1439,1.2079-.0091l8.4459,2.8456c.2018,.068,.2268,.2895,.0406,.3604l-8.5639,3.2616c-.3689,.1405-.8079,.1438-1.2078,.009l-8.4431-2.8454c-.2018-.068-.2267-.2895-.0406-.3604Z"/></g></svg>