<?xml version="1.0" encoding="UTF-8"?><svg id="c" xmlns="http://www.w3.org/2000/svg" width="600" height="600" viewBox="0 0 600 600"><defs><style>.f{stroke-width:8.5641px;}.f,.g,.h,.i,.j{fill:none;stroke:#fff;stroke-miterlimit:10;}.f,.j{stroke-linecap:round;}.k{fill:#fff;}.g{stroke-width:10.247px;}.h{stroke-width:10.2472px;}.i{stroke-width:10.2805px;}.j{stroke-width:12.048px;}</style></defs><g><path class="i" d="M251.7391,470.1478l-15.0983,22.139,28.5836,41.089h-18.9763s-2.0562-5.1213,15.4137-5.1213"/><path class="i" d="M362.8815,488.2275l-26.5134,45.1482h18.9763s0-5.8045-17.4699-5.8045"/><path class="h" d="M387.8636,370.5534c-11.8303-34.8833-44.8479-59.987-83.7289-59.987-48.8175,0-88.3918,39.5744-88.3918,88.3918,0,48.8175,39.5744,88.3918,88.3918,88.3918,16.1474,0,31.2835-4.3298,44.3107-11.8918"/></g><path class="k" d="M387.1681,505.0409l1.6218-8.368c.7657-3.951,4.5597-23.3845,4.5597-23.3845,.3109-1.6038-.0232-3.2409-.9419-4.6016-.919-1.3607-2.3127-2.2819-3.9249-2.5944l-9.8651-1.9122c-10.8804-2.1095-18.0165-12.6774-15.9076-23.5574,1.0216-5.2707,4.0347-9.8282,8.484-12.8328,4.4494-3.005,9.8028-4.0964,15.0735-3.0748l19.2068,3.7227c2.1119,.4102,4.2556-.0284,6.0382-1.2315,1.7823-1.2035,2.9895-3.0293,3.3988-5.1406,.4093-2.1113-.0284-4.2558-1.2319-6.0379-1.2035-1.7826-3.0291-2.9897-5.1403-3.3985l-9.4894-1.8393c-9.8491-1.9095-16.3092-11.4757-14.4005-21.325l2.2688-11.704-32.9752,7.4652c-2.5034,8.3802-8.9443,31.1798-10.4862,48.7587-.855,9.7467,1.7141,20.6037,7.2338,30.5701,5.4756,9.8872,13.4883,18.2872,22.5756,23.6709,2.1705,1.2004,3.4559,3.6759,3.0248,6.2622l-1.4413,8.6472-7.5557-4.4445c-22.9257-13.4888-37.9982-41.1444-35.8393-65.7586,2.0336-23.1855,11.6045-53.3675,12.0108-54.6413l1.0477-3.2828,57.7447-13.0727-5.7806,29.8218c-.6448,3.3274,1.5376,6.5598,4.8652,7.2045l9.4891,1.8393c5.2705,1.0216,9.828,4.0347,12.8325,8.4842,3.0048,4.4494,4.0967,9.8025,3.075,15.0732-1.0216,5.2707-4.0347,9.8277-8.484,12.8323-4.4499,3.005-9.8034,4.0969-15.0735,3.0752l-19.2068-3.7227c-2.1122-.4115-4.2558,.0279-6.0384,1.2315-1.7823,1.2035-2.9893,3.0293-3.3985,5.1406-.8447,4.3585,2.014,8.5918,6.3727,9.4365l9.8649,1.9122c4.7714,.9248,8.8968,3.6525,11.6168,7.68,2.7198,4.028,3.7085,8.8736,2.7835,13.645-.0009,.005-1.4881,7.6224-2.7875,14.2857,7.587-2.3728,14.9582-6.3198,21.3597-11.5009,8.8345-7.1496,15.2664-16.2353,18.1113-25.5831,5.1334-16.8675,7.7181-40.2146,8.5463-48.8789l-34.9937-24.3242c-1.9692-1.2603-3.1041-3.6115-2.6952-6.0636l1.5655-9.3941,48.7042,33.8539-.2641,3.4391c-.1015,1.3215-2.5629,32.6175-9.337,54.8754-3.5383,11.627-11.3721,22.7929-22.058,31.4409-10.4435,8.4522-23.1328,14.1475-35.7301,16.0372l-8.4292,1.2643Z"/><line class="j" x1="210.6295" y1="533.3757" x2="152.2758" y2="200.984"/><path class="g" d="M140.263,195.9981l.0165-19.4749c.001-1.1624-.4127-2.28-1.1468-3.1813-7.8139-9.5929-14.9033-27.2716-18.4422-48.1403-2.8536-16.8272,.1902-47.2769,2.5458-65.7645,.6221-4.8825,7.1983-5.9975,9.3951-1.593,8.3178,16.6776,21.2283,44.4213,24.082,61.2484,3.5388,20.864,2.6765,39.8921-1.5399,51.525-.3962,1.0931-.4184,2.285-.0341,3.3824l6.4379,18.383c1.0197,2.9117-.8261,6.0405-3.8677,6.5564l-11.6334,1.9731c-3.0416,.5159-5.8158-1.8294-5.8132-4.9145Z"/><line class="f" x1="163.5294" y1="360.2177" x2="195.2384" y2="370.5962"/><line class="f" x1="163.5294" y1="374.1897" x2="195.2384" y2="384.5683"/><line class="f" x1="163.5294" y1="388.1617" x2="195.2384" y2="398.5403"/><line class="f" x1="195.2384" y1="351.4847" x2="188.4855" y2="361.2762"/><g id="d"><g><path class="k" d="M376.4733,163.5101c-1.2433,1.4409-2.4895,2.8793-3.7293,4.3231-2.0996,2.4452-4.1951,4.8938-6.2928,7.3406-.0787,.0918-.1624,.1795-.2729,.3013-5.6719-6.6084-12.1371-12.2929-19.4462-17.0606,3.5454-4.1361,7.0697-8.2476,10.6194-12.3887,.9685,.7296,1.9194,1.4307,2.8542,2.1525,5.8062,4.4828,11.1171,9.4947,15.9846,14.9796,.0877,.0988,.1884,.1861,.283,.2788v.0733Z"/><path class="k" d="M342.2314,137.217c5.7932-6.758,11.5632-13.4889,17.362-20.2535,1.8766,2.1887,3.7408,4.363,5.6275,6.5634-34.136,39.7602-68.2613,79.5079-102.4165,119.2904-1.8831-2.1961-3.7477-4.3705-5.6275-6.5627,6.2195-7.1309,12.4226-14.2429,18.6488-21.3815-.8599-1.0056-1.7055-1.9943-2.5899-3.0286,.887-.9439,1.7404-1.8985,2.6428-2.8041,3.5401-3.5527,7.549-6.4437,12.1279-8.522,.1278-.058,.2514-.1527,.343-.2594,5.7732-6.7294,11.5429-13.4618,17.3122-20.1945,.0599-.0699,.1107-.1476,.1373-.2684-17.4557-.2668-31.4318,6.9741-42.8609,19.8496-3.4094-3.977-6.8303-7.9674-10.2899-12.0029,1.2113-1.3137,2.3843-2.639,3.6139-3.9096,4.4642-4.6134,9.4298-8.6025,14.9495-11.8908,5.8801-3.5029,12.1427-6.0624,18.8168-7.6018,5.0448-1.1636,10.1558-1.7006,15.3315-1.594,4.4823,.0923,8.9062,.6592,13.2669,1.7042,.2064,.0495,.3324,.0217,.4729-.1425,3.859-4.5097,7.723-9.0151,11.5856-13.5216,.0307-.0358,.054-.0778,.106-.1538-.4387-.1614-.8562-.3209-1.2778-.4692-4.9636-1.7467-10.0518-2.9839-15.2664-3.685-4.5861-.6166-9.1936-.8214-13.8163-.5862-6.8997,.3511-13.6322,1.6077-20.1945,3.7705-8.8463,2.9155-16.9222,7.2785-24.3078,12.9377-4.8933,3.7495-9.3398,7.9734-13.3879,12.6198-.0959,.1101-.194,.2184-.3186,.3587-3.4348-4.0067-6.8572-7.9989-10.3229-12.0417,1.6166-1.7407,3.1915-3.4956,4.8297-5.1894,4.9918-5.1615,10.4626-9.7583,16.4256-13.7615,6.7796-4.5515,14.0117-8.2036,21.7314-10.8821,4.3058-1.494,8.6987-2.6589,13.1789-3.4866,3.1221-.5767,6.2682-.9769,9.4364-1.2158,3.8304-.2889,7.6615-.3305,11.4952-.1184,3.7825,.2093,7.5354,.6657,11.2616,1.3558,7.024,1.3009,13.7883,3.4291,20.3146,6.3245,.5452,.2419,1.0865,.4927,1.6591,.7528Z"/><path class="k" d="M335.1479,211.8782c-3.4338,4.0057-6.8414,7.9808-10.2536,11.9613-7.0596-7.7581-15.6064-11.3182-26.164-9.4188,.3303-.3844,.6444-.7527,.9614-1.1184,4.3107-4.9728,8.6267-9.9411,12.9226-14.9267,.299-.347,.5588-.3489,.942-.2508,5.8143,1.489,11.0063,4.1989,15.6629,7.9618,2.0853,1.6851,3.9981,3.5494,5.7527,5.5763,.0548,.0633,.1062,.1297,.1761,.2154Z"/><path class="k" d="M355.7923,187.6078c-3.4882,4.0688-6.904,8.0532-10.3472,12.0695-5.7677-6.7138-12.631-11.9263-20.7201-15.556,.081-.1074,.1392-.1938,.2065-.2724,3.5516-4.1453,7.1056-8.2884,10.651-12.439,.1737-.2034,.2877-.2062,.5111-.0824,5.2986,2.937,10.0803,6.568,14.4019,10.8001,1.8044,1.7671,3.5146,3.6303,5.2968,5.4801Z"/><path class="k" d="M314.3991,235.8942c-.8134,.9505-1.6292,1.9051-2.4463,2.8583-1.5733,1.8354-3.1442,3.6728-4.7283,5.4988-.1085,.125-.3178,.2283-.4813,.2298-1.7461,.0164-3.4924,.0145-5.2386,.0024-.1478-.001-.3428-.0708-.4353-.1781-2.392-2.7737-4.7733-5.5567-7.156-8.3385-.0154-.018-.0241-.0419-.0357-.0632,4.8618-6.2831,14.5695-7.2395,20.5216-.0096Z"/></g></g></svg>