<?xml version="1.0" encoding="UTF-8"?><svg id="c" xmlns="http://www.w3.org/2000/svg" width="600" height="600" viewBox="0 0 600 600"><defs><style>.g{fill:#fff;}</style></defs><g><g><path class="g" d="M208.9198,389.2816v78.3655h11.3615s0-4.9756-10.4596-4.9756l-.9019-73.3899Z"/><path class="g" d="M224.686,467.648v4.4062h-20.174v-78.6455c2.3874-1.1761,4.652-2.5595,6.7727-4.1289h2.0399v69.1764c11.2244,1.3026,11.3614,8.8406,11.3614,9.1917Z"/></g><g><path class="g" d="M168.6078,389.2816v78.3655h11.3615s0-4.9756-10.4596-4.9756l-.9019-73.3899Z"/><path class="g" d="M184.3766,467.648v4.4062h-20.174v-79.0562c2.7807,1.4465,5.7298,2.6051,8.8125,3.4408v62.0175c11.221,1.3026,11.3614,8.8406,11.3614,9.1917Z"/></g><path class="g" d="M231.1356,337.0649c-6.713-19.1453-24.9665-32.9082-46.3764-32.9082-27.087,0-49.1217,22.0348-49.1217,49.1218,0,19.7527,11.7159,36.8194,28.5651,44.6137,1.4325,.6636,2.9036,1.2605,4.4062,1.7871,.0422,.0141,.0878,.0281,.1299,.0421,1.3974,.4845,2.8264,.9058,4.2764,1.2639,3.7637,.9269,7.696,1.4184,11.7441,1.4184,7.0219,0,13.7068-1.4816,19.7527-4.1465,1.5096-.667,2.9807-1.4044,4.4062-2.2154,.0281-.014,.0562-.0315,.0843-.0456,1.4922-.8497,2.9351-1.7766,4.322-2.7737,8.5105-6.102,15.0023-14.8584,18.25-25.0472,1.4992-4.6977,2.3102-9.7043,2.3102-14.897,0-5.6807-.9691-11.1367-2.7491-16.2136Zm-46.3764,56.5264c-4.0832,0-8.026-.6109-11.7441-1.7449-1.5062-.46-2.9739-1.0041-4.3957-1.6326-.0036,.0035-.007,0-.0106-.0035-.6705-.2914-1.3271-.6004-1.9766-.9305-13.1484-6.6462-22.1823-20.2898-22.1823-36.0013,0-22.2279,18.0814-40.3093,40.3093-40.3093s40.3129,18.0814,40.3129,40.3093-18.085,40.3128-40.3129,40.3128Z"/></g><g><path class="g" d="M384.5785,471.1274h-20.1915v-4.4063c0-.3511,.1404-7.8715,11.3228-9.1882l-.2493-59.7285v-.021l-.0702-17.6286v-.021c1.5939-3.6233,2.893-7.4046,3.8691-11.3123v-.0175c.172-.6601,.33-1.3377,.481-2.0048v-.0175c1.0779-4.9259,1.6466-10.0379,1.6466-15.2832,0-5.4525-.6144-10.7611-1.7765-15.866-.1124-.4845-.2247-.9655-.3476-1.4465-1.0253-4.1043-2.4086-8.0471-4.1149-11.8389v-.0211l-.0737-17.6777-.2106-51.0704,3.7497-.0141,5.0628-.021,.0141,3.4864,.2633,63.4079,.2563,61.5085v.0211l.3687,89.1608Z"/><path class="g" d="M424.8913,471.1274h-20.1915v-4.4063c0-.3511,.1404-7.8715,11.3228-9.1882l-.8216-197.0315c3.1143-.9691,6.0634-2.3067,8.7985-3.9639l.8918,214.5898Z"/><g><path class="g" d="M383.6902,257.0291c-1.7836-1.0252-3.4793-2.1838-5.0768-3.4654l5.0628-.021,.0141,3.4864Z"/><path class="g" d="M403.4288,178.9525c-24.0501,0-43.6166,19.5666-43.6166,43.6166,0,13.138,5.8388,24.9383,15.0585,32.9433,1.3903,1.2078,2.8614,2.3313,4.3992,3.3565,.007,.007,.0141,.0105,.021,.0141,1.4149,.9444,2.8896,1.8081,4.4168,2.5841,5.9265,3.0159,12.6289,4.7187,19.721,4.7187,4.0833,0,8.0401-.5653,11.7898-1.6186,1.4886-.4178,2.9422-.9128,4.3606-1.4816,.0141-.0035,.0246-.007,.0387-.0141,1.5097-.6039,2.9773-1.292,4.3992-2.0574,13.6963-7.3626,23.0284-21.8346,23.0284-38.445,0-24.0501-19.5666-43.6166-43.6167-43.6166Zm17.9059,74.6008c-.5722,.3335-1.1586,.653-1.752,.9515h-.0035c-1.4149,.7198-2.8825,1.3482-4.3956,1.8748-3.6831,1.2851-7.6399,1.9837-11.7548,1.9837-19.7351,0-35.7942-16.0556-35.7942-35.7942s16.0591-35.7907,35.7942-35.7907,35.7908,16.0556,35.7908,35.7907c0,13.2187-7.2011,24.7838-17.8849,30.9842Z"/></g></g><g><path class="g" d="M259.8201,460.5629c1.7063-1.134,3.9042-1.9626,6.6427-2.4962l-19.6226-33.4138,12.8325-16.5225c2.1943,1.9521,4.501,3.7778,6.9131,5.4665l-9.1215,11.7442,26.8869,45.7864h-28.3685v-4.4063c0-.8461,.2772-3.7919,3.8374-6.1582Z"/><path class="g" d="M358.313,466.7211v4.4063h-28.372l26.8869-45.7864-7.1869-9.2549c2.5139-1.5448,4.9294-3.2301,7.2361-5.0523l10.575,13.619-19.6227,33.4138c2.7386,.5336,4.9399,1.3622,6.6427,2.4962,3.5637,2.3664,3.841,5.3121,3.841,6.1582Z"/><path class="g" d="M383.9535,320.4371c-1.2885-3.0686-2.7736-6.0389-4.4413-8.9319-.0035,0-.0035-.0035-.0035-.0035v-.014c-.0807-.1405-.1615-.2809-.2423-.4213v-.0175c-1.2885-2.1979-2.6858-4.322-4.1921-6.4005-2.5033-3.4653-5.3015-6.7516-8.3841-9.8342-15.1393-15.1393-35.2711-23.4778-56.6809-23.4778s-41.5416,8.3385-56.6845,23.4778c-11.681,11.681-19.3137,26.3322-22.1892,42.2509-.8532,4.7152-1.2885,9.5428-1.2885,14.4336,0,5.6702,.5863,11.2526,1.7274,16.6771,3.1669,15.0479,10.6206,28.8741,21.7503,40.0038,1.1868,1.1867,2.4016,2.3278,3.6479,3.4302,2.2154,1.9591,4.5186,3.7848,6.906,5.4701,13.4083,9.4726,29.3762,14.5775,46.1305,14.5775,15.206,0,29.7694-4.2061,42.3526-12.0672,2.4858-1.5518,4.8908-3.2476,7.2115-5.0803,2.4752-1.9521,4.8522-4.0657,7.1167-6.3303,3.2406-3.2406,6.1723-6.713,8.7704-10.3749v-.021c1.3588-1.8854,2.6227-3.8375,3.7989-5.8247v-.0176c.1931-.3335,.3862-.6706,.5793-1.0076v-.0175c1.6466-2.8895,3.1072-5.8844,4.3711-8.9494v-.0211c3.9113-9.5323,5.9616-19.8334,5.9616-30.447,0-10.8419-2.1381-21.3572-6.2179-31.0614Zm-4.2132,46.3447v.0175c-.1509,.6671-.3089,1.3447-.481,2.0048v.0175c-.9761,3.9077-2.2752,7.689-3.8691,11.3123v.021c-4.7468,10.7927-12.0848,20.1705-21.2273,27.389-2.3031,1.8222-4.7257,3.5005-7.2466,5.0312h-.0035c-10.7751,6.5339-23.4075,10.3011-36.9036,10.3011-15.1182,0-29.155-4.7257-40.7096-12.7764-2.4155-1.6818-4.7221-3.5074-6.906-5.4701-14.5775-13.0783-23.7622-32.0515-23.7622-53.1313,0-39.3579,32.02-71.3778,71.3779-71.3778,28.9724,0,53.9669,17.3511,65.1387,42.2052v.0211c1.7064,3.7919,3.0897,7.7347,4.1149,11.8389,.1228,.481,.2352,.962,.3476,1.4465,1.1621,5.1049,1.7765,10.4135,1.7765,15.866,0,5.2454-.5687,10.3573-1.6466,15.2832Z"/></g><g><path class="g" d="M57.5397,473.4692h-16.6909v-3.6338c0-.2844,.1157-6.4496,9.2478-7.5626l-.5512-35.3308c2.1311,1.5414,4.6836,2.4261,7.3062,2.5384l.6881,43.9888Z"/><path class="g" d="M90.9114,473.4692h-16.8245v-3.6338c0-.2844,.1123-6.3267,8.9845-7.5275l-1.8187-36.0364c1.7135,.7373,3.4794,1.0814,5.2208,1.0814,.7058,0,1.408-.0562,2.0995-.1685l2.3384,46.2849Z"/><path class="g" d="M118.9991,381.6471c-2.3384-3.058-2.6509-7.2045-.79-10.5714,2.7069-4.9013,2.8228-10.8138,.3019-15.8169-2.5244-5.0137-7.3554-8.4474-12.9203-9.1917-3.8165-.5126-6.9763-3.2301-8.0437-6.9272-1.5588-5.3858-5.6667-9.6481-10.9928-11.4071-1.7414-.5723-3.5355-.8532-5.3191-.8532-3.6759,0-7.3027,1.1938-10.3011,3.4829-3.0616,2.3348-7.2151,2.6402-10.5891,.7795-4.9153-2.714-10.8418-2.8228-15.8519-.2985-5.0031,2.5244-8.4299,7.3414-9.1707,12.8957-.5056,3.8094-3.2231,6.9587-6.9237,8.0226-5.3892,1.5518-9.6551,5.6561-11.4106,10.9788-1.7555,5.3226-.7689,11.1613,2.6404,15.6132,2.3382,3.058,2.6507,7.2045,.79,10.5715-2.7071,4.9013-2.8194,10.8137-.2985,15.8168,2.5208,5.0137,7.3519,8.4474,12.9168,9.1917,3.8199,.5126,6.9761,3.2301,8.0471,6.9271,1.306,4.5221,4.4132,8.2508,8.5281,10.3749,.7864,.4038,1.6115,.7514,2.4647,1.0322,1.5834,.5197,3.2055,.8005,4.831,.8426,.1651,.007,.3266,.0105,.4915,.0105,3.6724,0,7.2993-1.1937,10.2977-3.4829,3.058-2.3348,7.2151-2.6402,10.5855-.7794,1.0183,.5617,2.0785,1.0147,3.1669,1.3482,2.3699,.7408,4.8627,.9444,7.3063,.6179,1.8469-.2493,3.6654-.804,5.3789-1.6677,5.0031-2.5244,8.4297-7.3414,9.1705-12.8957,.5092-3.8094,3.2266-6.9587,6.9237-8.0226,5.3894-1.5518,9.6551-5.6561,11.4106-10.9787,1.7555-5.3226,.7689-11.1614-2.6402-15.6133Zm-10.7787,19.6087c-6.4742,1.8608-11.228,7.3765-12.1162,14.0473-.4318,3.2195-2.3384,5.9019-5.2419,7.366-.8004,.4037-1.629,.6916-2.4717,.8637-2.2189,.4564-4.5291,.1089-6.5971-1.0357-.2493-.1369-.4985-.2668-.7512-.3898-5.7511-2.8122-12.6324-2.1557-17.755,1.7555-1.9099,1.4606-4.1885,2.1417-6.4917,1.9802-.8181-.0527-1.6362-.2107-2.4436-.4775-2.0294-.667-3.7146-1.924-4.8874-3.5882-.6178-.8742-1.0919-1.8608-1.4008-2.9352-1.8678-6.4637-7.3905-11.2175-14.0649-12.1093-3.2302-.4318-5.9265-2.3489-7.3905-5.2594-1.4606-2.9001-1.401-6.1933,.1719-9.0337,3.2547-5.8914,2.7105-13.1556-1.3833-18.5027-1.9766-2.5805-2.528-5.8352-1.5096-8.9213,1.0181-3.0826,3.3951-5.3718,6.5234-6.2706,6.4706-1.8608,11.228-7.3765,12.1162-14.0473,.4284-3.2195,2.3384-5.9019,5.2383-7.366,1.3974-.7057,2.8895-1.0568,4.3746-1.0568,1.608,0,3.2127,.4108,4.6942,1.2288,2.5665,1.4184,5.3928,2.1136,8.2052,2.1136,3.6514,0,7.2816-1.1726,10.3047-3.4793,2.584-1.9767,5.8421-2.5244,8.9319-1.5027,3.0932,1.0181,5.3858,3.3986,6.288,6.5233,1.8714,6.4637,7.3907,11.2175,14.0649,12.1093,3.2336,.4318,5.9265,2.3488,7.3907,5.2594,1.464,2.9001,1.4008,6.1933-.1685,9.0337-3.2583,5.8914-2.714,13.1556,1.3797,18.5027,1.9766,2.5805,2.528,5.8352,1.5098,8.9213-1.0181,3.0826-3.3952,5.3718-6.52,6.2706Z"/></g><g><g><path class="g" d="M512.6355,390.4176l73.2221-27.9225-4.0482-10.6158s-4.649,1.7729-.9222,11.546l-68.2517,26.9924Z"/><path class="g" d="M591.546,365.0403l-77.3394,29.4956-1.0709-2.8123c1.422-.941,2.7843-1.9556,4.0868-3.0546l.0035-.0035c.0491-.0386,.0948-.0772,.1439-.1193l.0035-.0035c2.5454-2.1558,4.8416-4.5888,6.8534-7.2607v-.0035l51.4742-19.6263c-2.7807-10.9507,4.2132-13.7665,4.5396-13.8894l4.1148-1.5694,7.1904,18.8468Z"/></g><path class="g" d="M489.3736,473.1883h-26.9044l3.3564-6.4391c.2774-.5407,1.4044-2.4296,4.1429-4.1711,1.9556-1.2429,4.2588-2.1276,6.885-2.6402l-9.1215-35.3518,8.9459-27.0238c2.8299,.7724,5.772,1.2745,8.7949,1.4711l-8.5597,25.8617,12.4604,48.2932Z"/><path class="g" d="M488.4748,305.2943c-27.0871,0-49.1219,22.0348-49.1219,49.1218,0,22.5228,15.2341,41.5557,35.9417,47.3277,2.8228,.79,5.7509,1.3307,8.7528,1.5975,1.457,.1335,2.9352,.2001,4.4274,.2001,11.709,0,22.4771-4.1183,30.928-10.9858l.0035-.0035c2.7667-2.247,5.284-4.7889,7.5029-7.5766l.0036-.0035c.0771-.0948,.1545-.1931,.2317-.2914,1.5027-1.9135,2.8649-3.9393,4.0727-6.0669,4.0622-7.1448,6.383-15.4061,6.383-24.1975,0-27.0871-22.0383-49.1218-49.1253-49.1218Zm26.4164,79.5443l-.0034,.0035c-1.0779,.9409-2.2014,1.8187-3.3741,2.6332-6.5339,4.5713-14.4792,7.2536-23.0389,7.2536-.5232,0-1.0463-.0105-1.566-.0351-3.044-.1124-6.0037-.5688-8.8406-1.3307-17.2002-4.5959-29.9028-20.318-29.9028-38.9471,0-22.2279,18.0814-40.3093,40.3093-40.3093s40.3128,18.0814,40.3128,40.3093c0,12.1338-5.3894,23.0319-13.8964,30.4225Z"/></g><g><g><path class="g" d="M322.5188,316.5961c-.2247-.0105-.4459-.0141-.6706-.0141h-37.1143v41.3626h37.1143c2.8405,0,5.5508-.5758,8.0191-1.6185,1.2919-.5442,2.5173-1.2183,3.6584-2.0013,5.435-3.7286,9.0056-9.9852,9.0056-17.0632,0-11.1789-8.9178-20.3144-20.0125-20.6655Zm-30.5453,7.2255h29.8747c7.4118,0,13.4435,6.0283,13.4435,13.44s-6.0317,13.4435-13.4435,13.4435h-29.8747v-26.8834Z"/><path class="g" d="M333.5257,354.3248c-1.1411-.7829-2.3665-1.4571-3.6584-2.0012-2.4683-1.0428-5.1787-1.6185-8.0191-1.6185h-37.1143v41.3661h37.1143c.2247,0,.4459-.0035,.6706-.014,2.5595-.0773,5.0031-.6285,7.2467-1.5624,2.7666-1.1481,5.2277-2.8825,7.2396-5.0452,3.4266-3.6935,5.5262-8.6369,5.5262-14.0614,0-7.0745-3.5706-13.3311-9.0056-17.0632Zm-8.4614,30.117c-1.0322,.2563-2.1066,.3897-3.2161,.3897h-29.8747v-26.8869h29.8747c7.4118,0,13.4435,6.0319,13.4435,13.4435,0,3.0967-1.0497,5.9511-2.8192,8.2262-1.8292,2.3594-4.4238,4.0938-7.4082,4.8276Z"/></g><rect class="g" x="296.3196" y="304.6458" width="7.2402" height="15.5545"/><rect class="g" x="315.2788" y="304.6458" width="7.2402" height="15.5545"/><rect class="g" x="296.3196" y="388.5577" width="7.2402" height="15.5545"/><rect class="g" x="315.2788" y="388.5577" width="7.2402" height="15.5545"/></g><g id="d"><g><path class="g" d="M180.1147,360.285c2.7772-.3772,5.4297-.4506,7.9147-1.1335,5.5357-1.5212,9.1762-7.2407,8.4352-12.764-.8129-6.0584-5.7578-10.5474-11.7517-10.6679-7.9426-.1598-13.9212,7.5315-11.7948,15.1749,.072,.2587,.1705,.5107,.2323,.7716,.3083,1.3-.3151,2.5699-1.4272,2.9236-1.2973,.4126-2.558-.2247-2.9928-1.6189-1.7354-5.5651-.9572-10.788,2.6454-15.3641,4.3616-5.5401,10.2287-7.6171,17.0419-5.9731,6.821,1.6459,11.0066,6.2286,12.4228,13.1104,1.9903,9.6719-5.5971,19.2552-15.4697,19.5669-4.6595,.1471-6.8845,2.1906-7.412,6.1272-.1065,.795-.3118,1.5835-.5431,2.3535-.3319,1.1042-1.15,1.607-2.2737,1.5668-1.0941-.0391-1.7903-.6546-2.0706-1.6906-.0956-.3535-.095-.7675-.0181-1.1282,1.7129-8.0374,3.4306-16.0738,5.1936-24.1003,.1296-.5899,.4988-1.2289,.9504-1.6229,.7232-.6308,1.647-.6319,2.4798-.1216,.8801,.5394,1.2231,1.3883,1.028,2.3848-.4059,2.0725-.8625,4.1351-1.3024,6.2009-.4074,1.9132-.8202,3.8252-1.2879,6.0044Z"/><path class="g" d="M182.4595,372.1121c.0067-1.5991,1.0637-2.6637,2.6497-2.6689,1.5817-.0051,2.671,1.0758,2.6691,2.6488-.0019,1.5948-1.0759,2.6765-2.6568,2.6757-1.5671-.0007-2.6685-1.0995-2.6619-2.6556Z"/></g></g><g id="e"><path class="g" d="M492.3583,376.3236c-.0324-.0095-.0643-.0252-.0971-.0275-.2096-.0148-.4202-.0195-.629-.0412-.2937-.0305-.587-.0678-.879-.1116-.4503-.0674-.895-.1624-1.3328-.2889-.6635-.1918-1.3032-.4398-1.9038-.7856-.526-.3028-.998-.6711-1.4285-1.0996-.4006-.3988-.7731-.8184-1.0863-1.2895-.5554-.8357-.9297-1.746-1.1108-2.733-.0501-.2733-.0747-.5516-.1056-.8281-.0164-.1466-.0301-.2946-.0295-.4419,.0023-.5911,.1336-1.1531,.4236-1.6695,.191-.3401,.4497-.6251,.7629-.8632,.3963-.3012,.8511-.4529,1.3294-.5457,.2507-.0486,.5058-.0799,.7626-.0694,.5339,.0218,1.0494,.1286,1.5338,.3596,.2007,.0957,.3789,.2272,.5498,.3712,.4169,.3512,.6911,.7969,.871,1.3034,.1148,.3231,.1756,.6594,.1849,1.0032,.009,.3304,.0028,.6598-.0683,.985-.1359,.6218-.4128,1.1687-.873,1.6119-.2304,.2219-.4952,.4-.7951,.5201-.0528,.0211-.1046,.0446-.1563,.0684-.0094,.0043-.0156,.0155-.032,.0327,.0142,.0237,.0269,.0544,.0477,.0781,.4319,.493,.9507,.8616,1.5661,1.0909,.0639,.0238,.1282,.0475,.1939,.0659,.6521,.1831,1.3098,.3399,1.9825,.4274,.5995,.078,1.2027,.1036,1.8042,.0668,.7542-.0461,1.4822-.2238,2.1782-.5259,.4774-.2072,.9251-.4629,1.3345-.785,.3318-.261,.6318-.5544,.9064-.8754,.2336-.2731,.4445-.5613,.6316-.8681,.2351-.3857,.4207-.7942,.572-1.2184,.299-.8383,.5221-1.697,.661-2.5762,.0514-.3253,.0808-.6542,.1173-.9818,.0852-.7653,.0706-1.5338,.0622-2.3015-.0029-.2607-.0319-.5216-.058-.7815-.029-.2883-.0615-.5766-.105-.863-.0426-.2809-.095-.5608-.1537-.8388-.1046-.4961-.2421-.9837-.4071-1.463-.1445-.4198-.2967-.8371-.507-1.2298-.2753-.5142-.6038-.989-1.0141-1.4071-.3479-.3545-.7142-.6844-1.1341-.9524-.5313-.3391-1.1003-.5924-1.7043-.7715-.3723-.1104-.7525-.1793-1.1362-.2265-.2817-.0346-.5664-.0672-.8504-.0388-.4077,.0407-.811,.1112-1.2058,.2242-.505,.1445-.9944,.3317-1.4497,.5934-.8249,.474-1.6922,.8639-2.5354,1.3013-.0504,.0261-.1028,.0483-.155,.0708-.0094,.0041-.0221,.0006-.0464,.0006-.0088-.0252-.028-.0548-.0282-.0846-.0023-.3245-.0011-.649-.0021-.9735-.0003-.0849,.0376-.1515,.0868-.2169,.2668-.3546,.532-.7104,.7973-1.0661,.949-1.2723,1.8979-2.5447,2.8466-3.8172,.4965-.6659,.9924-1.3322,1.4887-1.9982,.9382-1.2591,1.8764-2.5181,2.8145-3.7773,.4623-.6204,.9245-1.2409,1.3865-1.8615,.3023-.4061,.6043-.8125,.9061-1.2191,.0303-.0408,.058-.0834,.0969-.1396-.0409-.0106-.0701-.0223-.1-.0248-.0452-.0038-.091-.0013-.1365-.0013-4.6427,0-9.2854,0-13.9281,0-.0569,0-.114-.002-.1706,.0028-.0799,.0068-.1018,.027-.1077,.1036-.0053,.0679-.0031,.1365-.0031,.2048-.0001,4.6684,0,9.3368-.0001,14.0053,0,.1765-.0022,.353-.0001,.5295,.0071,.5972,.1176,1.1746,.323,1.7359,.1042,.2849,.2346,.5574,.3865,.8169,.24,.41,.5764,.7282,.9916,.9638,.3583,.2034,.7444,.3092,1.1505,.3487,.1184,.0115,.2391,.0119,.358,.0048,.5599-.0338,1.1024-.136,1.6182-.3732,.387-.1779,.7248-.4243,1.0592-.6803,.3947-.3022,.7435-.6544,1.0779-1.0186,.2763-.3007,.5413-.6143,.7393-.9773,.0751-.1377,.1933-.2384,.3323-.3106,.1045-.0543,.2166-.0625,.3324-.0411,.4446,.0818,.7334,.3456,.8818,.7654,.0784,.2219,.1118,.4516,.0662,.6875-.0249,.1284-.0441,.258-.0697,.3863-.053,.266-.1801,.5031-.3041,.7391-.1641,.3123-.3429,.617-.559,.8971-.1388,.1799-.283,.3559-.4303,.5289-.1105,.1297-.2235,.2584-.3463,.3763-.8339,.8006-1.8019,1.3629-2.9318,1.6301-.4547,.1075-.9153,.1751-1.3848,.1668-.2275-.004-.4555,.0057-.6827-.0037-.346-.0143-.692-.0337-1.0371-.0623-.3281-.0273-.6563-.0599-.9822-.1066-.7965-.114-1.5743-.3003-2.3167-.6207-.4096-.1768-.7949-.3923-1.1519-.66-.2795-.2096-.5206-.4557-.7389-.728-.3833-.4781-.6948-.9991-.9466-1.5563-.2333-.5162-.3882-1.0569-.4902-1.6133-.0834-.4548-.1071-.9133-.1061-1.3755,.005-2.0951,.0036-4.1902,.0038-6.2853,.0003-2.727,0-5.4541,0-8.1811,0-.0626,.0021-.1255-.0029-.1878-.0065-.0799-.0271-.1017-.1037-.1084-.0622-.0055-.125-.0034-.1876-.0034-2.2645-.0001-4.5289,.0003-6.7934-.0015-.1069,0-.2138-.0206-.3207-.0316,0-.8996,0-1.7992,0-2.6988,.0908-.0463,.189-.0339,.285-.0339,2.3097-.0005,4.6194-.0003,6.9292-.0005,.2263,0,.2282-.002,.2282-.2282,.0003-1.9127-.0008-3.8254,.0021-5.7381,.0002-.134-.0342-.2356-.1324-.3322-.4869-.4787-.9657-.9658-1.4515-1.4457-.0877-.0867-.1275-.1771-.126-.3009,.0052-.4041,.0013-.8083,.0009-1.2125,1.6729,0,3.3458,0,5.0186,0,.0329,.022,.064,.0473,.0989,.0656,.4886,.2562,.9773,.5121,1.4668,.7666,.2664,.1385,.2459,.0951,.2459,.3986,.0003,2.5788,.0002,5.1576,.0003,7.7363,0,.0569-.0019,.114,.002,.1707,.0062,.0903,.0252,.1108,.1119,.1173,.0623,.0047,.1251,.0028,.1876,.0024,2.7984-.0187,5.5968,.0064,8.3954-.0257,2.8556-.0328,5.7117-.0103,8.5677-.0121,.5917-.0004,1.1833,.0007,1.775-.0025,.1031-.0005,.1844,.0259,.259,.1011,.569,.5738,1.1412,1.1445,1.7114,1.7171,.0305,.0306,.0524,.0697,.0833,.1116-.0459,.0501-.0825,.0928-.122,.1326-1.3219,1.3336-2.6422,2.6686-3.9666,3.9996-1.3568,1.3635-2.7193,2.7212-4.0761,4.0847-1.1197,1.1253-2.2347,2.2552-3.3514,3.3835-.0334,.0338-.0619,.0724-.1051,.1233,.0416,0,.0595,.0048,.0733-.0007,.3773-.1482,.7674-.2529,1.1644-.3285,.3614-.0688,.722-.1532,1.0964-.103,.2531,.0339,.5101,.0408,.7621,.0802,.9728,.152,1.9065,.4323,2.788,.8768,.188,.0948,.3748,.192,.5639,.2844,.8502,.4155,1.614,.9566,2.2947,1.6109,.2615,.2513,.4941,.5336,.7307,.8097,.2896,.3378,.5266,.714,.7602,1.0912,.1556,.2513,.3022,.5088,.4419,.7694,.2584,.4822,.4824,.9812,.6583,1.4991,.1316,.3876,.253,.78,.3522,1.1769,.1448,.5794,.2562,1.1662,.329,1.7601,.0436,.3556,.0955,.7098,.0929,1.0694-.0004,.0609,.0182,.1219,.028,.1829v1.6398c-.0097,.0439-.0282,.0879-.0276,.1316,.0049,.3657-.049,.7252-.1002,1.0858-.0971,.6832-.2445,1.3555-.4448,2.015-.2918,.9609-.6649,1.889-1.1592,2.7656-.3424,.6072-.7489,1.169-1.2192,1.682-.3112,.3395-.6442,.6582-1.0053,.9466-.4725,.3774-.9669,.7209-1.5081,.9925-.3049,.153-.6093,.3085-.923,.4416-.3976,.1686-.8002,.328-1.2084,.4686-.5056,.1742-1.0221,.3159-1.5478,.4164-.3905,.0746-.7835,.1381-1.1773,.1926-.2639,.0365-.5313,.0478-.797,.0724-.0386,.0036-.0762,.0188-.1142,.0286h-1.8094Z"/></g><g><path class="g" d="M81.4379,393.8864c-.478-.0335-1.0151-.0541-1.551-.1143-.3956-.0445-.794-.1141-1.1831-.2209-.4382-.1202-.8696-.286-1.3-.4473-.6677-.2502-1.3075-.5818-1.9136-.9934-.4757-.3231-.9528-.6483-1.4039-1.0123-.4076-.3289-.7902-.7001-1.1665-1.074-.3884-.3859-.7648-.7881-1.1298-1.2009-.3334-.3769-.657-.7664-.9627-1.1702-.4803-.6345-.9454-1.2826-1.4103-1.9306-.3796-.5291-.746-1.0692-1.1246-1.5993-.2288-.3203-.4712-.6293-.7041-.9462-.1382-.1881-.2666-.3846-.4054-.5722-.4302-.5817-.8636-1.1606-1.2951-1.7412-.3596-.4838-.7129-.9732-1.0791-1.4511-.2639-.3444-.5373-.6811-.819-1.0084-.3014-.3503-.6103-.6939-.929-1.0251-.4133-.4296-.8475-.8381-1.3176-1.1847-.4506-.3322-.909-.652-1.396-.9226-.5378-.2989-1.1003-.4784-1.6638-.6645-.177-.0585-.3651-.081-.5479-.0942-.7371-.0531-1.4708-.0598-2.1928,.0645-.5178,.0891-1.008,.2703-1.4908,.4655-.2859,.1156-.5515,.2872-.8167,.4509-.26,.1604-.5131,.3348-.7601,.5173-.3539,.2614-.6654,.5758-.9629,.9113-.2587,.2919-.4659,.6261-.6876,.9483-.1187,.1725-.2096,.3707-.2995,.5656-.148,.3211-.2913,.6454-.4249,.9748-.184,.4538-.3018,.9352-.3702,1.4334-.0639,.4655-.1014,.935-.111,1.4112-.0113,.5603,.0451,1.1153,.1375,1.6714,.0963,.5798,.2596,1.1416,.4528,1.6979,.2289,.6589,.5361,1.2751,.9046,1.8567,.1919,.3028,.4035,.5945,.629,.869,.2285,.2782,.4694,.551,.7334,.7864,.3408,.304,.6775,.6192,1.07,.845,.2997,.1724,.5873,.3727,.8867,.5459,.1646,.0953,.3416,.1625,.5142,.2384,.1667,.0733,.3331,.149,.5029,.2105,.658,.2384,1.3305,.3887,2.0077,.433,.4468,.0293,.9012,.0152,1.3372-.0558,.5576-.0909,1.0971-.2661,1.6025-.5322,.2441-.1285,.5028-.2275,.7427-.3636,.265-.1503,.5173-.3255,.7728-.494,.3982-.2625,.7371-.6067,1.0816-.9412,.222-.2155,.4316-.4479,.6316-.6881,.2808-.3373,.5627-.6756,.8162-1.0379,.3067-.4383,.5842-.9021,.8742-1.355,.0772-.1205,.1577-.2386,.2302-.3627,.1074-.184,.209-.3723,.3131-.5588,.0905-.162,.1725-.163,.2792-.0071,.3672,.5366,.7354,1.0725,1.1034,1.6085,.178,.2592,.3575,.5171,.5344,.7771,.0969,.1425,.1025,.2365,.0099,.3754-.4861,.7297-.9759,1.4564-1.5421,2.1134-.258,.2994-.5096,.6066-.7823,.8894-.2674,.2773-.5553,.5311-.839,.7891-.1856,.1687-.3759,.332-.5712,.4872-.1433,.1138-.3039,.2025-.4471,.3164-.5135,.4087-1.0805,.7237-1.6647,.9932-.5988,.2762-1.2161,.5095-1.8608,.6708-.7388,.1848-1.4886,.2693-2.2546,.2539-.647-.013-1.2931-.0854-1.9327-.2673-.3677-.1046-.7405-.1863-1.1027-.3139-.3484-.1228-.6927-.2739-1.027-.4443-.4361-.2223-.8718-.4529-1.2867-.7224-.3945-.2563-.765-.5602-1.1284-.8756-.4351-.3777-.8554-.7731-1.2301-1.219-.573-.6818-1.1049-1.4019-1.5234-2.2088-.1894-.3652-.3816-.7304-.5453-1.1082-.1452-.3351-.2438-.6913-.379-1.0316-.216-.5438-.3038-1.1154-.4228-1.6804-.0284-.1349-.0373-.2741-.0478-.4115-.0557-.7285-.111-1.457-.1615-2.1855-.0089-.1286-.0005-.2585,.0104-.3859,.0252-.2946,.0488-.5899,.0875-.8816,.0689-.5192,.1344-1.0396,.3-1.53,.1071-.3172,.183-.65,.3021-.9605,.1383-.3606,.2962-.7125,.4681-1.0534,.2203-.4369,.4509-.8683,.7008-1.2839,.144-.2394,.336-.4417,.5046-.6624,.3335-.4368,.6996-.8389,1.1105-1.186,.3196-.27,.6548-.52,.9959-.758,.5454-.3807,1.1291-.6894,1.7426-.9313,.5818-.2294,1.1831-.393,1.8022-.4997,.7213-.1243,1.4517-.1677,2.1877-.1029,.837,.0737,1.6767,.1759,2.4917,.4842,.5167,.1955,1.0283,.4054,1.5279,.665,.5684,.2953,1.1112,.6392,1.6319,1.0259,.5579,.4144,1.1002,.8565,1.5958,1.3654,.2927,.3005,.6006,.5836,.886,.8919,.2596,.2805,.5071,.5763,.7441,.8799,.4945,.6335,.9842,1.2718,1.4649,1.9176,.2545,.342,.4847,.7052,.7285,1.0567,.2114,.3046,.4264,.6063,.64,.9091,.2692,.3817,.5374,.7643,.8083,1.1446,.271,.3804,.5409,.7617,.8184,1.1366,.2724,.368,.5553,.727,.8304,1.0928,.1159,.1541,.2194,.3192,.3358,.4728,.165,.2176,.335,.4308,.5061,.6429,.3315,.4111,.6595,.8258,.9999,1.2279,.2219,.2621,.4634,.5045,.6959,.756,.1731,.1873,.3372,.3862,.5202,.5605,.5623,.5354,1.1394,1.0487,1.7549,1.5086,.5422,.4051,1.113,.7472,1.7103,1.0173,.6892,.3117,1.3987,.5445,2.1348,.6192,.9602,.0975,1.8928,.0355,2.7786-.3284,.2953-.1213,.6085-.2051,.8876-.358,.3944-.216,.783-.4532,1.1402-.7316,.3457-.2695,.6596-.5898,.966-.9122,.2035-.2142,.3771-.4645,.5505-.7107,.373-.5298,.7002-1.0934,.935-1.7211,.0538-.1437,.1427-.2189,.2966-.2207,.7635-.009,1.5264-.0273,2.2897-.0394,.1913-.003,.2322,.0388,.1757,.2455-.1179,.431-.2517,.856-.3911,1.2779-.2115,.6401-.5189,1.2247-.8651,1.7753-.3544,.5636-.7157,1.1273-1.1763,1.5968-.2851,.2906-.5631,.5899-.8563,.8705-.1378,.1319-.3011,.2331-.4573,.3408-.3063,.2112-.6041,.44-.9269,.619-.3494,.1938-.719,.3498-1.0876,.5029-.4089,.1698-.8196,.3364-1.2592,.4185-.3408,.0636-.6712,.1715-1.0212,.1976-.3195,.0238-.637,.0649-1.0171,.1048Z"/><path class="g" d="M84.8076,384.4507c-1.9156,.0322-3.8311,.0647-5.7467,.0961-.2277,.0037-.2506-.0124-.2793-.2721-.0338-.3069-.0515-.6147-.0752-.9222-.0262-.34-.0537-.6801-.076-1.0201-.0164-.2503,.0042-.2715,.2368-.2776,.1466-.0039,.2935-.0045,.4402-.007,2.8111-.0476,5.6222-.0949,8.4332-.1432,.3364-.0058,.3654-.0501,.2925-.4164-.0493-.248-.0854-.4991-.1496-.7434-.1008-.3838-.1942-.7703-.3688-1.1325-.1938-.4019-.3579-.8201-.5628-1.2152-.1374-.265-.3193-.5055-.4884-.7514-.4574-.6652-1.0257-1.1982-1.6291-1.6969-.7448-.6156-1.5644-1.0306-2.4363-1.3126-.5003-.1618-1.0043-.2919-1.523-.3445-.4734-.048-.9438-.0691-1.4085-.0291-.3682,.0317-.7342,.1064-1.0892,.204-.3907,.1075-.7928,.2131-1.145,.4085-.6651,.3689-1.3443,.7229-1.9044,1.2746-.2792,.275-.5824,.522-.8525,.807-.5015,.5289-.9621,1.102-1.3722,1.72-.3541,.5338-.6808,1.0906-1.018,1.6385-.0275,.0447-.0417,.0997-.0647,.1483-.0735,.1557-.1536,.1621-.267,.0168-.0494-.0632-.0881-.136-.1347-.2021-.3289-.4666-.6595-.9319-.9876-1.3992-.1526-.2174-.302-.4373-.4504-.658-.1165-.1734-.1198-.2551-.0005-.4372,.3564-.5441,.7173-1.0836,1.1022-1.6042,.4162-.563,.8742-1.0773,1.3472-1.5799,.4274-.4541,.9105-.8299,1.3752-1.2332,.3135-.2722,.6518-.5012,.9957-.7122,.4507-.2766,.9028-.5615,1.4064-.7348,.418-.1438,.831-.3026,1.2477-.4502,.0814-.0288,.1704-.0353,.2552-.0549,.8118-.1882,1.642-.2599,2.4821-.2172,.7127,.0362,1.4218,.1672,2.1241,.3813,1.0982,.3348,2.1254,.8576,3.0959,1.5416,.6249,.4405,1.2013,.9541,1.7411,1.5149,.2634,.2737,.4782,.6037,.7356,.8855,.3585,.3925,.6432,.843,.9153,1.301,.4774,.8038,.852,1.6601,1.1467,2.5548,.2179,.6617,.3652,1.3372,.494,2.0182,.1325,.7009,.1546,1.406,.2097,2.1097,.0163,.2081-.0026,.4177-.0148,.6252-.0085,.1441-.0504,.1801-.2007,.188-.4021,.021-.804,.047-1.2073,.0548-1.541,.0299-3.0825,.0534-4.6239,.0793v-.0012Z"/></g><g><path class="g" d="M402.5552,197.8377l13.5119,16.4141c.1945,.2363-.0813,.5106-.4041,.4018l-12.4164-4.1838c-.6681-.2251-1.4014-.2196-2.0177,.0151l-12.3864,4.7182c-.317,.1207-.6626-.1883-.474-.4238l13.5947-16.9657c.1328-.1657,.4462-.153,.5919,.0241Z"/><path class="g" d="M388.6409,227.3684l12.3549,4.1604c.7065,.2379,1.4819,.2321,2.1337-.0161l12.3329-4.6954c.317-.1207,.6626,.1884,.4739,.4238l-13.5997,16.9675c-.1328,.1657-.4462,.1529-.5919-.0242l-13.5077-16.4142c-.1944-.2362,.0813-.5105,.404-.4018Z"/><path class="g" d="M389.0548,220.9355l12.2858-4.6809c.5295-.2017,1.1594-.2065,1.7334-.0131l12.1205,4.0837c.2896,.0976,.3254,.4155,.0582,.5172l-12.2899,4.6807c-.5295,.2017-1.1594,.2064-1.7334,.0129l-12.1165-4.0834c-.2896-.0976-.3254-.4154-.0583-.5172Z"/></g></svg>