<?xml version="1.0" encoding="UTF-8"?><svg id="c" xmlns="http://www.w3.org/2000/svg" width="600" height="600" viewBox="0 0 600 600"><defs><style>.e{stroke-width:6.6078px;}.e,.f,.g,.h,.i,.j,.k,.l{stroke:#fff;}.e,.f,.g,.i,.j{stroke-linecap:round;}.e,.f,.h,.i,.j,.k,.l{stroke-miterlimit:10;}.e,.f,.h,.i,.k,.l{fill:none;}.m,.j{fill:#fff;}.f{stroke-width:9.2209px;}.g{fill:#1d1d1b;stroke-linejoin:round;}.g,.l{stroke-width:11.4122px;}.h{stroke-linecap:square;stroke-width:7.1978px;}.i{stroke-width:7.9788px;}.j{stroke-width:5.6418px;}.k{stroke-width:11.4496px;}</style></defs><path class="k" d="M238.7768,481.0764l-12.8366,28.7764,23.3965,30.5463h-21.1343s-4.0806-6.3592,15.376-6.3592"/><path class="k" d="M350.6033,484.5851l10.4685,25.2677-22.5011,30.5463h21.1343s4.5875-6.683-14.8691-6.683"/><path class="l" d="M392.6638,377.6291c-10.795-42.6529-49.4316-74.2143-95.4397-74.2143-36.6251,0-68.5787,20.0007-85.5346,49.6756-8.2147,14.3767-12.9091,31.0242-12.9091,48.768,0,54.3689,44.0747,98.4437,98.4437,98.4437,25.0444,0,47.9045-9.3521,65.2785-24.7545"/><g><path class="i" d="M125.2415,281.1367c3.9406-4.1167,6.7587-7.619,7.8925-9.5626,15.6534,2.0871,28.4371,2.0871,31.3069-4.1742,4.4351-9.9138-17.2188-37.3073-38.09-48.7865-13.0445-8.8703-26.6108-7.5658-29.4806-3.6525-6.0005,8.6094,16.9252,21.4159,28.1762,32.6113-6.5223-7.044-20.8712-13.3054-37.5682-8.3485-11.2183,3.3916-20.6103,11.2183-24.2628,22.9584-.7827-.5218-1.8262-.5218-2.8698-.5218-3.9134,0-7.044,3.1307-7.044,7.044s3.1307,7.044,7.044,7.044c.7827,0,2.8698-.5218,2.8698-.5218"/><path class="i" d="M87.2075,291.7925c-8.279,9.0344-13.8174,11.5009-13.8174,14.2191,0,3.9134,10.9574,2.8698,15.1316,1.3045,8.1469-2.8943,16.514-8.3872,23.7983-14.2891"/><path class="i" d="M62.9545,273.6612c1.3045,11.4792,7.8267,15.9143,20.8712,17.2188,1.3557,.1356,2.6522,.2486,3.8986,.3432,10.7467,.8155,17.7691,.2599,26.8864,.9613,8.3485,.7827,15.9143,4.9569,18.5232,3.6525,2.6089-1.3045,1.0436-6.2614-2.348-9.1312-4.4351-3.9134-10.4356-6.7831-20.8712-7.8267,2.0871-5.7396,1.5653-13.8272-1.8262-18.2623"/></g><g><polygon class="m" points="398.4883 172.9338 381.0379 172.9338 382.2963 158.7752 397.2299 158.7752 398.4883 172.9338"/><polygon class="m" points="370.5454 139.0388 378.8617 134.4782 382.8857 143.0628 370.5454 139.0388"/><polyline class="e" points="359.4362 124.2132 349.4555 127.4301 340.8652 97.7986 347.0841 82.4342 379.7579 107.4657"/><polygon class="e" points="410.5019 96.3733 432.3957 82.4342 438.6146 97.7986 430.0242 127.4301 439.6993 147.916 433.8461 168.7678 409.7148 163.2805 397.2769 172.426 382.2028 172.426 369.765 163.2805 345.6336 168.7678 339.7805 147.916 349.4555 127.4301 340.8652 97.7986 347.0841 82.4342 368.9779 96.3733 410.5019 96.3733"/><polygon class="m" points="408.9344 139.0388 400.6181 134.4782 396.5941 143.0628 408.9344 139.0388"/><polyline class="e" points="420.0435 124.2132 430.0242 127.4301 438.6146 97.7986 432.3957 82.4342 400.1738 107.1194"/></g><g><path class="h" d="M118.8457,446.8102l-2.1555,5.4521c-4.0232,10.1764-12.2346,18.1269-22.5355,21.8197l-10.2474,3.6736-8.485,21.9612-30.9454-1.9965,25.4551-27.4516,5.9894-15.4727-31.4989-15.7494c-11.7272-5.8636-20.4368-16.4023-23.9867-29.024l-3.4105-12.1261,88.806,31.7395-29.6455-10.5954-5.7418-9.4191c-6.7672-11.1011-9.2929-24.2746-7.1113-37.0914l.6098-3.5826,41.4269,34.9383,1.4974,22.4604,8.485-2.9947,15.9718,.4991,12.9771,14.9736-18.4674,.4991-6.9877,7.4868Z"/><line class="h" x1="100.768" y1="474.2138" x2="115.1395" y2="480.9842"/><line class="h" x1="89.4123" y1="477.4013" x2="103.1861" y2="487.7578"/></g><g><path class="l" d="M202.6113,428.7414c3.4962,23.4365,55.8367,37.8505,66.0138-7.6663"/><path class="g" d="M300.9624,418.1638c-9.4463,6.0267-21.5479,7.4826-32.0695,2.8314"/><path class="g" d="M299.5548,430.5338c-14.8637-.4415-25.2681-5.7459-30.1903-9.476"/><path class="g" d="M268.2184,420.577c-2.0716-.4885-4.0072-1.6304-5.4712-3.3946-2.1817-2.629-2.8049-6.0294-1.9842-9.0952"/></g><g><path class="i" d="M539.77,275.4218c-1.9454,12.5052-7.6955,24.1449-16.5137,33.3089l-7.5248,7.8199s-8.1718,9.9386-15.0184-3.5337c-5.639-11.096-11.6332-3.3006-18.5521-9.2761-6.9189-5.9754,1.3252-9.2761-4.8589-14.5767-2.2606-1.9376-4.0489-3.6391-5.4082-5.0183-1.3674-1.3873-.4593-3.7269,1.4846-3.8521,5.6961-.3668,14.681-2.0458,17.6169-8.7983"/><path class="i" d="M493.204,256.4771l-1.1962-8.0145c-1.7859-11.9653,6.3741-23.1449,18.3142-25.0917h0c10.9367-1.7832,20.2796,4.7712,24.7216,15.4068l2.8019,9.236c1.2479,4.1134,2.0598,8.3362,2.4285,12.599"/><path class="i" d="M496.8113,258.244s-9.4826-1.3118-16.8589,2.5031c-6.5479,3.3865-7.3213,8.617-5.2599,12.8133,1.1636,2.3687,8.3519,9.8615,16.3029-2.0649"/><path class="f" d="M540.3276,261.2781l12.6853,6.6856c3.5708,1.8,5.2051,6.0065,3.7862,9.7452h0c-1.5661,4.1266-6.238,6.1364-10.311,4.4359l-6.7181-2.805"/><ellipse class="j" cx="511.2592" cy="242.5631" rx=".0552" ry="1.1043" transform="translate(-36.6396 101.0367) rotate(-10.8983)"/><ellipse class="j" cx="523.8214" cy="242.5631" rx=".0552" ry="1.1043" transform="translate(-36.413 103.4118) rotate(-10.8983)"/></g><circle class="m" cx="271.9618" cy="360.4738" r="6.1267"/><circle class="m" cx="319.2667" cy="366.6005" r="6.1267"/><g><g><rect class="e" x="488.3355" y="389.068" width="89.352" height="89.352" rx="12.8609" ry="12.8609"/><rect class="e" x="488.3355" y="410.4886" width="89.352" height="67.9315" rx="12.8609" ry="12.8609"/><rect class="e" x="488.3355" y="433.7441" width="89.352" height="44.676" rx="12.8609" ry="12.8609"/></g><g><path class="m" d="M521.1283,463.5613v-15.5649h3.3435v5.606c1.0312-1.0476,2.2529-1.5715,3.665-1.5715,1.5388,0,2.812,.4973,3.8196,1.4917,1.0073,.9946,1.5112,2.4226,1.5112,4.2842,0,1.9255-.5139,3.4082-1.541,4.4487-1.0273,1.0405-2.2749,1.5608-3.7422,1.5608-.7219,0-1.4338-.1611-2.136-.4832s-1.3071-.7979-1.8147-1.428v1.6562h-3.1055Zm3.3198-5.8821c0,1.168,.2061,2.0317,.6187,2.5906,.5791,.793,1.3486,1.1892,2.3083,1.1892,.7378,0,1.3665-.2812,1.886-.844s.7795-1.4492,.7795-2.6597c0-1.2881-.2617-2.2173-.7854-2.7871-.5234-.5696-1.1941-.8547-2.011-.8547-.8013,0-1.4675,.2778-1.999,.8335-.5315,.5559-.7971,1.3999-.7971,2.5322Z"/><path class="m" d="M536.1568,463.5613v-15.5649h3.3435v15.5649h-3.3435Z"/><path class="m" d="M551.2447,463.5613v-1.6882c-.4602,.6018-1.0649,1.0762-1.8147,1.4229-.7495,.3467-1.5408,.5203-2.3738,.5203-.8489,0-1.6106-.1665-2.2847-.499-.6743-.3328-1.1621-.7998-1.4636-1.4016-.3015-.6016-.4521-1.4333-.4521-2.4951v-7.1348h3.3438v5.1812c0,1.5857,.0613,2.5571,.1843,2.9146,.1228,.3574,.3469,.6406,.6724,.8494,.3252,.209,.7378,.3132,1.2375,.3132,.571,0,1.0828-.1396,1.5349-.4194,.4521-.2795,.7615-.6262,.928-1.0405,.1667-.4141,.25-1.428,.25-3.0417v-4.7566h3.3438v11.2756h-3.1057Z"/><path class="m" d="M565.1309,459.9726l3.3318,.499c-.4285,1.0901-1.105,1.9199-2.0288,2.4897-.9243,.5698-2.0806,.8547-3.4688,.8547-2.1973,0-3.8235-.6406-4.8784-1.9219-.833-1.0261-1.2495-2.3215-1.2495-3.886,0-1.8687,.5474-3.332,1.6421-4.3901s2.479-1.5874,4.1528-1.5874c1.8799,0,3.3633,.554,4.4502,1.6616,1.0867,1.1079,1.6064,2.8049,1.5588,5.0911h-8.377c.0237,.885,.2932,1.5732,.8091,2.0652,.5156,.4919,1.1582,.7378,1.9277,.7378,.5234,0,.9636-.1274,1.3208-.3821,.3569-.2549,.6265-.6653,.8091-1.2317Zm.1904-3.0154c-.0239-.8635-.2737-1.52-.7498-1.9695s-1.0552-.6743-1.7373-.6743c-.73,0-1.3328,.2373-1.8086,.7114-.4761,.4744-.71,1.1184-.7021,1.9324h4.9978Z"/></g></g><path class="m" d="M387.0831,493.8127l1.3993-7.22c.6606-3.4089,3.9342-20.1763,3.9342-20.1763,.2682-1.3838-.02-2.7963-.8127-3.9703-.7929-1.174-1.9954-1.9688-3.3864-2.2384l-8.5117-1.6499c-9.3877-1.82-15.5448-10.9382-13.7251-20.3255,.8815-4.5476,3.4812-8.4798,7.32-11.0722,3.839-2.5927,8.4579-3.5344,13.0055-2.653l16.5718,3.212c1.8222,.3539,3.6718-.0245,5.2098-1.0625,1.5378-1.0384,2.5793-2.6137,2.9325-4.4353s-.0245-3.672-1.0629-5.2096c-1.0384-1.538-2.6135-2.5795-4.4351-2.9323l-8.1875-1.587c-8.4979-1.6476-14.0717-9.9013-12.4249-18.3994l1.9576-10.0983-28.4512,6.4411c-2.16,7.2305-7.7172,26.9021-9.0476,42.0693-.7377,8.4095,1.479,17.777,6.2414,26.3761,4.7244,8.5307,11.6378,15.7783,19.4784,20.4234,1.8727,1.0357,2.9818,3.1716,2.6098,5.403l-1.2435,7.4608-6.5191-3.8347c-19.7804-11.6382-32.7851-35.4997-30.9223-56.7369,1.7546-20.0046,10.0124-46.0458,10.363-47.1449l.904-2.8324,49.8225-11.2792-4.9876,25.7305c-.5563,2.8709,1.3267,5.6598,4.1978,6.2161l8.1873,1.587c4.5474,.8815,8.4796,3.4812,11.072,7.3202,2.5925,3.839,3.5346,8.4577,2.6532,13.0053s-3.4812,8.4794-7.32,11.0718c-3.8394,2.5927-8.4585,3.5348-13.0055,2.6533l-16.5718-3.212c-1.8224-.3551-3.672,.0241-5.21,1.0625-1.5378,1.0384-2.5791,2.6137-2.9323,4.4353-.7288,3.7605,1.7377,7.4131,5.4984,8.1418l8.5115,1.6499c4.1168,.7979,7.6762,3.1514,10.0231,6.6264,2.3466,3.4754,3.1997,7.6562,2.4016,11.773-.0008,.0043-1.2839,6.5766-2.4051,12.3258,6.5461-2.0473,12.906-5.4528,18.4293-9.923,7.6224-6.1687,13.1719-14.008,15.6266-22.0733,4.4291-14.5534,6.6592-34.6974,7.3738-42.173l-30.1928-20.9871c-1.699-1.0874-2.6782-3.116-2.3255-5.2317l1.3508-8.1053,42.0223,29.2093-.2278,2.9672c-.0876,1.1402-2.2113,28.1426-8.056,47.3469-3.0529,10.0318-9.8119,19.6658-19.0318,27.1274-9.0107,7.2926-19.9591,12.2066-30.8281,13.837l-7.2728,1.0909Z"/><path class="m" d="M208.7016,172.658l.0458-6.1724c.0216-2.9143,.1476-17.2526,.1476-17.2526,.0088-1.183-.446-2.3043-1.2804-3.1513-.8346-.8469-1.9489-1.3181-3.1381-1.3269l-7.2768-.0542c-8.0258-.06-14.5066-6.6382-14.4469-14.6635,.0289-3.8878,1.5701-7.5317,4.3396-10.2604,2.7695-2.729,6.4362-4.2154,10.324-4.1865l14.1674,.1052c1.5579,.0122,3.026-.5841,4.1356-1.6768,1.1094-1.093,1.7269-2.5528,1.7385-4.1102s-.5841-3.0261-1.6771-4.1354c-1.0931-1.1096-2.5527-1.7271-4.11-1.7384l-6.9996-.052c-7.265-.0544-13.1318-6.0088-13.0781-13.2739l.0644-8.6332-22.4871,9.6844c-.6718,6.2979-2.2362,23.3834-1.0045,36.1028,.6828,7.0524,3.9506,14.4415,9.2009,20.8056,5.2084,6.3135,12.0261,11.232,19.2092,13.8607,1.7043,.567,2.9475,2.1591,2.9833,4.0575l.1198,6.3473-5.9682-2.163c-18.1091-6.5653-32.5046-24.2572-34.2292-42.0671-1.6246-16.7762,1.1899-39.5322,1.3104-40.4929l.3109-2.476,39.3785-16.9588-.1637,21.9974c-.0181,2.4543,1.9639,4.4664,4.4184,4.4845l6.9994,.052c3.8876,.0289,7.5316,1.5702,10.2602,4.3398,2.7288,2.7696,4.2155,6.436,4.1866,10.3238-.0289,3.8878-1.5702,7.5314-4.3396,10.2601-2.7699,2.729-6.4366,4.2158-10.3239,4.1868l-14.1674-.1052c-1.5583-.0131-3.0262,.5838-4.1358,1.6769-1.1094,1.093-1.7267,2.5528-1.7384,4.1101-.0238,3.2149,2.5724,5.85,5.7874,5.8737l7.2766,.0542c3.5195,.0262,6.818,1.4214,9.2882,3.9284,2.4701,2.5073,3.8161,5.8261,3.7898,9.3456,0,.0036-.0494,5.6239-.0915,10.54,5.0871-2.6947,9.8119-6.4814,13.6828-11.0184,5.3422-6.2608,8.7174-13.5816,9.5041-20.6136,1.4195-12.6889,.1659-29.6531-.3926-35.9314l-28.1366-12.6803c-1.5689-.6363-2.6885-2.1599-2.7223-3.9598l-.1303-6.8955,39.1605,17.6481,.2677,2.4834c.1028,.9543,2.4976,23.5613,.6243,40.3053-.9784,8.7466-5.076,17.7341-11.5377,25.307-6.3151,7.4013-14.5945,13.1375-23.3126,16.1522l-5.8336,2.0171Z"/></svg>