<?xml version="1.0" encoding="UTF-8"?><svg xmlns="http://www.w3.org/2000/svg" width="600" height="600" viewBox="0 0 600 600"><defs><style>.e{stroke-width:8.5641px;}.e,.f,.g,.h{fill:none;}.e,.f,.g,.h,.i{stroke:#fff;stroke-miterlimit:10;}.e,.i{stroke-linecap:round;}.j{fill:#fff;}.f,.i{stroke-width:8.5982px;}.g{stroke-width:10.247px;}.h{stroke-width:10.2805px;}.i{fill:#1d1d1b;}</style></defs><g id="c"><g><path class="f" d="M136.3194,49.6629h0c8.2257-1.9583,16.4833,3.1151,18.4539,11.3378l69.5235,290.1126-4.7542,54.8534-25.065-47.7542L124.9647,68.1441c-1.9747-8.24,3.1117-16.5188,11.3547-18.4813Z"/><path class="i" d="M224.2967,351.1133s-3.9609-9.8937-16.9916-7.2434"/></g><g><path class="h" d="M226.9593,264.8138l-12.7146,16.3705,28.5836,48.6734h-18.9763s-2-5.8045,15.4699-5.8045"/><path class="h" d="M344.6517,277.6149l-30.6797,52.2428h22.9763s0-5.8045-17.4699-5.8045"/><path class="g" d="M367.0693,172.2955c-10.1717-37.5917-44.5216-65.247-85.3308-65.247-48.8175,0-88.3918,39.5744-88.3918,88.3918,0,48.8175,39.5744,88.3918,88.3918,88.3918,20.5768,0,39.5113-7.031,54.5323-18.8216"/></g><line class="e" x1="141.1333" y1="156.6997" x2="172.8422" y2="167.0782"/><line class="e" x1="141.1333" y1="170.6717" x2="172.8422" y2="181.0503"/><line class="e" x1="141.1333" y1="184.6437" x2="172.8422" y2="195.0223"/><line class="e" x1="181.4225" y1="146.0023" x2="174.6697" y2="155.7938"/><polyline class="h" points="224.2967 361.9356 386.2681 361.9356 430.188 549.2265 133.2892 549.2265 177.2091 361.9356 196.4317 361.9356"/><path class="j" d="M376.6058,471.1776c-2.7051,.2417-5.4377-3.1636-8.0371-4.063-3.3398-1.1562-6.7036-.7725-9.9714,.4551-2.6528,.9971-5.1011,2.7783-7.8193,3.5498-3.5974,1.021-4.999-2.6782-7.9866-4.248-6.0825-3.1953-11.7368,.4355-17.4619,2.439-3.731,1.3057-4.5742-.4663-7.8154-2.1685-3.8655-2.0298-8.3677-1.7061-12.4116-.396-3.5007,1.1338-6.6682,3.3042-10.2695,4.1157-4.7231,1.064-6.9663-3.5815-11.3052-4.7158-3.6492-.9541-7.3669-.0352-10.7544,1.3921-2.9419,1.2397-8.1875,5.4849-11.6204,4.3345-1.5742-.5278-2.7551-2.252-4.3774-2.8745-1.5195-.583-3.1514-.6411-4.7327-.3037-4.209,.8975-7.2952,4.228-11.0786,6.106-3.2109,1.5938-7.0991,2.7925-10.6816,1.8716-4.2473-1.0913-7.1174-5.1025-10.7686-7.3057-3.4282-2.0684-7.8594-3.3125-11.8169-2.0942-1.8918,.583-3.5056,1.7036-4.9622,3.0054-2.2583,2.0186-2.0999,2.1309-4.989,.8628-7.75-3.4023-16.6094-3.9111-21.6992,4.0259-3.4841,5.4331,5.1677,10.4536,8.6348,5.0469,2.1001-3.2749,6.7595-.9917,9.3789,.2427,3.4932,1.646,6.9824,2.9683,10.7112,1.0933,2.5457-1.2803,4.3333-4.9644,7.3477-4.6108,3.7842,.4443,7.0972,5.1606,10.2136,7.0801,6.4985,4.0029,14.269,3.4609,21.0791,.5928,1.6013-.6743,3.145-1.4219,4.6404-2.3135,1.3013-.7754,3.0547-2.6299,4.4514-3.0264,1.8308-.5205,2.491,.7275,4.1401,1.5068,1.6282,.769,3.3965,1.1445,5.1943,1.1572,3.606,.0259,7.0442-1.3037,10.2285-2.8848,4.3362-2.1523,7.4626-4.7012,11.697-1.1631,6.0503,5.0547,13.3015,3.2021,19.8782,.2515,4.1006-1.8394,7.3459-3.5415,11.3071-.7021,2.5371,1.8184,5.2622,2.7451,8.4048,2.5381,4.6929-.3086,11.9692-6.3789,15.9075-3.3281,3.0042,2.3276,4.9692,4.6782,9.0879,4.8682,3.4399,.1582,6.5623-1.2456,9.6011-2.686,2.8088-1.332,5.4529-3.2598,8.4558-1.6914,3.5344,1.8462,5.8608,4.4287,10.1997,4.0405,6.3586-.5688,6.4185-10.5742,0-10Z"/><path class="j" d="M365.9034,412.9625c-2.0808-4.6528-7.718-5.4824-12.0696-3.7896-2.3943,.9312-4.0137,2.6504-5.8501,4.3706-2.5859,2.4229-3.636,1.5054-6.2852-.4482-4.0505-2.9878-8.2822-5.9155-13.6016-4.48-2.3577,.6357-4.353,2.0947-6.178,3.6577-1.679,1.438-3.3823,3.8696-5.7585,3.9585-4.1316,.1553-9.0076-4.8931-12.7563-6.4307-5.1699-2.1211-10.1169-1.4277-14.7576,1.6016-1.5286,.9976-4.0271,3.7295-5.9612,3.7168-2.115-.0142-4.5483-3.4199-6.2573-4.5078-5.1746-3.2944-10.7493-2.0386-15.4468,1.4609-1.3398,.998-2.5542,2.1567-3.9048,3.1367-1.9751,1.4326-2.8135,1.9824-4.7529,.5078-2.6226-1.9941-3.842-4.1738-7.3604-4.897-3.3438-.6875-6.8086,.4204-9.6936,2.0825-.6677,.3848-7.9829,5.7544-8.321,4.688-1.9385-6.1118-11.5962-3.5005-9.6428,2.6587,1.6711,5.269,6.8345,8.1519,12.2979,7.1523,2.8489-.521,5.2468-2.0278,7.5691-3.6841,1.1721-.8359,2.4351-2.0835,3.8083-2.5728,2.3831-.8491,2.676,.1133,4.2715,1.6431,4.6353,4.4453,9.907,5.2007,15.5754,1.9224,2.5396-1.4688,4.4695-3.7959,6.9912-5.2568,3.1899-1.8477,4.9365,1.1855,7.4053,2.9712,4.5359,3.2812,9.5317,3.3125,14.3269,.5005,2.1553-1.2637,4.3403-3.79,6.8491-4.332,2.2664-.4893,4.375,.9077,6.2634,2.0254,4.3198,2.5566,8.6211,5.7002,13.8826,5.625,5.9961-.0859,8.2939-4.543,12.8823-7.2266,3.8225-2.2354,9.655,5.168,13.8298,6.1064,3.1274,.7031,6.2378-.1729,8.8301-1.9482,1.2776-.875,2.3242-1.9761,3.438-3.0366,.4424-.4214,.8457-.958,1.3677-1.2876,.3467-.2192,.5264-.3115,.6157-.3652,2.8677,5.0942,10.9263,.1411,8.3933-5.5229Z"/></g><g id="d"><path class="j" d="M379.7844,302.4673l1.6218-8.368c.7657-3.951,4.5597-23.3845,4.5597-23.3845,.3109-1.6038-.0232-3.2409-.9419-4.6016-.919-1.3607-2.3127-2.2819-3.9249-2.5944l-9.8651-1.9122c-10.8804-2.1095-18.0165-12.6774-15.9076-23.5574,1.0216-5.2707,4.0347-9.8282,8.484-12.8328,4.4494-3.005,9.8028-4.0964,15.0735-3.0748l19.2068,3.7227c2.1119,.4102,4.2556-.0284,6.0382-1.2315,1.7823-1.2035,2.9895-3.0293,3.3988-5.1406,.4093-2.1113-.0284-4.2558-1.2319-6.0379-1.2035-1.7826-3.0291-2.9897-5.1403-3.3985l-9.4894-1.8393c-9.8491-1.9095-16.3092-11.4757-14.4005-21.325l2.2688-11.704-32.9752,7.4652c-2.5034,8.3802-8.9443,31.1798-10.4862,48.7587-.855,9.7467,1.7141,20.6037,7.2338,30.5701,5.4756,9.8872,13.4883,18.2872,22.5756,23.6709,2.1705,1.2004,3.4559,3.6759,3.0248,6.2622l-1.4413,8.6472-7.5557-4.4445c-22.9257-13.4888-37.9982-41.1444-35.8393-65.7586,2.0336-23.1855,11.6045-53.3675,12.0108-54.6413l1.0477-3.2828,57.7447-13.0727-5.7806,29.8218c-.6448,3.3274,1.5376,6.5598,4.8652,7.2045l9.4891,1.8393c5.2705,1.0216,9.828,4.0347,12.8325,8.4842,3.0048,4.4494,4.0967,9.8025,3.075,15.0732-1.0216,5.2707-4.0347,9.8277-8.484,12.8323-4.4499,3.005-9.8034,4.0969-15.0735,3.0752l-19.2068-3.7227c-2.1122-.4115-4.2558,.0279-6.0384,1.2315-1.7823,1.2035-2.9893,3.0293-3.3985,5.1406-.8447,4.3585,2.014,8.5918,6.3727,9.4365l9.8649,1.9122c4.7714,.9248,8.8968,3.6525,11.6168,7.68,2.7198,4.028,3.7085,8.8736,2.7835,13.645-.0009,.005-1.4881,7.6224-2.7875,14.2857,7.587-2.3728,14.9582-6.3198,21.3597-11.5009,8.8345-7.1496,15.2664-16.2353,18.1113-25.5831,5.1334-16.8675,7.7181-40.2146,8.5463-48.8789l-34.9937-24.3242c-1.9692-1.2603-3.1041-3.6115-2.6952-6.0636l1.5655-9.3941,48.7042,33.8539-.2641,3.4391c-.1015,1.3215-2.5629,32.6175-9.337,54.8754-3.5383,11.627-11.3721,22.7929-22.058,31.4409-10.4435,8.4522-23.1328,14.1475-35.7301,16.0372l-8.4292,1.2643Z"/></g></svg>