<?xml version="1.0" encoding="UTF-8"?><svg id="c" xmlns="http://www.w3.org/2000/svg" width="600" height="600" viewBox="0 0 600 600"><defs><style>.e,.f{fill:#fff;}.g{stroke-linejoin:bevel;}.g,.h{stroke-linecap:round;}.g,.h,.i,.j{fill:none;}.g,.h,.i,.j,.f{stroke:#fff;}.g,.h,.j{stroke-width:10.101px;}.h,.i,.j,.f{stroke-miterlimit:10;}.i{stroke-width:10.1341px;}.f{stroke-width:7.296px;}</style></defs><g><g><path class="i" d="M349.8409,471.6926l-12.5334,16.1371,28.1764,47.9801h-20.706s0-5.7218,17.2211-5.7218"/><path class="i" d="M463.7907,487.8297l-28.1764,47.9801h20.0462s0-5.7218-17.2211-5.7218"/><path class="j" d="M486.1121,374.54c-11.8829-33.9868-44.2305-58.3656-82.2721-58.3656-32.4169,0-60.6992,17.7026-75.7068,43.968-7.2708,12.7249-11.4259,27.4596-11.4259,43.1647,0,48.1221,39.0107,87.1327,87.1327,87.1327,18.5289,0,35.707-5.7835,49.8274-15.6438"/></g><path class="e" d="M500.6042,507.3255l.3464-8.3952c.1634-3.9638,.9948-23.4645,.9948-23.4645,.0664-1.609-.5007-3.1554-1.5968-4.3461-1.0964-1.1906-2.5907-1.8829-4.2081-1.9497l-9.8972-.4086c-10.9159-.451-19.43-9.6985-18.9793-20.6139,.2183-5.2878,2.4827-10.1743,6.376-13.759,3.8934-3.5852,8.9501-5.4386,14.2379-5.2203l19.2692,.7952c2.1189,.0883,4.1436-.6554,5.7035-2.0909,1.5596-1.4359,2.4669-3.3935,2.5543-5.5116,.0875-2.1181-.6554-4.1438-2.0913-5.7032-1.436-1.5599-3.3933-2.4671-5.5114-2.5542l-9.5202-.3929c-9.8812-.4083-17.5886-8.7791-17.1812-18.6604l.4849-11.742-31.0383,12.1402c-1.2038,8.5371-4.1183,31.7089-3.0281,49.0698,.6044,9.6258,4.7099,19.8287,11.5599,28.7283,6.7952,8.8289,15.844,15.834,25.4951,19.7408,2.2925,.8498,3.9106,3.0729,3.8719,5.6573l-.1292,8.6406-8.0199-3.2173c-24.3344-9.7652-43.1044-34.4966-44.631-58.8054-1.438-22.8979,3.4382-53.7267,3.6463-55.0282l.5369-3.3542,54.3529-21.2593-1.2351,29.9187c-.1376,3.3382,2.4663,6.1667,5.8047,6.3043l9.52,.3929c5.2876,.2183,10.1741,2.4828,13.7588,6.3762,3.585,3.8934,5.4388,8.9498,5.2205,14.2376s-2.4828,10.1738-6.3761,13.7585c-3.8938,3.5852-8.9506,5.4391-14.2378,5.2208l-19.2692-.7952c-2.1193-.0895-4.1438,.655-5.7037,2.091-1.5596,1.4359-2.4666,3.3935-2.5541,5.5116-.1804,4.3726,3.2303,8.077,7.6032,8.2573l9.8969,.4086c4.7869,.1976,9.2101,2.2475,12.4553,5.7718,3.245,3.5247,4.9235,8.1017,4.7257,12.8886-.0001,.005-.326,7.6487-.6096,14.3349,7.0447-3.4319,13.6469-8.3661,19.1219-14.3602,7.5559-8.2716,12.4846-18.0758,13.8786-27.6063,2.5152-17.1972,1.5904-40.3339,1.1196-48.9008l-37.6949-18.5458c-2.1052-.9379-3.5581-3.0621-3.5214-5.5124l.1401-9.387,52.4636,25.8116,.2499,3.3909c.096,1.303,2.3135,32.1689-1.0057,54.862-1.7336,11.8542-7.7217,23.8927-16.8612,33.8979-8.932,9.7785-20.4597,17.2013-32.4589,20.9013l-8.0291,2.4757Z"/><path class="h" d="M213.502,186.7016c7.5987,6.6004,34.2541,35.0368,34.2541,35.0368l-3.4944,22.1307,87.9754,105.3076"/><polyline class="g" points="244.2617 243.8692 228.3432 232.0242 229.8408 218.9097"/></g><path class="f" d="M186.2345,88.1558H84.7243c-7.5298,0-14.3499,3.0503-19.2798,7.9902-4.9402,4.9302-7.9902,11.75-7.9902,19.2798,0,15.0601,12.2102,27.27,27.27,27.27h101.5103c7.5298,0,14.3499-3.0498,19.2798-7.9897,4.9399-4.9302,7.99-11.75,7.99-19.2803,0-15.0596-12.21-27.27-27.2698-27.27Zm0,53.8901c-14.7102,0-26.6301-11.9199-26.6301-26.6201,0-14.71,11.9199-26.6299,26.6301-26.6299,14.6997,0,26.6199,11.9199,26.6199,26.6299,0,14.7002-11.9202,26.6201-26.6199,26.6201Z"/><g><path class="e" d="M263.2643,106.0673h-10.5156l-2.3613,6.5505h-3.4131l9.5845-25.099h2.896l9.6016,25.099h-3.396l-2.396-6.5505Zm-9.5156-2.7236h8.5327l-4.2749-11.7393-4.2578,11.7393Z"/><path class="e" d="M271.1593,103.1368c0-1.4248,.1748-2.7207,.5259-3.8872,.3501-1.1663,.8472-2.1661,1.4907-2.9995,.6436-.833,1.4165-1.4795,2.3188-1.9393,.9019-.4595,1.9106-.6895,3.0254-.6895,1.1377,0,2.1313,.1925,2.9819,.5775,.8506,.3851,1.5859,.9395,2.2065,1.6635v-9.7224h3.189v26.478h-2.9302l-.1553-1.9996c-.6206,.7584-1.3677,1.3389-2.2407,1.7411-.8735,.4021-1.9023,.6033-3.0859,.6033-1.0918,0-2.0889-.2356-2.9907-.7068-.9023-.4711-1.6753-1.129-2.3188-1.9738-.6436-.8446-1.1406-1.8445-1.4907-2.9994-.3511-1.155-.5259-2.4161-.5259-3.7838v-.3621Zm3.189,.3621c0,.9308,.0947,1.8073,.2847,2.6288,.1895,.8218,.4854,1.5372,.8877,2.1462,.4019,.6093,.9136,1.0919,1.5342,1.448,.6206,.3563,1.3618,.5343,2.2236,.5343,.563,0,1.0688-.0659,1.5171-.1982,.4482-.132,.853-.3188,1.2153-.5602,.3618-.2413,.6836-.5284,.9653-.8619,.2812-.3331,.5259-.7008,.7324-1.1033v-8.5674c-.2065-.3793-.4482-.7297-.7241-1.0515-.2754-.3217-.5947-.6005-.9565-.8361-.3618-.2355-.7671-.4194-1.2153-.5516-.4482-.132-.9482-.1982-1.4995-.1982-.8735,0-1.6235,.181-2.2495,.543-.627,.3621-1.1411,.8533-1.543,1.4739-.4023,.6206-.6982,1.3419-.8877,2.1635-.1899,.8218-.2847,1.6979-.2847,2.6288v.3621Z"/><path class="e" d="M297.9992,108.2911l4.6201-14.3251h3.2578l-6.6885,18.6519h-2.4307l-6.7573-18.6519h3.2578l4.7407,14.3251Z"/><path class="e" d="M320.2023,112.6179c-.1152-.2297-.207-.5199-.2759-.8705-.0688-.3505-.1265-.7155-.1724-1.0947-.2993,.3103-.6353,.6063-1.0088,.8878-.3735,.2817-.7812,.5287-1.2236,.7412-.4424,.2128-.9224,.3793-1.4395,.5-.5171,.1206-1.063,.1809-1.6377,.1809-.9541,0-1.8184-.1438-2.5942-.4309s-1.437-.678-1.9824-1.1722c-.5459-.494-.9683-1.0774-1.2671-1.7496-.2988-.6724-.4482-1.3933-.4482-2.1635,0-.9998,.1953-1.8816,.5859-2.6461,.3906-.764,.9512-1.4049,1.6812-1.922,.7295-.5172,1.6118-.9077,2.646-1.1722,1.0342-.2642,2.189-.3965,3.4648-.3965h3.1719v-1.4652c0-1.1146-.3335-2.0023-1-2.6633-.6665-.6608-1.6489-.9912-2.9478-.9912-.5977,0-1.1436,.0806-1.6377,.2413-.4941,.1611-.9165,.3766-1.2671,.6465-.3506,.2701-.6235,.5834-.8184,.9395-.1958,.3563-.2935,.73-.2935,1.1205h-3.2061c0-.6664,.1748-1.3274,.5259-1.9824,.3501-.655,.8472-1.2438,1.4907-1.767,.6436-.5227,1.4224-.948,2.3359-1.2756,.9136-.3275,1.9336-.4912,3.0601-.4912,1.0107,0,1.9448,.1293,2.8008,.3878,.8564,.2585,1.5889,.6494,2.1982,1.1722,.6089,.5231,1.0859,1.1752,1.4307,1.9565,.3447,.7816,.5171,1.6953,.5171,2.7408v8.6709c0,.6322,.0547,1.2958,.1636,1.991,.1094,.6956,.2729,1.2959,.4917,1.8015v.2758h-3.3442Zm-5.2925-2.4305c.5747,0,1.1147-.0803,1.6206-.2413,.5054-.1609,.9653-.3707,1.3789-.6293,.4141-.2585,.7729-.5543,1.0776-.8878,.3042-.3331,.543-.6779,.7153-1.0342v-3.8269h-2.6548c-1.8271,0-3.2354,.2844-4.2231,.8533-.9888,.5688-1.4829,1.4281-1.4829,2.5771,0,.4481,.0747,.8678,.2241,1.2583,.1494,.3909,.3765,.7271,.6812,1.0084,.3042,.2817,.6777,.5059,1.1206,.6724,.4419,.1667,.9565,.25,1.5425,.25Z"/><path class="e" d="M330.9074,93.966l.1035,2.3445c.666-.8389,1.4707-1.4968,2.4131-1.9739,.9424-.4767,1.9995-.7153,3.1719-.7153,.9077,0,1.7295,.1237,2.4653,.3706,.7354,.2473,1.3618,.6438,1.8789,1.1895,.5171,.5459,.916,1.2471,1.1978,2.103,.2817,.8563,.4224,1.8936,.4224,3.1116v12.2219h-3.189v-12.2565c0-.724-.0806-1.3416-.2412-1.853-.1611-.5112-.3994-.928-.7153-1.2499-.3164-.3215-.707-.5573-1.1724-.7067-.4653-.1493-1.0029-.2241-1.6118-.2241-1.0342,0-1.9424,.2758-2.7236,.8274-.7817,.5516-1.3906,1.2756-1.8271,2.172v13.2908h-3.189v-18.6519h3.0166Z"/><path class="e" d="M354.8517,110.3597c.5625,0,1.103-.0919,1.6201-.2759,.5171-.1837,.9741-.4366,1.3706-.7584,.3965-.3217,.7178-.7039,.9653-1.1464,.2471-.4423,.3936-.9222,.4395-1.4395h3.0166c-.0459,.8275-.2729,1.6178-.6807,2.3704-.4082,.7528-.9453,1.4135-1.6118,1.9823-.6665,.569-1.4395,1.0231-2.3188,1.3618-.8789,.3389-1.813,.5085-2.8008,.5085-1.4023,0-2.6235-.2499-3.6636-.7499-1.04-.4999-1.9048-1.1748-2.5942-2.0254-.6895-.8503-1.2041-1.8386-1.543-2.9651-.3389-1.1261-.5083-2.3156-.5083-3.5682v-.724c0-1.2526,.1694-2.442,.5083-3.5684,.3389-1.1262,.8535-2.1144,1.543-2.965,.6895-.8503,1.5518-1.5256,2.5859-2.0255,1.0342-.5,2.252-.7499,3.6543-.7499,1.0918,0,2.083,.1724,2.9736,.5171,.8906,.3448,1.6606,.8188,2.3101,1.4222,.6489,.6033,1.1577,1.3187,1.5254,2.1461s.5747,1.7181,.6206,2.672h-3.0166c-.0459-.5746-.1812-1.1119-.4053-1.6118s-.5254-.9365-.9048-1.3102c-.3794-.3733-.8306-.6693-1.353-.8877-.5234-.2181-1.1064-.3275-1.75-.3275-.9883,0-1.8071,.1956-2.4565,.5861-.6494,.3909-1.1719,.905-1.5684,1.5428s-.6753,1.3562-.8364,2.1548c-.1606,.7988-.2412,1.6005-.2412,2.4048v.724c0,.8274,.0806,1.6405,.2412,2.4392,.1611,.7988,.437,1.5143,.8276,2.1461,.3906,.6322,.9136,1.1437,1.5688,1.5342,.6548,.3909,1.4824,.5862,2.4824,.5862Z"/><path class="e" d="M373.5895,112.9626c-1.2988,0-2.4736-.224-3.5254-.6722-1.0513-.4482-1.9507-1.0715-2.6978-1.8704-.7471-.7986-1.3218-1.7496-1.7236-2.8529-.4023-1.1033-.6035-2.3099-.6035-3.6201v-.724c0-1.517,.2271-2.8728,.6812-4.0682,.4536-1.1951,1.0601-2.2006,1.8184-3.0167,.7588-.8158,1.6265-1.4393,2.603-1.8704,.9766-.4309,1.9937-.6464,3.0513-.6464,1.333,0,2.4824,.2327,3.4478,.6981s1.7607,1.1062,2.3872,1.9221c.6265,.816,1.0889,1.7814,1.3877,2.896,.2988,1.1149,.4482,2.3271,.4482,3.6373v1.4308h-12.6353c.0225,.8618,.1636,1.6664,.4219,2.4133,.2588,.7472,.6265,1.3962,1.1035,1.9479,.4766,.5516,1.0513,.9885,1.7236,1.3102,.6724,.3218,1.4336,.4827,2.2842,.4827,1.126,0,2.0801-.2297,2.8618-.6896,.7812-.4595,1.4648-1.0687,2.0513-1.8273l1.9478,1.517c-.2988,.4598-.6611,.905-1.0859,1.3359-.4253,.431-.9224,.8162-1.4912,1.155-.5688,.3391-1.2212,.6093-1.9565,.8102s-1.5688,.3016-2.4995,.3016Zm-.3965-16.7211c-.6436,0-1.2354,.1179-1.7754,.3534-.5405,.2356-1.0229,.5774-1.4482,1.0256s-.7788,1.0057-1.0601,1.6721c-.2817,.6666-.4741,1.4308-.5776,2.2927h9.3433v-.2413c-.0342-.6206-.1353-1.2352-.3018-1.8445-.1665-.609-.4253-1.155-.7754-1.6377-.3511-.4827-.8018-.8732-1.3535-1.1722-.5513-.2987-1.2354-.4481-2.0513-.4481Z"/><path class="e" d="M383.7775,103.1368c0-1.4248,.1748-2.7207,.5259-3.8872,.3501-1.1663,.8472-2.1661,1.4907-2.9995,.6436-.833,1.4165-1.4795,2.3188-1.9393,.9019-.4595,1.9106-.6895,3.0254-.6895,1.1377,0,2.1313,.1925,2.9819,.5775,.8506,.3851,1.5859,.9395,2.2065,1.6635v-9.7224h3.189v26.478h-2.9302l-.1553-1.9996c-.6206,.7584-1.3677,1.3389-2.2407,1.7411-.8735,.4021-1.9023,.6033-3.0859,.6033-1.0918,0-2.0889-.2356-2.9907-.7068-.9023-.4711-1.6753-1.129-2.3188-1.9738-.6436-.8446-1.1406-1.8445-1.4907-2.9994-.3511-1.155-.5259-2.4161-.5259-3.7838v-.3621Zm3.189,.3621c0,.9308,.0947,1.8073,.2847,2.6288,.1895,.8218,.4854,1.5372,.8877,2.1462,.4019,.6093,.9136,1.0919,1.5342,1.448,.6206,.3563,1.3618,.5343,2.2236,.5343,.563,0,1.0688-.0659,1.5171-.1982,.4482-.132,.853-.3188,1.2153-.5602,.3618-.2413,.6836-.5284,.9653-.8619,.2812-.3331,.5259-.7008,.7324-1.1033v-8.5674c-.2065-.3793-.4482-.7297-.7241-1.0515-.2754-.3217-.5947-.6005-.9565-.8361-.3618-.2355-.7671-.4194-1.2153-.5516-.4482-.132-.9482-.1982-1.4995-.1982-.8735,0-1.6235,.181-2.2495,.543-.627,.3621-1.1411,.8533-1.543,1.4739-.4023,.6206-.6982,1.3419-.8877,2.1635-.1899,.8218-.2847,1.6979-.2847,2.6288v.3621Z"/><path class="e" d="M253.6798,119.9201l8.2051,20.4791,8.2056-20.4791h4.2925v25.099h-3.3096v-9.7742l.3101-10.5498-8.2397,20.324h-2.5342l-8.2227-20.2722,.3276,10.498v9.7742h-3.3101v-25.099h4.2754Z"/><path class="e" d="M278.8825,135.5208c0-1.356,.1982-2.6116,.5947-3.7666,.3965-1.1549,.9595-2.1575,1.689-3.0081,.73-.8503,1.6177-1.517,2.6636-1.9996,1.0454-.4827,2.2178-.724,3.5166-.724,1.3213,0,2.5083,.2413,3.5596,.724,1.0518,.4827,1.9453,1.1493,2.6807,1.9996,.7354,.8506,1.2983,1.8531,1.6895,3.0081,.3906,1.155,.5859,2.4106,.5859,3.7666v.3793c0,1.3561-.1953,2.6116-.5859,3.7665-.3911,1.155-.9541,2.1548-1.6895,2.9995s-1.6265,1.5056-2.6719,1.9824c-1.0459,.4767-2.2236,.7153-3.5337,.7153s-2.4883-.2386-3.5342-.7153c-1.0459-.4768-1.9365-1.1377-2.6719-1.9824s-1.3013-1.8445-1.6978-2.9995c-.3965-1.1549-.5947-2.4104-.5947-3.7665v-.3793Zm3.2061,.3793c0,.9308,.1094,1.8099,.3276,2.6375,.2183,.8274,.5488,1.5543,.9912,2.1807,.4424,.6265,.9937,1.1234,1.6548,1.4911,.6606,.3679,1.4336,.5516,2.3188,.5516,.873,0,1.6431-.1837,2.3096-.5516,.6665-.3677,1.2183-.8646,1.6548-1.4911,.437-.6263,.7676-1.3533,.9912-2.1807,.2241-.8275,.3364-1.7067,.3364-2.6375v-.3793c0-.9193-.1123-1.7955-.3364-2.6289-.2236-.833-.5571-1.5627-.9995-2.1892-.4424-.6262-.9971-1.1261-1.6636-1.4998-.6665-.3733-1.4424-.5602-2.3271-.5602-.8735,0-1.6377,.1869-2.2925,.5602-.6553,.3737-1.2041,.8735-1.6465,1.4998-.4424,.6265-.7729,1.3562-.9912,2.1892-.2183,.8334-.3276,1.7096-.3276,2.6289v.3793Z"/><path class="e" d="M299.0856,135.538c0-1.4248,.1748-2.7207,.5259-3.8872,.3501-1.1663,.8472-2.1661,1.4907-2.9995,.6436-.833,1.4165-1.4795,2.3188-1.9393,.9019-.4595,1.9106-.6895,3.0254-.6895,1.1377,0,2.1313,.1925,2.9819,.5775,.8506,.3851,1.5859,.9395,2.2065,1.6635v-9.7224h3.189v26.478h-2.9302l-.1553-1.9996c-.6206,.7584-1.3677,1.3389-2.2407,1.7411-.8735,.4021-1.9023,.6033-3.0859,.6033-1.0918,0-2.0889-.2356-2.9907-.7068-.9023-.4711-1.6753-1.129-2.3188-1.9738-.6436-.8446-1.1406-1.8445-1.4907-2.9994-.3511-1.155-.5259-2.4161-.5259-3.7838v-.3621Zm3.189,.3621c0,.9308,.0947,1.8073,.2847,2.6288,.1895,.8218,.4854,1.5372,.8877,2.1462,.4019,.6093,.9136,1.0919,1.5342,1.448,.6206,.3563,1.3618,.5343,2.2236,.5343,.563,0,1.0688-.0659,1.5171-.1982,.4482-.132,.853-.3188,1.2153-.5602,.3618-.2413,.6836-.5284,.9653-.8619,.2812-.3331,.5259-.7008,.7324-1.1033v-8.5674c-.2065-.3793-.4482-.7297-.7241-1.0515-.2754-.3217-.5947-.6005-.9565-.8361-.3618-.2355-.7671-.4194-1.2153-.5516-.4482-.132-.9482-.1982-1.4995-.1982-.8735,0-1.6235,.181-2.2495,.543-.627,.3621-1.1411,.8533-1.543,1.4739-.4023,.6206-.6982,1.3419-.8877,2.1635-.1899,.8218-.2847,1.6979-.2847,2.6288v.3621Z"/><path class="e" d="M327.5114,145.3638c-1.2988,0-2.4736-.224-3.5254-.6722-1.0513-.4482-1.9507-1.0715-2.6978-1.8704-.7471-.7986-1.3218-1.7496-1.7236-2.8529-.4023-1.1033-.6035-2.3099-.6035-3.6201v-.724c0-1.517,.2271-2.8728,.6812-4.0682,.4536-1.1951,1.0601-2.2006,1.8184-3.0167,.7588-.8158,1.6265-1.4393,2.603-1.8704,.9766-.4309,1.9937-.6464,3.0513-.6464,1.333,0,2.4824,.2327,3.4478,.6981s1.7607,1.1062,2.3872,1.9221c.6265,.816,1.0889,1.7814,1.3877,2.896,.2988,1.1149,.4482,2.3271,.4482,3.6373v1.4308h-12.6353c.0225,.8618,.1636,1.6664,.4219,2.4133,.2588,.7472,.6265,1.3962,1.1035,1.9479,.4766,.5516,1.0513,.9885,1.7236,1.3102,.6724,.3218,1.4336,.4827,2.2842,.4827,1.126,0,2.0801-.2297,2.8618-.6896,.7812-.4595,1.4648-1.0687,2.0513-1.8273l1.9478,1.517c-.2988,.4598-.6611,.905-1.0859,1.3359-.4253,.431-.9224,.8162-1.4912,1.155-.5688,.3391-1.2212,.6093-1.9565,.8102s-1.5688,.3016-2.4995,.3016Zm-.3965-16.7211c-.6436,0-1.2354,.1179-1.7754,.3534-.5405,.2356-1.0229,.5774-1.4482,1.0256s-.7788,1.0057-1.0601,1.6721c-.2817,.6666-.4741,1.4308-.5776,2.2927h9.3433v-.2413c-.0342-.6206-.1353-1.2352-.3018-1.8445-.1665-.609-.4253-1.155-.7754-1.6377-.3511-.4827-.8018-.8732-1.3535-1.1722-.5513-.2987-1.2354-.4481-2.0513-.4481Z"/></g></svg>