<?xml version="1.0" encoding="utf-8"?>
<!-- Generator: Adobe Illustrator 23.0.0, SVG Export Plug-In . SVG Version: 6.00 Build 0)  -->
<svg version="1.1" id="Layer_1" xmlns="http://www.w3.org/2000/svg" xmlns:xlink="http://www.w3.org/1999/xlink" x="0px" y="0px"
	 viewBox="0 0 881.9 1274.4" style="enable-background:new 0 0 881.9 1274.4;" xml:space="preserve">
<style type="text/css">
	.st0{fill:#00E8CC;}
	.st1{fill:#50239F;}
	.st2{fill:none;stroke:#321664;stroke-width:12.9538;stroke-miterlimit:10;}
	.st3{fill:#FFFFFF;stroke:#00E8CC;stroke-width:4.9536;stroke-miterlimit:10;}
	.st4{fill:#8DFFF1;}
	.st5{fill:#00BBA4;}
	
		.st6{fill:none;stroke:#FFFFFF;stroke-width:4.0058;stroke-linecap:round;stroke-linejoin:round;stroke-miterlimit:10;stroke-dasharray:56.5521,16.73,26.1553,18.3794;}
	.st7{clip-path:url(#SVGID_2_);fill:#321664;}
	.st8{fill:none;stroke:#50239F;stroke-width:12.9538;stroke-miterlimit:10;}
	.st9{fill:#4D2E9A;}
	.st10{fill:#321664;}
	.st11{clip-path:url(#SVGID_4_);fill:#00E8CC;}
	.st12{fill:#E6E6E6;}
	.st13{fill:none;stroke:#00E8CC;stroke-width:4.477;stroke-linecap:round;stroke-miterlimit:10;}
</style>
<g id="Layer_4">
</g>
<g>
	<g>
		<g>
			<path class="st0" d="M421.8,636.9c-4.3,4.4-8.3,9.1-12,14c-3.1-1.6-6.4-3-9.8-4.2l-174.4-56.6c-0.1,0-0.1,0-0.2-0.1
				c-41.1-14.5-68.8-53.6-68.8-97.2v-56.4c0-5,4-9,9-9s9,4,9,9v56.4c0,36,22.8,68.2,56.6,80.2l174.4,56.6c0.1,0,0.1,0,0.2,0.1
				C411.5,631.7,416.8,634.1,421.8,636.9z"/>
			<path class="st0" d="M474.7,727v381.4c0,5-4,9-9,9s-9-4-9-9V727c0-7.5-1-14.8-2.9-21.8c2.7-7.4,6.7-14.2,11.9-20.1
				C471.5,698,474.7,712.2,474.7,727z"/>
		</g>
		<g>
			<path class="st1" d="M465.7,1117.4c-5,0-9-4-9-9v-92c0-5,4-9,9-9s9,4,9,9v92C474.7,1113.4,470.6,1117.4,465.7,1117.4z
				 M465.7,892.4c-5,0-9-4-9-9s4-9,9-9s9,4,9,9S470.6,892.4,465.7,892.4z M465.7,840.2c-5,0-9-4-9-9v-92c0-5,4-9,9-9s9,4,9,9v92
				C474.7,836.2,470.6,840.2,465.7,840.2z M398.3,645.7L398.3,645.7L398.3,645.7c-1,0-1.9-0.2-2.8-0.4c-4.7-1.5-7.3-6.6-5.8-11.3
				c1.2-3.7,4.6-6.2,8.6-6.2c0.9,0,1.9,0.2,2.8,0.4c2.3,0.7,4.1,2.3,5.2,4.5c1.1,2.2,1.3,4.6,0.5,6.9
				C405.6,643.2,402.2,645.7,398.3,645.7z M348.7,629.6c-1,0-1.9-0.2-2.8-0.4l-87.5-28.4c-4.7-1.5-7.3-6.6-5.8-11.3
				c1.2-3.7,4.7-6.2,8.6-6.2c1,0,1.9,0.2,2.8,0.4l87.5,28.4c2.3,0.7,4.1,2.3,5.2,4.5c1.1,2.1,1.3,4.6,0.5,6.9
				C356,627.1,352.6,629.6,348.7,629.6z M167.2,519.1c-4.3,0-8-3.1-8.8-7.3l0,0c-0.9-4.9,2.3-9.6,7.2-10.5c0.6-0.1,1.1-0.2,1.7-0.2
				c4.3,0,8,3.1,8.8,7.4c0.9,4.9-2.3,9.6-7.2,10.5C168.4,519,167.8,519.1,167.2,519.1z M165.7,467c-5,0-9-4-9-9v-21.6c0-5,4-9,9-9
				s9,4,9,9V458C174.7,463,170.6,467,165.7,467z"/>
		</g>
	</g>
	<g>
		<g>
			<path class="st0" d="M417.7,1274.4c-5,0-9-4-9-9V726c0-43.6,27.6-82.7,68.8-97.2c0.1,0,0.1,0,0.2-0.1L652,572
				c33.9-12,56.7-44.2,56.7-80.2v-56.4c0-5,4-9,9-9s9,4,9,9v56.4c0,43.6-27.6,82.7-68.8,97.2c-0.1,0-0.1,0-0.2,0.1l-174.4,56.6
				c-33.9,12-56.6,44.2-56.6,80.2v539.4C426.7,1270.4,422.6,1274.4,417.7,1274.4z"/>
		</g>
		<g>
			<path class="st1" d="M417.7,1186.8c-5,0-9-4-9-9v-92c0-5,4-9,9-9s9,4,9,9v92C426.7,1182.8,422.6,1186.8,417.7,1186.8z
				 M417.7,1042.6c-5,0-9-4-9-9s4-9,9-9s9,4,9,9S422.6,1042.6,417.7,1042.6z M417.7,909.6c-5,0-9-4-9-9v-92c0-5,4-9,9-9s9,4,9,9v92
				C426.7,905.6,422.6,909.6,417.7,909.6z M417.7,765.5c-5,0-9-4-9-9s4-9,9-9s9,4,9,9S422.6,765.5,417.7,765.5z M468.2,651.6
				c-3.4,0-6.4-1.8-8-4.8c-2.3-4.4-0.6-9.8,3.8-12.1c4.3-2.3,8.8-4.2,13.4-5.8l0.1,0l74.9-24.3c0.9-0.3,1.8-0.4,2.8-0.4
				c3.9,0,7.3,2.5,8.6,6.2c1.5,4.7-1.1,9.8-5.8,11.3l-74.7,24.2c-3.8,1.3-7.5,3-11,4.8C471,651.2,469.6,651.6,468.2,651.6z
				 M604.8,605.8c-3.9,0-7.3-2.5-8.6-6.2c-1.5-4.7,1.1-9.8,5.8-11.3c0.9-0.3,1.8-0.4,2.8-0.4c3.9,0,7.3,2.5,8.5,6.2
				c0.8,2.3,0.5,4.7-0.5,6.9c-1.1,2.2-3,3.7-5.2,4.5C606.7,605.7,605.7,605.8,604.8,605.8z M711,535.6c-1.1,0-2.2-0.2-3.3-0.6
				c-2.2-0.9-4-2.6-4.9-4.8s-1-4.7-0.1-6.9c4-10,6-20.6,6-31.4v-56.4c0-5,4-9,9-9s9,4,9,9v56.4c0,13.1-2.4,25.9-7.3,38
				C718,533.3,714.8,535.6,711,535.6z"/>
		</g>
	</g>
	<g>
		<path class="st1" d="M165.7,445.4c-5,0-9-4-9-9V249.9c0-5,4-9,9-9s9,4,9,9v186.5C174.7,441.4,170.6,445.4,165.7,445.4z"/>
	</g>
	<path class="st2" d="M718.2,291.9c-13.6,0-24.7-11-24.7-24.7V200"/>
	<g>
		<path class="st1" d="M717.7,465.9c-5,0-9-4-9-9V294.5c0-5,4-9,9-9s9,4,9,9v162.4C726.7,461.9,722.6,465.9,717.7,465.9z"/>
	</g>
	<path class="st3" d="M662,168v-44.5c0-25,20.2-45.2,45.2-45.2h20.9c25,0,45.2,20.2,45.2,45.2V168H662z"/>
	<path class="st0" d="M776.6,170.9v33c0,26.6-21.6,48.2-48.2,48.2h-22.2c-26.6,0-48.2-21.6-48.2-48.2v-33H776.6z"/>
	<path class="st4" d="M723.4,164V86.6h1.9c21.6,0,39.1,15.5,39.1,37.1V164H723.4z"/>
	<path class="st5" d="M768.2,177.2v26.1c0,23-18.7,41.7-41.7,41.7h-2v-67.8H768.2z"/>
	<path class="st6" d="M716.2,177.2h-49.7v26.1c0,23,18.7,41.7,41.7,41.7h2"/>
	<g>
		<g>
			<path id="XMLID_2_" class="st1" d="M779,161.5l-122.2,0.1c-3.4,0-6.2,2.8-6.2,6.2l0,13.7c0,3.4,2.8,6.2,6.2,6.2l122.2-0.1
				c3.4,0,6.2-2.8,6.2-6.2l0-13.7C785.2,164.2,782.4,161.5,779,161.5z"/>
		</g>
		<g>
			<defs>
				<path id="SVGID_1_" d="M779,161.5l-122.2,0.1c-3.4,0-6.2,2.8-6.2,6.2l0,13.7c0,3.4,2.8,6.2,6.2,6.2l122.2-0.1
					c3.4,0,6.2-2.8,6.2-6.2l0-13.7C785.2,164.2,782.4,161.5,779,161.5z"/>
			</defs>
			<clipPath id="SVGID_2_">
				<use xlink:href="#SVGID_1_"  style="overflow:visible;"/>
			</clipPath>
			<path class="st7" d="M719.6,164.4l57.5,0c2.9,0,5.3,2.4,5.3,5.3l0,9.9c0,2.9-2.3,5.3-5.3,5.3l-57.5,0L719.6,164.4z"/>
		</g>
	</g>
	<g>
		<path class="st8" d="M742.9,175.3v91.9c0,13.6-11,24.7-24.7,24.7l0,0"/>
		<circle class="st9" cx="743.4" cy="174.9" r="16"/>
		<circle class="st0" cx="746.3" cy="175.7" r="7.1"/>
	</g>
	<circle class="st1" cx="678.3" cy="147.1" r="2.5"/>
	<circle class="st1" cx="678.3" cy="130.9" r="2.5"/>
	<circle class="st1" cx="678.3" cy="114.7" r="2.5"/>
	<circle class="st1" cx="693.8" cy="147.1" r="2.5"/>
	<circle class="st1" cx="693.8" cy="130.9" r="2.5"/>
	<circle class="st1" cx="693.8" cy="114.7" r="2.5"/>
	<circle class="st1" cx="693.8" cy="98.4" r="2.5"/>
	<circle class="st1" cx="709.2" cy="147.1" r="2.5"/>
	<circle class="st1" cx="709.2" cy="130.9" r="2.5"/>
	<circle class="st1" cx="709.2" cy="114.7" r="2.5"/>
	<circle class="st1" cx="709.2" cy="98.4" r="2.5"/>
	<circle class="st0" cx="727.7" cy="43" r="4"/>
	<circle class="st0" cx="651.7" cy="83" r="4"/>
	<circle class="st0" cx="775.6" cy="4" r="4"/>
	<circle class="st1" cx="724.7" cy="147.1" r="2.5"/>
	<circle class="st1" cx="724.7" cy="130.9" r="2.5"/>
	<circle class="st1" cx="724.7" cy="114.7" r="2.5"/>
	<circle class="st1" cx="724.7" cy="98.4" r="2.5"/>
	<circle class="st1" cx="740.1" cy="147.1" r="2.5"/>
	<circle class="st1" cx="740.1" cy="130.9" r="2.5"/>
	<circle class="st1" cx="740.1" cy="114.7" r="2.5"/>
	<circle class="st1" cx="740.1" cy="98.4" r="2.5"/>
	<circle class="st1" cx="755.6" cy="147.1" r="2.5"/>
	<circle class="st1" cx="755.6" cy="130.9" r="2.5"/>
	<circle class="st1" cx="755.6" cy="114.7" r="2.5"/>
	<path d="M284.9,143.8h-85.7c-6.3,0-11.4-5.1-11.4-11.4v-12.4c0-6.3,5.1-11.4,11.4-11.4h85.7c6.3,0,11.4,5.1,11.4,11.4v12.4
		C296.3,138.6,291.2,143.8,284.9,143.8z"/>
	<path class="st9" d="M256.8,231.6H125.9c-12.9,0-23.4-10.5-23.4-23.4v-76.2c0-12.9,10.5-23.4,23.4-23.4h130.9
		c13,0,23.4,10.5,23.4,23.4v76.2C280.3,221.1,269.8,231.6,256.8,231.6z"/>
	<path class="st9" d="M234.1,252.6H98.5c-4.4,0-8-3.6-8-8v-8.7c0-4.4,3.6-8,8-8H234c4.4,0,8,3.6,8,8v8.7
		C242.1,249,238.5,252.6,234.1,252.6z"/>
	<rect x="116.1" y="108.5" class="st9" width="101.3" height="130.7"/>
	<path class="st10" d="M161.2,232.6h-38.7c-12.9,0-23.4-10.5-23.4-23.4V133c0-12.9,10.5-23.4,23.4-23.4h38.7
		c12.9,0,23.4,10.5,23.4,23.4v76.2C184.6,222.1,174.1,232.6,161.2,232.6z"/>
	<circle cx="116.1" cy="173.8" r="65.3"/>
	<g>
		<g>
			<circle id="XMLID_1_" class="st5" cx="116.1" cy="173.8" r="53.3"/>
		</g>
		<g>
			<defs>
				<circle id="SVGID_3_" cx="116.1" cy="173.8" r="53.3"/>
			</defs>
			<clipPath id="SVGID_4_">
				<use xlink:href="#SVGID_3_"  style="overflow:visible;"/>
			</clipPath>
			<circle class="st11" cx="122.9" cy="172.8" r="49.4"/>
		</g>
	</g>
	<path class="st6" d="M116.1,134.3c21.8,0,39.5,17.7,39.5,39.5s-17.7,39.5-39.5,39.5"/>
	<path d="M134.4,252.6H97c-4.4,0-8-3.6-8-8v-8.7c0-4.4,3.6-8,8-8h37.5c4.4,0,8,3.6,8,8v8.7C142.4,249,138.9,252.6,134.4,252.6z"/>
	<path d="M259.1,185.7h-54c-6.5,0-11.8-5.3-11.8-11.8l0,0c0-6.5,5.3-11.8,11.8-11.8h54c6.5,0,11.8,5.3,11.8,11.8l0,0
		C270.9,180.4,265.6,185.7,259.1,185.7z"/>
	<path class="st12" d="M205.8,183.3h-0.6c-5.2,0-9.5-4.2-9.5-9.5l0,0c0-5.2,4.2-9.5,9.5-9.5h0.6c5.2,0,9.5,4.2,9.5,9.5l0,0
		C215.2,179.1,211,183.3,205.8,183.3z"/>
	<line class="st13" x1="85.2" y1="95.9" x2="76.4" y2="70.5"/>
	<line class="st13" x1="50" y1="127" x2="29.2" y2="110.2"/>
	<line class="st13" x1="28.9" y1="161.4" x2="2.2" y2="160.9"/>
	<circle class="st0" cx="667.2" cy="29.9" r="4"/>
	<line class="st6" x1="657.2" y1="168.9" x2="657.2" y2="173.9"/>
</g>
<g id="Layer_3">
</g>
</svg>
