<?xml version="1.0" encoding="UTF-8"?><svg id="c" xmlns="http://www.w3.org/2000/svg" width="600" height="600" viewBox="0 0 600 600"><defs><style>.e{stroke-width:9.2355px;}.e,.f,.g,.h,.i,.j{fill:none;stroke:#fff;}.e,.f,.g,.h,.j{stroke-miterlimit:10;}.f{stroke-width:10.1341px;}.g{stroke-width:11.1573px;}.h{stroke-width:8.7424px;}.i{stroke-linecap:round;stroke-linejoin:round;stroke-width:5.8619px;}.j{stroke-width:10.5252px;}</style></defs><polyline class="e" points="445.1253 335.5607 446.7419 317.7797 471.7364 320.0521 470.1198 337.8331"/><path class="f" d="M335.9444,434.637l-29.574,58.4893,45.3264,85.2994h-15.2827s0-6.6928,14.0696-6.6928"/><path class="f" d="M430.4541,441.987l23.8654,51.1394-45.3264,85.2994h15.2827s0-6.6928-14.0696-6.6928"/><rect class="e" x="289.3939" y="330.4318" width="191.089" height="108.4359" transform="translate(36.4085 -33.2736) rotate(5.1949)"/><path class="f" d="M132.9654,407.827l-12.9988,64.8874,20.9103,105.7114h-15.2827s0-6.6928,14.0696-6.6928"/><path class="f" d="M197.9651,409.7319l-12.6171,62.9825,20.9103,105.7114h-15.2827s0-6.6928,14.0696-6.6928"/><circle class="h" cx="383.9297" cy="388.9188" r="44.3615"/><path class="i" d="M413.4827,391.612c1.4874-16.3602-10.5693-30.8285-26.9295-32.3159"/><path class="j" d="M221.9663,353.6112l-2.9954,21.1703c-4.0779,28.8206-30.7474,48.8786-59.5681,44.8007h-.0001c-28.8206-4.0779-48.8786-30.7474-44.8007-59.5681l2.9685-20.9801"/><path class="j" d="M121.7187,309.7162l4.1035-29.0016c4.0779-28.8206,30.7474-48.8786,59.5681-44.8007h.0001c28.8206,4.0779,48.8786,30.7474,44.8007,59.5681l-4.0912,28.9149"/><rect class="g" x="108.8209" y="317.7692" width="125.1689" height="27.6823" rx="6.812" ry="6.812" transform="translate(48.0283 -20.701) rotate(8.034)"/><path class="i" d="M183.652,252.9933c18.2016,2.5754,30.8692,19.4185,28.2938,37.6201"/></svg>