<svg xmlns="http://www.w3.org/2000/svg" viewBox="0 0 512 512"><defs><style>.cls-1{fill:#a4a3a3;}.cls-2{fill:#fff;}.cls-3{fill:#f2aa2f;}.cls-4,.cls-5,.cls-6{fill:none;}.cls-4{stroke:#a4a3a3;stroke-width:2.98px;}.cls-4,.cls-5{stroke-linecap:round;stroke-linejoin:round;}.cls-5,.cls-6{stroke:#fff;}.cls-5{stroke-width:6px;}.cls-6{stroke-miterlimit:10;stroke-width:4.21px;}</style></defs><title>root_detection</title><g id="Ebene_1" data-name="Ebene 1"><g id="HAND"><path class="cls-1" d="M592.53,494.94a44.92,44.92,0,0,1-44.79,44.79H-15.74a44.92,44.92,0,0,1-44.79-44.79V338.57a44.92,44.92,0,0,1,44.79-44.79H101c24.63,0,62.15-8.64,83.37-19.2s57.59-19.2,80.83-19.2,59.53,8.64,80.66,19.2,58.57,19.2,83.2,19.2H547.74a44.92,44.92,0,0,1,44.79,44.79Z"/><path class="cls-2" d="M429.17,300l2.68-33.74H338.12s0,21,21,21h7.59l8,12.78Z"/><path class="cls-2" d="M78,297.09l1.12-33.74h93.72s0,21-21,21h-7.59l-11.77,12.78Z"/><path class="cls-2" d="M111.71,337.76q3-5.93,6.47-11.65L74.72,302.79a14.57,14.57,0,0,0,.69,20.59L107,347.65C108.42,344.27,110.07,341,111.71,337.76Z"/><path class="cls-2" d="M111.71,337.76q3-5.93,6.47-11.65L74.72,302.79a14.57,14.57,0,0,0,.69,20.59L107,347.65C108.42,344.27,110.07,341,111.71,337.76Z"/><path class="cls-3" d="M132.12,261.9h0Z"/><rect class="cls-2" x="70.79" y="263.35" width="66.82" height="56.54" rx="8.22" ry="8.22"/><path class="cls-2" d="M129.16,300.14c-4.61-3.52-6-9.46-3.2-13.19s9-3.91,13.57-.39L183,319.75c4.61,3.52,6,9.46,3.2,13.19s-9,3.91-13.57.39Z"/><path class="cls-2" d="M118.2,314c-4.46-3.4-5.65-9.39-2.66-13.31s9.09-4.34,13.54-.94l54.26,41.45c4.46,3.4,5.65,9.39,2.66,13.31s-9.09,4.34-13.54.94Z"/><path class="cls-2" d="M107.09,327.87c-4.61-3.52-5.93-9.62-2.92-13.55s9.23-4.27,13.84-.74l43.44,33.18c4.61,3.52,5.93,9.62,2.92,13.55s-9.23,4.27-13.84.75Z"/><rect class="cls-2" x="108.63" y="316.5" width="16.12" height="57.37" rx="7.84" ry="7.84" transform="translate(-228.45 228.36) rotate(-52.62)"/><polygon class="cls-2" points="101.14 343.46 140.39 289.52 121.87 275.37 79.8 326.76 101.14 343.46"/><line class="cls-4" x1="166.94" y1="304.79" x2="128.29" y2="276.73"/><path class="cls-2" d="M399.29,340.68q-3-5.93-6.47-11.65l43.45-23.32a14.57,14.57,0,0,1-.69,20.59L404,350.57C402.58,347.18,400.93,343.88,399.29,340.68Z"/><path class="cls-2" d="M399.29,340.68q-3-5.93-6.47-11.65l43.45-23.32a14.57,14.57,0,0,1-.69,20.59L404,350.57C402.58,347.18,400.93,343.88,399.29,340.68Z"/><rect class="cls-2" x="373.38" y="266.27" width="66.82" height="56.54" rx="8.22" ry="8.22"/><path class="cls-2" d="M381.84,303.06c4.61-3.52,6-9.46,3.2-13.19s-9-3.91-13.57-.39L328,322.66c-4.61,3.52-6,9.46-3.2,13.2s9,3.91,13.57.39Z"/><path class="cls-2" d="M392.8,316.88c4.46-3.4,5.65-9.39,2.66-13.31s-9.09-4.34-13.54-.94l-54.26,41.45c-4.46,3.4-5.65,9.39-2.66,13.31s9.09,4.34,13.54.94Z"/><path class="cls-2" d="M403.91,330.79c4.61-3.52,5.93-9.62,2.92-13.55S397.6,313,393,316.49l-43.44,33.18c-4.61,3.52-5.93,9.62-2.92,13.55s9.23,4.27,13.84.74Z"/><rect class="cls-2" x="365.63" y="340.04" width="57.37" height="16.12" rx="7.84" ry="7.84" transform="translate(-130.35 310.81) rotate(-37.37)"/><path class="cls-4" d="M344.06,307.7l38.64-28.06Z"/><polygon class="cls-2" points="173.69 324.04 155.48 341.74 173.18 323.53 173.69 324.04"/><path class="cls-2" d="M476.65,388.75l-126.74,1.5-15.86.18A34.82,34.82,0,0,1,318.11,386a39.17,39.17,0,0,1-6.87-4.69,31.11,31.11,0,0,1-3-3,20.74,20.74,0,0,1-1.36-1.66l-.64-.87-.56-.83-8.88-13.12L279,335.59c-.76-1.13-1.42-2.08-2.21-3.09s-1.57-1.94-2.4-2.87a40.08,40.08,0,0,0-5.44-5A22.08,22.08,0,0,0,266,322.8a6.75,6.75,0,0,0-2.5-.8l-7.85.08v-6l8,.11a12,12,0,0,1,5,1.54,27.55,27.55,0,0,1,3.7,2.45,45.56,45.56,0,0,1,6.09,5.84c.91,1.06,1.79,2.14,2.61,3.26s1.63,2.33,2.32,3.41l17.14,26.65,8.57,13.33a29.88,29.88,0,0,0,10.83,10,31.38,31.38,0,0,0,14.15,4.38l15.83.19Z"/><path class="cls-2" d="M372.81,474.49l-55.75-82.59-27.88-41.29-7-10.32-3.48-5.16a48.25,48.25,0,0,0-3.59-4.7,34,34,0,0,0-8.68-7.43,9.44,9.44,0,0,0-2.2-.92c-.15,0-.32-.08-.45-.09a2,2,0,0,1-.35,0l-1.56,0-6.23.09v-6l6.23.09,1.56,0c.39,0,.81.06,1.2.11s.71.16,1.07.24a15,15,0,0,1,3.49,1.54,31.42,31.42,0,0,1,5.43,4.13,48,48,0,0,1,4.5,4.82,53.45,53.45,0,0,1,3.81,5.31l3.33,5.26,6.66,10.53,26.62,42.11Z"/><path class="cls-5" d="M255.67,322.73V92.15"/><path class="cls-2" d="M257.79,360.17l-12.68,12.15-6.34,6.07-3.17,3c-1,1-2.17,2.05-3.05,3a35.94,35.94,0,0,0-4.87,6.68,51.53,51.53,0,0,0-3.62,7.63,44.48,44.48,0,0,0-2.25,8.11,30.67,30.67,0,0,0-.43,4.13l-.09,4.39-.19,8.78-.06,2.21c-.05.76-.06,1.54-.17,2.29s-.18,1.51-.32,2.25-.28,1.48-.45,2.21a53.08,53.08,0,0,1-7,16.37,36,36,0,0,1-5.71,6.84l-6.34,6.07-12.68,12.15,12.15-12.68,6.07-6.34a34.6,34.6,0,0,0,5.23-6.83,51.22,51.22,0,0,0,6.07-16c.14-.7.26-1.4.34-2.1s.16-1.4.21-2.11,0-1.4.06-2.1l0-2.18-.19-8.78L218.2,411a33.91,33.91,0,0,1,.28-4.61,48,48,0,0,1,2.06-8.87,55.44,55.44,0,0,1,3.54-8.38,40.16,40.16,0,0,1,5.14-7.7c1.08-1.24,2.06-2.21,3.08-3.29l3-3.17,6.07-6.34,12.15-12.68Z"/><path class="cls-2" d="M315.15,504.31,306,495.43,301.42,491a46.82,46.82,0,0,1-4.41-4.65,48.85,48.85,0,0,1-6.42-11.12,46.39,46.39,0,0,1-3.42-12.44,32.26,32.26,0,0,1-.21-3.26l0-3.19,0-3.19,0-1.59-.08-1.54a43.18,43.18,0,0,0-3-12,48.14,48.14,0,0,0-6-10.87c-.6-.83-1.27-1.61-1.93-2.37l-1-1.09-1.14-1.11-4.57-4.44-2.29-2.22c-.77-.77-1.58-1.6-2.27-2.46a41,41,0,0,1-3.81-5.43,55.14,55.14,0,0,1-5.3-12,47.05,47.05,0,0,1-1.47-6.5c-.13-1.12-.26-2.24-.29-3.39s0-2.15-.06-3.22l-.19-12.75-.75-51h6l-.75,51-.19,12.75c0,1,0,2.16,0,3.15s.08,2,.17,3a43.31,43.31,0,0,0,1.17,6,51.63,51.63,0,0,0,4.62,11.39,37.75,37.75,0,0,0,3.36,5.1,30.17,30.17,0,0,0,2,2.28l2.22,2.29,4.44,4.58,1.11,1.15,1.13,1.24c.71.86,1.4,1.72,2,2.63a50.55,50.55,0,0,1,5.94,11.61,45.18,45.18,0,0,1,2.78,12.71l0,1.65,0,1.6,0,3.19,0,3.19a30.59,30.59,0,0,0,.11,3.11,45.11,45.11,0,0,0,3,12.16,47.92,47.92,0,0,0,6,11.08,46.17,46.17,0,0,0,4.22,4.71l4.44,4.57Z"/><path class="cls-2" d="M256.27,322.09,250,322l-1.56,0H247a9.75,9.75,0,0,0-2.36.41,39,39,0,0,0-10.3,5.23,52,52,0,0,0-4.71,3.63c-.77.65-1.44,1.3-2.21,2l-2.25,2.16-9,8.65-36,34.62-36,34.62-4.5,4.33c-.74.72-1.52,1.44-2.31,2.15s-1.63,1.34-2.49,2a50.15,50.15,0,0,1-11,6,30.34,30.34,0,0,1-12.26,2.45L99.13,430l12.48-.19a29.78,29.78,0,0,0,12-2.77,49.2,49.2,0,0,0,10.63-6.25c.82-.62,1.59-1.3,2.36-2s1.47-1.41,2.2-2.17l4.37-4.46,34.94-35.68L213,340.88l8.74-8.92,2.18-2.23c.72-.73,1.53-1.55,2.33-2.27a57.08,57.08,0,0,1,5-4.14,55.31,55.31,0,0,1,5.52-3.55A34.71,34.71,0,0,1,243,317a15.26,15.26,0,0,1,3.75-.74l.5,0h1.17l1.56,0,6.24-.09Z"/><polygon class="cls-2" points="301.13 112.02 257.79 159.6 253.55 155.36 301.13 112.02"/><path class="cls-6" d="M316.26,97.49a52,52,0,0,0-58.87,58.87,52,52,0,0,0,58.87-58.87Z"/><polygon class="cls-2" points="208.42 152.59 255.95 193.61 251.82 197.96 208.42 152.59"/><path class="cls-6" d="M194.71,137.49a52,52,0,0,1,58.87,58.87,52,52,0,0,1-58.87-58.87Z"/><polygon class="cls-2" points="211.25 50.93 258.78 91.96 254.65 96.31 211.25 50.93"/><path class="cls-6" d="M197.54,35.84a52,52,0,0,1,58.87,58.87,52,52,0,0,1-58.87-58.87Z"/><polygon class="cls-2" points="177.7 381.05 59.35 379.05 177.7 377.05 177.7 381.05"/></g></g></svg>