<svg xmlns="http://www.w3.org/2000/svg" xmlns:xlink="http://www.w3.org/1999/xlink" viewBox="0 0 512 512"><defs><style>.cls-1,.cls-14,.cls-5,.cls-8{fill:none;}.cls-2{fill:#fff;}.cls-3{fill:url(#linear-gradient);}.cls-4{fill:#a4a3a3;}.cls-5{stroke:#a4a3a3;stroke-width:0.63px;}.cls-5,.cls-8{stroke-miterlimit:10;}.cls-6{fill:#00e8cc;}.cls-7{fill:#f2aa2f;}.cls-14,.cls-8{stroke:#fff;}.cls-8{stroke-width:0.53px;}.cls-9{clip-path:url(#clip-path);}.cls-10{fill:#2f54a1;}.cls-11{clip-path:url(#clip-path-3);}.cls-12{clip-path:url(#clip-path-4);}.cls-13{fill:#50239f;}.cls-14{stroke-linecap:round;stroke-linejoin:round;stroke-width:6.64px;}.cls-15{fill:url(#linear-gradient-3);}</style><linearGradient id="linear-gradient" x1="1468.55" y1="236.09" x2="1528.73" y2="236.09" gradientTransform="matrix(-1, 0, 0, 1, 1611.66, 0)" gradientUnits="userSpaceOnUse"><stop offset="0" stop-color="#fff"/><stop offset="0.95" stop-color="#fff"/></linearGradient><clipPath id="clip-path"><circle id="_Clipping_Path_" data-name="&lt;Clipping Path&gt;" class="cls-1" cx="113.02" cy="236.09" r="30.09"/></clipPath><clipPath id="clip-path-3"><circle id="_Clipping_Path_3" data-name="&lt;Clipping Path&gt;" class="cls-2" cx="113.02" cy="236.09" r="30.09"/></clipPath><clipPath id="clip-path-4"><circle id="_Clipping_Path_4" data-name="&lt;Clipping Path&gt;" class="cls-3" cx="113.02" cy="236.09" r="30.09"/></clipPath><linearGradient id="linear-gradient-3" x1="-11027.41" y1="237.56" x2="-10821.67" y2="237.56" gradientTransform="matrix(-1, 0, 0, 1, -10646.26, 0)" gradientUnits="userSpaceOnUse"><stop offset="0" stop-color="#fff" stop-opacity="0"/><stop offset="1" stop-color="#fff"/></linearGradient></defs><title>scan_confirmation_onboarding</title><g id="Ebene_1" data-name="Ebene 1"><rect class="cls-2" x="70.4" y="275.34" width="51.46" height="81.97"/><path class="cls-2" d="M91.39,381.59a20.26,20.26,0,0,0,28.64-1l57.24-74.46A20.26,20.26,0,0,0,145,281.61"/><path class="cls-2" d="M91.39,381.59a20.26,20.26,0,0,0,28.64-1l57.24-74.46A20.26,20.26,0,0,0,145,281.61"/><path class="cls-4" d="M150,169.47a8.24,8.24,0,0,1,8.21,8.21l0,151.53a8.23,8.23,0,0,1-8.21,8.21l-73.84,0a8.24,8.24,0,0,1-8.21-8.21l0-151.52a8.24,8.24,0,0,1,8.21-8.21Z"/><path class="cls-5" d="M150,169.47a8.24,8.24,0,0,1,8.21,8.21l0,151.53a8.23,8.23,0,0,1-8.21,8.21l-73.84,0a8.24,8.24,0,0,1-8.21-8.21l0-151.52a8.24,8.24,0,0,1,8.21-8.21Z"/><polygon class="cls-6" points="155.13 181.92 155.1 317.25 70.4 317.24 70.41 297.51 65.77 285.02 70.43 250.03 70.44 181.89 155.13 181.92"/><path class="cls-7" d="M34.54,301.79h0a0,0,0,0,1,0,0Z"/><path class="cls-2" d="M85.72,381.59c-4.28-2.83-53.08-68.9-51.17-79.8a0,0,0,0,0,0,0l13.5-49.93L52,228.38a29.66,29.66,0,0,1,10.73,4.21c9.86,6.31,11.65,18.74,9.44,31l-4.5,21.94c15.3,12,26.89,29.65,25.82,51.1,0,0-.34,9.19-1.31,13.09L113,362.32Z"/><path class="cls-2" d="M164.23,202.41a18.37,18.37,0,1,0,.7,36.67v8.13S178,235.71,180.78,227a18.38,18.38,0,0,0-16.55-24.56Z"/><path class="cls-2" d="M164.23,237.58a18.37,18.37,0,0,0-1.51,36.71,18.71,18.71,0,0,0,2.2,0v8.13s13.1-11.51,15.85-20.24a18.38,18.38,0,0,0-16.55-24.56Z"/><path class="cls-2" d="M165.42,321.65s12.6-15,15.36-23.69a18.45,18.45,0,1,0-15.85,12.11"/><path class="cls-8" d="M119.88,331.19h-14a4.2,4.2,0,1,1,0-8.4h14a4.2,4.2,0,1,1,0,8.4Z"/><rect class="cls-2" x="57.71" y="339.08" width="51.31" height="47.98" rx="6.63" ry="6.63"/><g class="cls-9"><rect class="cls-10" x="98.12" y="216.33" width="30.04" height="10.01"/><rect class="cls-10" x="128.16" y="226.34" width="10.01" height="19.92"/><rect class="cls-10" x="118.15" y="236.3" width="10.01" height="29.63"/><rect class="cls-10" x="98.12" y="236.3" width="10.01" height="29.63"/><rect class="cls-10" x="88.11" y="226.34" width="10.01" height="19.92"/><rect class="cls-10" x="108.13" y="226.33" width="10.01" height="9.96"/><g class="cls-9"><rect class="cls-10" x="100.84" y="218.76" width="24.68" height="8.22"/><rect class="cls-10" x="125.51" y="226.98" width="8.22" height="16.36"/><rect class="cls-10" x="117.29" y="235.16" width="8.23" height="33.85"/><rect class="cls-10" x="100.84" y="235.16" width="8.23" height="33.85"/><rect class="cls-10" x="92.61" y="226.98" width="8.23" height="16.36"/><rect class="cls-10" x="109.06" y="226.98" width="8.22" height="8.18"/></g></g><circle id="_Clipping_Path_6" data-name="&lt;Clipping Path&gt;" class="cls-2" cx="113.02" cy="236.09" r="30.09"/><g class="cls-11"><rect class="cls-10" x="98.12" y="216.33" width="30.04" height="10.01"/><rect class="cls-10" x="128.16" y="226.34" width="10.01" height="19.92"/><rect class="cls-10" x="118.15" y="236.3" width="10.01" height="29.63"/><rect class="cls-10" x="98.12" y="236.3" width="10.01" height="29.63"/><rect class="cls-10" x="88.11" y="226.34" width="10.01" height="19.92"/><rect class="cls-10" x="108.13" y="226.33" width="10.01" height="9.96"/><circle id="_Clipping_Path_7" data-name="&lt;Clipping Path&gt;" class="cls-3" cx="113.02" cy="236.09" r="30.09"/><g class="cls-12"><rect class="cls-13" x="100.84" y="218.76" width="24.68" height="8.22"/><rect class="cls-13" x="125.51" y="226.98" width="8.22" height="16.36"/><rect class="cls-13" x="117.29" y="235.16" width="8.23" height="33.85"/><rect class="cls-13" x="100.84" y="235.16" width="8.23" height="33.85"/><rect class="cls-13" x="92.61" y="226.98" width="8.23" height="16.36"/><rect class="cls-13" x="109.06" y="226.98" width="8.22" height="8.18"/></g></g><line class="cls-14" x1="136.24" y1="290.84" x2="86.04" y2="290.84"/><polygon class="cls-15" points="446.56 146.22 170.55 231.38 170.55 243.73 446.56 328.9 446.56 146.22"/><rect class="cls-4" x="364.26" y="160.27" width="90.27" height="167.95" rx="8.21" ry="8.21"/><rect class="cls-5" x="364.26" y="160.27" width="90.27" height="167.95" rx="8.21" ry="8.21"/><polyline class="cls-13" points="452 250.78 451.98 172.7 367.29 172.73 367.32 308.06 452.02 308.06 452.01 292.61"/><path class="cls-7" d="M487.88,292.6h0a0,0,0,0,0,0,0Z"/><path class="cls-2" d="M417.48,233.21h2.84V230.4H429v5.67h-5.67v2.76H429V236l5.78,0,0,0V239l0,0h-2.86v2.84h-8.54v8.64h2.77v3h-2.81v2.72h11.31v-5.64h-8.54v-2.86h5.72v-2.79h2.89v2.71h2.84v8.63h2.86v5.67h-2.76v-2.68H434.8v2.7h-2.89v-2.66H429v2.68h-2.84v-2.7H423.3v2.8h-5.77l0,0v-5.74h-2.86v-2.89h5.53v-5.82h-2.78l0,0v-2.94h2.74v-2.8h-5.65c0-1,0-1.94,0-2.91l0,0h5.67V236h-2.76v-2.84Z"/><path class="cls-2" d="M380.23,227.34V207.42h19.92v19.92Zm17.07-2.83V210.33H383.11v14.18Z"/><path class="cls-2" d="M420.44,227.36V207.45h19.93v19.91Zm2.86-2.89h14.18V210.29H423.3Z"/><path class="cls-2" d="M380.22,267.54V247.63h20v19.91Zm17.09-2.83V250.52H383.15v14.19Z"/><path class="cls-2" d="M397.42,233.21v-2.87h5.74l0,0v2.85H406V236h2.82v-5.58h8.66v2.8l0,0h-2.91V239l0,0h-5.81v2.87H406l0,0v-2.91h-2.91l0,0V236h-2.91l0,0v-2.91h-2.91Z"/><path class="cls-2" d="M403.16,230.34V218.91H414.6V216l0,0h2.83v5.63h-5.58v5.67h-2.89v-2.68h-2.84v5.65h-3Z"/><path class="cls-2" d="M417.48,247.53v2.86h-5.67v2.79H406V250.4h2.8v-2.75H406v2.79h-2.87v-8.66l0,0H406l0,0v2.87h5.78v2.91h5.74Z"/><path class="cls-2" d="M434.75,236.08v-2.86h-2.81v-2.79h5.62v2.74h2.85v8.52h-5.65v-2.78l0,0h2.79V236h-2.79Z"/><path class="cls-2" d="M417.51,264.75h-5.7v2.8h-2.91v-5.67l0,0h2.91V259l0,0h2.81v2.77l3,.15,0,0c0,1,0,1.91-.06,2.86Z"/><path class="cls-2" d="M380.23,244.58V239h8.43v5.57h-2.73v-2.69h-2.83v2.7Z"/><path class="cls-2" d="M380.27,230.38h5.56v5.56h-5.56Z"/><path class="cls-2" d="M414.6,213.07q0,1.48,0,3l0,0H409v-8.58h2.73v5.7h3Z"/><path class="cls-2" d="M405.93,261.84v5.74h-2.68v-5.7H406Z"/><path class="cls-2" d="M414.64,213.11v-5.66h2.76v5.62h-2.8Z"/><path class="cls-2" d="M403.23,210.28h2.71v5.56h-2.71Z"/><path class="cls-2" d="M391.64,233.21h5.78l0,0v2.91l0,0h-5.74v-2.87Z"/><path class="cls-2" d="M406.08,259h-2.87v-2.68H406c0,.87,0,1.8,0,2.72Z"/><path class="cls-2" d="M408.91,259.05v-2.79h2.83v2.8l0,0h-2.91Z"/><path class="cls-2" d="M408.91,261.89l-3,0,0,0q0-1.46.1-2.92l0,0,2.87.05,0,0v2.91Z"/><path class="cls-2" d="M437.48,267.62h-2.65v-2.75h2.65Z"/><path class="cls-2" d="M417.47,264.79h2.79v2.76h-2.75v-2.8Z"/><path class="cls-2" d="M423.31,267.55v-2.71H426v2.71Z"/><path class="cls-2" d="M429.05,267.55v-2.71h2.7v2.71Z"/><path class="cls-2" d="M400.25,241.79v2.79h-2.76v-2.75h2.79Z"/><path class="cls-2" d="M400.28,241.83q0-1.46,0-2.92l0,0h2.91l0,0v2.91l0,0h-2.92Z"/><path class="cls-2" d="M400.29,238.91h-2.87V236l0,0h2.91l0,0V239Z"/><path class="cls-2" d="M391.68,233.17h-2.79v-2.76h2.75v2.8Z"/><path class="cls-2" d="M417.4,227.39H414.7v-2.7h2.69Z"/><path class="cls-2" d="M411.74,244.7v-2.91h2.91v2.91Z"/><path class="cls-2" d="M394.42,221.64H386V213.2h8.44Z"/><path class="cls-2" d="M426.15,221.58V213.2h8.49v8.39Z"/><path class="cls-2" d="M386,261.8v-8.44h8.44v8.44Z"/><path class="cls-8" d="M402.54,322h14a4.2,4.2,0,1,0,0-8.4h-14a4.2,4.2,0,1,0,0,8.4Z"/></g></svg>