<svg xmlns="http://www.w3.org/2000/svg" xmlns:xlink="http://www.w3.org/1999/xlink" viewBox="0 0 512 512"><defs><style>.cls-1,.cls-6,.cls-8,.cls-9{fill:none;}.cls-2{clip-path:url(#clip-path);}.cls-3{fill:#fbfdff;}.cls-4{fill:#d6d6d6;}.cls-5{fill:#50239f;}.cls-6{stroke:#cfd0d0;stroke-width:0.82px;}.cls-6,.cls-8{stroke-miterlimit:10;}.cls-7{fill:#cfd0d0;}.cls-8{stroke:#fbfdff;stroke-width:2.26px;}.cls-9{stroke:#f7296e;stroke-linecap:round;stroke-linejoin:round;stroke-width:23px;}</style><clipPath id="clip-path"><rect class="cls-1" x="-2.84" y="82.52" width="428.29" height="426.71"/></clipPath></defs><title>screenshot_detected</title><g id="Ebene_1" data-name="Ebene 1"><g class="cls-2"><path class="cls-3" d="M449.08,299.4,442,305.53l-95.49,14.22-26.05-73a18.27,18.27,0,0,0-11.7,20.89l7.38,20a40.67,40.67,0,0,1-24.53,52l-10.39-30.46c-10.57-26.53-26.78-57.22,1.46-92.1,12.9-15.94,22.47-27.7,29.35-36.12Z"/><path class="cls-3" d="M392.52,264.4l-46.24,20.38-31.41-44.95a12.92,12.92,0,0,0-4.09,16.43l8.78,12.3a28.75,28.75,0,0,1-7,40l-12.78-18.83c-13.44-11.13-28.95-34-16.21-63.1l5.19-11.82Z"/><path class="cls-3" d="M531.73,372.55,403.79,298a23.33,23.33,0,0,1-8.7-7.18L354.72,236.3l-92.81-3.66a23.37,23.37,0,0,1-22.4-24.26A23.35,23.35,0,0,1,263.76,186l104,4.11a23.35,23.35,0,0,1,17.84,9.43l43.57,58.81,128,61L779,416.36,723,552.49,508.61,421,369.46,328.62,399,266.87l146.92,76.07"/><rect class="cls-4" x="152.27" y="116.43" width="179.48" height="225.55"/><rect class="cls-5" x="163.31" y="130.94" width="157.4" height="158.79"/><path class="cls-3" d="M326.22,263.44a54.75,54.75,0,1,0,73-25.81,54.75,54.75,0,0,0-73,25.81"/><path class="cls-3" d="M284.92,250.07l71.65,49c11.58,6.63,29.82-3.43,36.44-15a24.16,24.16,0,0,0-9-33l-75.1-43a24.17,24.17,0,0,0-24,42"/><path class="cls-6" d="M371.36,231.65a10.28,10.28,0,0,1-14,3.81l-12.26-6.93"/><path class="cls-7" d="M304.5,217.38l7.24,4.54-15.08,24-7.23-4.55a14.17,14.17,0,0,1,15.07-24"/><path class="cls-6" d="M375.64,246.3l-67-38.39a24.18,24.18,0,0,0-33,9"/><polyline class="cls-8" points="171.61 239.02 226.19 201.1 242.01 229.2 275.6 205.7 279.05 210.3"/><circle class="cls-8" cx="195.16" cy="157.44" r="12.64"/></g></g><g id="Ebene_2" data-name="Ebene 2"><line class="cls-9" x1="56.46" y1="90.36" x2="427.19" y2="449.85"/></g></svg>