<?xml version="1.0" encoding="UTF-8"?><svg id="b" xmlns="http://www.w3.org/2000/svg" width="500" height="500" viewBox="0 0 500 500"><defs><style>.g{fill:#fff;}.h{stroke:#000;stroke-width:4.4588px;}.h,.i,.j,.k,.l,.m,.n,.o{fill:none;stroke-linecap:round;stroke-miterlimit:10;}.i{stroke-width:18.2769px;}.i,.o{stroke:#fff;}.j{stroke-width:2.7906px;}.j,.k,.n{stroke:#d2d2d2;}.k,.l{stroke-width:2.6891px;}.l{stroke:#0aae95;}.m{stroke:#723bbb;}.m,.n{stroke-width:2.6785px;}.o{stroke-width:11.8208px;}</style></defs><g><rect class="g" x="117.0452" y="92.5293" width="150.1739" height="269.064" rx="22.7148" ry="22.7148" transform="translate(-22.1085 20.7301) rotate(-5.8406)"/><rect class="o" x="117.0452" y="92.5293" width="150.1739" height="269.064" rx="22.7148" ry="22.7148" transform="translate(-22.1085 20.7301) rotate(-5.8406)"/><rect class="h" x="117.0452" y="92.5293" width="150.1739" height="269.064" rx="22.7148" ry="22.7148" transform="translate(-22.1085 20.7301) rotate(-5.8406)"/></g><g><rect class="g" x="168.0504" y="217.6814" width="269.064" height="150.1739" rx="22.7148" ry="22.7148" transform="translate(-32.7842 547.3241) rotate(-81.2554)"/><rect class="o" x="168.0504" y="217.6814" width="269.064" height="150.1739" rx="22.7148" ry="22.7148" transform="translate(-32.7842 547.3241) rotate(-81.2554)"/><rect class="h" x="168.0504" y="217.6814" width="269.064" height="150.1739" rx="22.7148" ry="22.7148" transform="translate(-32.7842 547.3241) rotate(-81.2554)"/></g><g><rect class="g" x="189.5092" y="216.3192" width="89.4996" height="89.1416" rx="44.5708" ry="44.5708"/><rect class="i" x="189.5092" y="216.3192" width="89.4996" height="89.1416" rx="44.5708" ry="44.5708"/><rect class="j" x="189.5092" y="216.3192" width="89.4996" height="89.1416" rx="44.5708" ry="44.5708"/></g><g id="c"><g><path class="g" d="M228.7971,255.5882v-20.1871c-6.6043,0-13.0945-.0005-19.5847,.0044-.1015,0-.213,.0506-.3018,.1062-.0963,.0602-.1715,.1541-.1307,.1158v19.9606h20.0173Zm10.6441-.0587h20.19c0-6.609,.0005-13.1002-.0047-19.5915,0-.1005-.0543-.2125-.1135-.2984-.0636-.0923-.1628-.1601-.1202-.1201h-19.9516v20.0099Zm-10.6434,30.7773v-20.1863c-6.6033,0-13.0934-.0005-19.5834,.0044-.1017,0-.2139,.049-.3023,.1049-.096,.0607-.1698,.1563-.133,.1209v19.9562h20.0188Zm10.7085-6.1621v6.0561h20.0175v-5.942h-3.5747c1.4905,1.3583,.9707,2.3536-.1134,3.2738-1.1386,.0312-2.3649,.3965-3.0994-1.0119-.075-.7524-.1602-1.6074-.2294-2.3014h-6.0959c-.1723,1.1978,.3874,2.5038-.9285,3.1863h-2.7157v-3.2609h-3.2606Zm13.0804-20.8953h-13.0339v10.2489h3.4372v-6.9804h9.5967v-3.2685Zm-6.1485,10.362h13.0196v-10.3549h-2.6181v6.1656c-3.3732,1.5604-7.0132,.0972-10.4015,.9106v3.2787Zm-13.9226-27.167v13.0202h3.2647v-13.0202h-3.2647Zm-3.7242,20.1311v-3.4382c-4.4652,.0075-8.8086-.0095-13.0246,.0107v3.4274h13.0246Zm6.9871,16.7506v-13.2303c-1.2132,.0553-2.3026,.105-3.2611,.1487v13.0816h3.2611Zm16.8074-6.133h-13.0474v3.5129c1.3886-1.4296,2.9498-.6663,4.3562-.7831,1.4916-.1239,3.0023-.059,4.5031-.0187,1.385,.0372,2.8212-.3097,4.1882,.5642v-3.2753Zm-20.1244-10.6789h3.2542v-3.2596h-3.2542v3.2596Zm.0009-24.4399h3.4548c-.0551-.9817-.103-1.8351-.1433-2.5533h-3.3116v2.5533Zm-23.6124,21.0647v3.3687h2.6414c-.0593-1.2158-.1121-2.3006-.1642-3.3687h-2.4772Zm26.981,24.4358c-1.0061,0-1.7047-.0602-2.3853,.0243-.3638,.0452-.968,.3083-.9937,.528-.0865,.739,.038,1.5028,.0737,2.1182h3.3053v-2.6705Zm22.3918-7.7914c.5034,.3211,.8289,.5288,1.2962,.8269v-3.3508h-3.1021c.221,1.1339,.421,2.1597,.6406,3.2858,.3527-.2306,.6736-.4404,1.1653-.7619Z"/><path d="M228.7971,255.5882h-20.0173v-19.9606c-.0408,.0383,.0345-.0556,.1307-.1158,.0889-.0556,.2003-.1061,.3018-.1062,6.4902-.0049,12.9805-.0044,19.5847-.0044v20.1871Zm-17.2277-16.4588v12.86h13.7507v-13.7219h-12.8888l-.8619,.8619Z"/><path d="M239.4412,255.5296v-20.0099h19.9516c-.0426-.04,.0566,.0278,.1202,.1201,.0591,.0859,.1134,.1978,.1135,.2984,.0052,6.4912,.0047,12.9824,.0047,19.5915h-20.19Zm3.5489-17.2769v13.7335h13.7435v-12.85c-.351-.351-.597-.597-.8835-.8835h-12.86Z"/><path d="M228.7979,286.3068h-20.0188v-19.9562c-.0368,.0354,.0371-.0602,.133-.1209,.0885-.0559,.2006-.1048,.3023-.1049,6.49-.0048,12.9801-.0044,19.5834-.0044v20.1863Zm-17.0597-16.5878c-.048,.0759-.2648,.2593-.2657,.4437-.0192,4.1598-.0148,8.3197-.0148,12.3648,.3599,.3599,.6059,.6059,.9135,.9134h12.983v-13.7219h-13.616Z"/><path d="M239.5064,280.1447h3.2606v3.2609h2.7157c1.3158-.6826,.7561-1.9886,.9285-3.1863h6.0959c.0692,.694,.1544,1.549,.2294,2.3014,.7345,1.4085,1.9608,1.0432,3.0994,1.0119,1.0841-.9203,1.6039-1.9155,.1134-3.2738h3.5747v5.942h-20.0175v-6.0561Z"/><path d="M252.5868,259.2494v3.2685h-9.5967v6.9804h-3.4372v-10.2489h13.0339Z"/><path d="M246.4383,269.6113v-3.2787c3.3883-.8134,7.0282,.6498,10.4015-.9106v-6.1656h2.6181v10.3549h-13.0196Z"/><path d="M232.5158,242.4443h3.2647v13.0202h-3.2647v-13.0202Z"/><path d="M228.7916,262.5754h-13.0246v-3.4274c4.216-.0202,8.5594-.0032,13.0246-.0107v3.4382Z"/><path d="M235.7787,279.326h-3.2611v-13.0816c.9585-.0437,2.0479-.0934,3.2611-.1487v13.2303Z"/><path d="M252.5861,273.193v3.2753c-1.367-.8739-2.8031-.527-4.1882-.5642-1.5008-.0403-3.0115-.1052-4.5031,.0187-1.4064,.1168-2.9676-.6465-4.3562,.7831v-3.5129h13.0474Z"/><path d="M232.4616,262.5141v-3.2596h3.2542v3.2596h-3.2542Z"/><path d="M232.4626,238.0742v-2.5533h3.3116c.0403,.7182,.0882,1.5716,.1433,2.5533h-3.4548Z"/><path d="M208.8502,259.1389h2.4772c.0521,1.0681,.1049,2.1529,.1642,3.3687h-2.6414v-3.3687Z"/><path d="M235.8312,283.5747v2.6705h-3.3053c-.0357-.6154-.1602-1.3791-.0737-2.1182,.0257-.2198,.6299-.4828,.9937-.528,.6806-.0845,1.3792-.0243,2.3853-.0243Z"/><path d="M258.223,275.7833c-.4917,.3215-.8126,.5312-1.1653,.7619-.2195-1.1261-.4195-2.1519-.6406-3.2858h3.1021v3.3508c-.4673-.2981-.7928-.5057-1.2962-.8269Z"/><path class="g" d="M211.5694,239.1294l.8619-.8619h12.8888v13.7219h-13.7507v-12.86Zm4.1941,3.3112v6.2355c2.1398-.0476,4.1644,.0678,6.05-.0707v-6.1648h-6.05Z"/><path class="g" d="M242.9901,238.2527h12.86c.2865,.2865,.5325,.5325,.8835,.8835v12.85h-13.7435v-13.7335Zm3.4373,10.3005h6.0476v-6.0572h-6.0476v6.0572Z"/><path class="g" d="M211.7382,269.719h13.616v13.7219h-12.983c-.3076-.3075-.5536-.5536-.9135-.9134,0-4.045-.0045-8.205,.0148-12.3648,.0009-.1844,.2177-.3678,.2657-.4437Zm4.0265,3.4398v6.2389c2.1406-.0442,4.1633,.0378,6.0476-.0436v-6.1954h-6.0476Z"/><path d="M215.7635,242.4406h6.05v6.1648c-1.8856,.1385-3.9101,.023-6.05,.0707v-6.2355Z"/><path d="M246.4275,248.5532v-6.0572h6.0476v6.0572h-6.0476Z"/><path d="M215.7647,273.1587h6.0476v6.1954c-1.8843,.0814-3.907-.0007-6.0476,.0436v-6.2389Z"/></g></g><g><path class="n" d="M189.8634,166.4064l-.0003-.0021,19.35,5.1013c.4128,2.912,1.9692,8.8337,2.6384,14.9898,.2012,1.8473,.3228,3.7154,.3098,5.5297-.013,1.8143-.1605,3.5756-.4974,5.2074,0,0-2.1126,13.3843-15.6225,20.3789"/><path class="m" d="M188.9725,218.4299l.0005,.0041c-14.7224-3.6073-19.9391-16.058-19.9391-16.058-.7154-1.5049-1.2776-3.1806-1.7208-4.9398-.4441-1.7591-.7704-3.6026-1.0143-5.4447-.8142-6.1385-.7118-12.2605-1.0026-15.1871l17.5087-9.5001v.0011s1.1796,9.8079,1.1796,9.8079c.2535,2.1007,2.2236,4.1099,4.3243,3.8564l3.6532-.4408c3.1174-.3761,5.9496,1.8461,6.3257,4.9636h0c.3761,3.1175-1.8461,5.9496-4.9636,6.3257l-7.8459,.9467c-3.1174,.3761-5.3397,3.2082-4.9636,6.3257h0c.3761,3.1175,3.2082,5.3397,6.3257,4.9636l3.6532-.4408c2.1007-.2535,4.0091,1.244,4.2626,3.3447l1.2854,10.6532,.0015-.0008"/></g><g><path class="k" d="M316.7433,248.603l.0003-.0021,17.5207,9.8307c-.3321,2.934-.3109,9.081-1.2108,15.2323-.2696,1.8459-.6219,3.6921-1.0914,5.452-.4695,1.76-1.0564,3.4345-1.7948,4.9356,0,0-5.4238,12.4755-20.3148,15.871"/><path class="l" d="M302.7763,298.9377l-.0006,.0041c-13.3995-7.2133-15.3339-20.6273-15.3339-20.6273-.3163-1.6427-.4406-3.4128-.4284-5.2341,.0114-1.8214,.1586-3.6952,.3854-5.5468,.7546-6.1708,2.3958-12.0946,2.8502-15.0121l19.4082-4.8234v.0011s-1.3238,9.8289-1.3238,9.8289c-.2827,2.1054,1.126,4.5542,3.2314,4.8369l3.6614,.4916c3.1244,.4195,5.3172,3.2925,4.8976,6.4169h0c-.4195,3.1244-3.2925,5.3172-6.4169,4.8976l-7.8635-1.0559c-3.1244-.4195-5.9973,1.7732-6.4169,4.8976h0c-.4195,3.1244,1.7732,5.9974,4.8976,6.4169l3.6614,.4916c2.1054,.2827,3.583,2.2186,3.3003,4.324l-1.4336,10.677,.0016-.0004"/></g></svg>