<?xml version="1.0" encoding="UTF-8" standalone="no"?>
<!DOCTYPE svg PUBLIC "-//W3C//DTD SVG 1.1//EN" "http://www.w3.org/Graphics/SVG/1.1/DTD/svg11.dtd">
<svg width="100%" height="100%" viewBox="0 0 289 288" version="1.1" xmlns="http://www.w3.org/2000/svg" xmlns:xlink="http://www.w3.org/1999/xlink" xml:space="preserve" xmlns:serif="http://www.serif.com/" style="fill-rule:evenodd;clip-rule:evenodd;stroke-linejoin:round;stroke-miterlimit:2;">
    <g transform="matrix(1,0,0,1,-450,0)">
        <g id="AirGap-Vault-288x288-C-192" serif:id="AirGap Vault 288x288 C-192" transform="matrix(0.322342,0,0,0.381756,382.865,-915.023)">
            <rect x="209.982" y="2396.88" width="893.46" height="754.409" style="fill:none;"/>
            <g transform="matrix(3.23602,0,0,2.75044,194.438,2445.35)">
                <ellipse cx="142.853" cy="119.519" rx="92.033" ry="91.429" style="fill:none;"/>
            </g>
            <g id="VAULT">
            </g>
            <g transform="matrix(2.05617,0,0,1.73616,-1339.74,2643.03)">
                <g transform="matrix(0.287438,0,0,0.287438,1000.64,-40.5515)">
                    <path d="M0,783.241C129.589,727.436 230.705,598.405 244.339,467.737C257.775,338.983 243.588,165.254 242.977,157.921L240.998,134.18L218.087,127.654C217.427,127.466 151.517,108.61 103.725,88.22C43.2,62.398 -18.005,26.943 -18.612,26.59L-59.546,2.791C-64.347,0 -70.366,3.463 -70.366,9.017L-70.366,56.395C-70.366,69.571 -62.967,81.013 -52.097,86.801C-42.945,92.075 16.085,125.723 76.694,151.58C110.474,165.992 151.041,179.247 175.999,186.96C179.361,238.472 185.808,364.931 175.826,460.588C170.163,514.86 144.509,571.771 103.592,620.838C74.2,656.083 38.452,685.552 0,706.645L0,783.241Z" style="fill:rgb(161,150,199);fill-rule:nonzero;"/>
                </g>
                <g transform="matrix(0.287438,0,0,0.287438,971.236,40.0441)">
                    <path d="M0,246.548L-56.109,246.548C-80.898,246.548 -100.982,226.013 -100.241,201.061C-99.529,177.047 -79.195,158.246 -55.171,158.246L51.691,158.246C113.924,158.246 165.561,108.553 166.165,46.324C166.774,-16.513 115.834,-67.827 53.134,-67.827L-0.611,-67.513C-19.052,-67.561 -34.04,-82.577 -34.04,-101.029L-34.04,-270.863C-34.04,-276.397 -40.022,-279.862 -44.823,-277.11L-85.615,-253.721C-86.233,-253.366 -148.191,-217.945 -209.215,-192.04C-257.279,-171.637 -322.534,-152.92 -323.184,-152.734L-346.244,-146.151L-348.073,-122.24C-348.638,-114.852 -361.753,60.174 -348.331,188.812C-341.269,256.482 -310.133,326.231 -260.658,385.211C-212.263,442.906 -148.626,487.777 -81.469,511.56L-45.133,524.422C-40.447,526.081 -35.529,522.605 -35.529,517.634L-35.529,479.086C-35.529,463.781 -45.51,450.811 -59.319,446.325C-114.747,426.508 -167.478,389.109 -207.882,340.941C-248.62,292.377 -274.167,235.81 -279.817,181.663C-289.8,85.987 -283.993,-41.556 -280.919,-93.498C-256.138,-101.176 -216.048,-114.304 -182.298,-128.631C-153.93,-140.673 -125.803,-154.406 -102.925,-166.167L-102.925,-101.029C-102.925,-44.565 -56.987,1.372 -0.522,1.372L53.226,1.058C77.982,1.11 98.023,21.642 97.264,46.579C96.534,70.579 76.208,89.361 52.196,89.361L-56.109,89.361C-118.81,89.361 -169.75,140.674 -169.141,203.512C-168.537,265.741 -116.9,315.433 -54.668,315.433L0,315.433C18.481,315.433 33.517,330.469 33.517,348.902C33.517,348.902 33.368,456.944 33.368,479.415L33.368,517.962C33.368,522.933 38.287,526.41 42.973,524.75L79.308,511.882C87.065,509.135 94.729,506.109 102.303,502.848L102.303,344.999C100.216,290.361 55.14,246.548 0,246.548" style="fill:rgb(74,42,151);fill-rule:nonzero;"/>
                </g>
            </g>
        </g>
    </g>
</svg>
