<?xml version="1.0" encoding="UTF-8" standalone="no"?><!DOCTYPE svg PUBLIC "-//W3C//DTD SVG 1.1//EN" "http://www.w3.org/Graphics/SVG/1.1/DTD/svg11.dtd"><svg width="100%" height="100%" viewBox="0 0 11384 11384" version="1.1" xmlns="http://www.w3.org/2000/svg" xmlns:xlink="http://www.w3.org/1999/xlink" xml:space="preserve" xmlns:serif="http://www.serif.com/" style="fill-rule:evenodd;clip-rule:evenodd;stroke-linejoin:round;stroke-miterlimit:2;"><rect id="Page-3" serif:id="Page 3" x="0" y="0" width="11383.3" height="11383.3" style="fill:none;"/><g id="Logo"><rect x="0" y="0" width="11383.3" height="11383.3" style="fill:#fff;"/><path d="M4210.37,6503.49l123.15,0l-61.575,-165.091l-61.575,165.091Zm-110.071,131.971l140.583,-362.275l63.213,0l139.496,362.275l-61.034,0l-32.691,-88.5l-155.842,0l-32.696,88.5l-61.029,0Z" style="fill:#4a2a97;fill-rule:nonzero;"/><path d="M4487.72,6378.77l57.758,-0l0,256.696l-57.758,-0l-0,-256.696Zm28.879,-48.65c-10.9,-0 -19.887,-3.184 -26.971,-9.575c-7.087,-6.379 -10.629,-14.4 -10.629,-24.063c0,-9.658 3.542,-17.679 10.629,-24.066c7.083,-6.38 16.071,-9.576 26.971,-9.576c10.896,0 19.887,3.196 26.971,9.576c7.083,6.387 10.625,14.408 10.625,24.066c-0,9.663 -3.542,17.684 -10.625,24.063c-7.083,6.391 -16.075,9.575 -26.971,9.575" style="fill:#4a2a97;fill-rule:nonzero;"/><path d="M4610.86,6635.46l0,-256.696l51.767,-0l4.904,48.646c9.442,-16.9 22.612,-30.275 39.504,-40.109c16.892,-9.833 37.325,-14.75 61.3,-14.75l0,57.446l-15.8,0c-15.992,0 -30.242,2.508 -42.775,7.504c-12.533,5.009 -22.529,13.459 -29.971,25.363c-7.45,11.9 -11.171,28.383 -11.171,49.425l0,123.171l-57.758,-0Z" style="fill:#4a2a97;fill-rule:nonzero;"/><path d="M4985.75,6641.67c-35.962,-0 -67.387,-7.763 -94.266,-23.288c-26.888,-15.529 -47.775,-37.262 -62.667,-65.212c-14.896,-27.946 -22.338,-60.55 -22.338,-97.813c0,-36.912 7.63,-69.52 22.884,-97.812c15.258,-28.288 36.962,-50.463 65.116,-66.504c28.15,-16.042 61.48,-24.067 99.992,-24.067c43.588,0 79.908,10.013 108.979,30.017c29.059,20.016 47.95,47.612 56.671,82.808l-65.387,0c-5.817,-19.321 -17.263,-34.496 -34.334,-45.546c-17.075,-11.037 -39.054,-16.558 -65.929,-16.558c-39.967,-0 -71.383,12.25 -94.271,36.746c-22.883,24.5 -34.325,58.308 -34.325,101.433c0,43.133 11.254,76.775 33.784,100.921c22.516,24.154 52.487,36.225 89.904,36.225c37.779,-0 66.208,-10.171 85.279,-30.533c19.071,-20.355 30.242,-47.434 33.512,-81.255l-103.533,0l0,-42.437l161.838,-0l-0,196.667l-52.859,-0l-4.9,-53.309c-12.721,18.979 -28.704,33.642 -47.954,43.992c-19.258,10.35 -44.321,15.525 -75.196,15.525" style="fill:#4a2a97;fill-rule:nonzero;"/><path d="M5357.37,6594.06c24.7,0 44.954,-8.104 60.754,-24.325c15.804,-16.212 23.704,-37.083 23.704,-62.621c0,-25.875 -7.9,-46.837 -23.704,-62.879c-15.8,-16.046 -36.054,-24.067 -60.754,-24.067c-24.708,0 -45.05,8.021 -61.029,24.067c-15.992,16.042 -23.975,37.004 -23.975,62.879c-0,16.909 3.625,31.917 10.896,45.025c7.262,13.117 17.341,23.38 30.241,30.796c12.892,7.421 27.521,11.125 43.867,11.125m-10.354,47.613c-26.154,-0 -49.225,-5.871 -69.2,-17.596c-19.984,-11.725 -35.609,-27.767 -46.863,-48.129c-11.262,-20.355 -16.891,-43.475 -16.891,-69.35c-0,-25.88 5.629,-48.909 16.891,-69.092c11.254,-20.183 26.971,-36.05 47.134,-47.613c20.162,-11.554 43.32,-17.337 69.475,-17.337c21.429,-0 40.229,3.971 56.395,11.904c16.163,7.942 28.788,19.146 37.871,33.638l3.271,-39.334l54.492,0l-0,256.7l-53.946,0l-3.817,-39.85c-8.716,12.079 -20.704,22.771 -35.962,32.088c-15.259,9.312 -34.875,13.971 -58.85,13.971" style="fill:#4a2a97;fill-rule:nonzero;"/><path d="M5703.93,6594.06c24.7,0 45.041,-8.021 61.029,-24.066c15.983,-16.042 23.975,-37 23.975,-62.88c-0,-16.9 -3.634,-31.908 -10.896,-45.025c-7.275,-13.108 -17.258,-23.37 -29.971,-30.791c-12.721,-7.417 -27.433,-11.129 -44.137,-11.129c-24.709,-0 -44.955,8.112 -60.755,24.325c-15.804,16.22 -23.704,37.091 -23.704,62.62c0,25.88 7.9,46.838 23.704,62.88c15.8,16.045 36.046,24.066 60.755,24.066m-142.221,155.259l-0,-370.555l51.766,0l5.996,39.855c8.717,-12.075 20.704,-22.775 35.963,-32.088c15.258,-9.317 34.875,-13.975 58.85,-13.975c26.154,0 49.216,5.871 69.2,17.596c19.975,11.733 35.691,27.779 47.137,48.133c11.442,20.359 17.163,43.471 17.163,69.346c-0,25.879 -5.721,48.908 -17.163,69.092c-11.446,20.183 -27.162,36.058 -47.137,47.612c-19.984,11.559 -43.234,17.338 -69.746,17.338c-21.075,-0 -39.692,-3.971 -55.854,-11.904c-16.167,-7.93 -28.971,-19.146 -38.413,-33.638l0,153.188l-57.762,-0Z" style="fill:#4a2a97;fill-rule:nonzero;"/><path d="M6140.94,6635.46l-141.129,-362.275l61.571,0l114.429,305.346l114.975,-305.346l61.029,0l-141.129,362.275l-69.746,0Z" style="fill:#a196c7;fill-rule:nonzero;"/><path d="M6487.49,6594.06c24.7,0 44.954,-8.104 60.754,-24.325c15.804,-16.212 23.704,-37.083 23.704,-62.621c0,-25.875 -7.9,-46.837 -23.704,-62.879c-15.8,-16.046 -36.054,-24.067 -60.754,-24.067c-24.708,0 -45.05,8.021 -61.029,24.067c-15.992,16.042 -23.975,37.004 -23.975,62.879c-0,16.909 3.625,31.917 10.896,45.025c7.262,13.117 17.341,23.38 30.241,30.796c12.892,7.421 27.521,11.125 43.867,11.125m-10.354,47.613c-26.154,-0 -49.225,-5.871 -69.2,-17.596c-19.984,-11.725 -35.609,-27.767 -46.863,-48.129c-11.262,-20.355 -16.891,-43.475 -16.891,-69.35c-0,-25.88 5.629,-48.909 16.891,-69.092c11.254,-20.183 26.971,-36.05 47.134,-47.613c20.162,-11.554 43.32,-17.337 69.475,-17.337c21.429,-0 40.229,3.971 56.395,11.904c16.163,7.942 28.788,19.146 37.871,33.638l3.271,-39.334l54.492,0l-0,256.7l-53.946,0l-3.817,-39.85c-8.716,12.079 -20.704,22.771 -35.962,32.088c-15.259,9.312 -34.875,13.971 -58.85,13.971" style="fill:#a196c7;fill-rule:nonzero;"/><path d="M6791.55,6641.67c-32.695,-0 -58.4,-9.654 -77.104,-28.983c-18.712,-19.317 -28.062,-48.13 -28.062,-86.425l-0,-147.5l57.758,-0l0,141.804c0,49.683 21.433,74.525 64.3,74.525c21.429,-0 39.046,-7.246 52.854,-21.738c13.8,-14.487 20.709,-35.191 20.709,-62.1l-0,-132.491l57.758,-0l-0,256.7l-51.221,-0l-4.358,-45.03c-8.363,15.875 -20.621,28.384 -36.784,37.521c-16.166,9.138 -34.783,13.717 -55.85,13.717" style="fill:#a196c7;fill-rule:nonzero;"/><rect x="7002.42" y="6262.84" width="57.758" height="372.625" style="fill:#a196c7;"/><path d="M7235.63,6635.46c-26.525,-0 -47.596,-6.121 -63.208,-18.371c-15.625,-12.246 -23.433,-34.071 -23.433,-65.471l-0,-126.796l-46.317,0l-0,-46.058l46.317,-0l7.083,-65.213l50.675,0l-0,65.213l76.287,-0l0,46.058l-76.287,0l-0,126.796c-0,14.154 3.179,23.896 9.537,29.242c6.355,5.354 17.346,8.02 32.967,8.02l31.058,0l0,46.58l-44.679,-0Z" style="fill:#a196c7;fill-rule:nonzero;"/></g><g id="VAULT"><path d="M5832.83,5708.69c177.129,-76.275 315.337,-252.642 333.975,-431.246c18.362,-175.987 -1.03,-413.446 -1.863,-423.471l-2.708,-32.45l-31.313,-8.92c-0.904,-0.255 -90.991,-26.03 -156.316,-53.9c-82.725,-35.292 -166.384,-83.755 -167.217,-84.238l-55.95,-32.529c-6.563,-3.817 -14.788,0.917 -14.788,8.508l0,64.759c0,18.012 10.113,33.65 24.971,41.562c12.509,7.208 93.192,53.2 176.038,88.542c46.171,19.7 101.621,37.816 135.733,48.358c4.596,70.408 13.408,243.258 -0.237,374.008c-7.738,74.18 -42.805,151.971 -98.73,219.038c-40.175,48.175 -89.037,88.454 -141.595,117.283l-0,104.696Z" style="fill:#a196c7;fill-rule:nonzero;"/><path d="M5693,5358.37l-76.692,0c-33.883,0 -61.333,-28.067 -60.321,-62.175c0.971,-32.821 28.767,-58.521 61.604,-58.521l146.063,0c85.062,0 155.641,-67.921 156.466,-152.979c0.834,-85.887 -68.795,-156.029 -154.495,-156.029l-73.459,0.433c-25.208,-0.066 -45.691,-20.591 -45.691,-45.812l-0,-232.138c-0,-7.562 -8.18,-12.3 -14.742,-8.537l-55.754,31.971c-0.846,0.483 -85.534,48.895 -168.942,84.308c-65.7,27.887 -154.892,53.471 -155.779,53.725l-31.521,8.996l-2.5,32.683c-0.771,10.096 -18.696,249.329 -0.35,425.158c9.65,92.496 52.208,187.83 119.833,268.446c66.15,78.863 153.134,140.192 244.925,172.7l49.663,17.584c6.408,2.266 13.129,-2.488 13.129,-9.28l0,-52.691c0,-20.917 -13.642,-38.646 -32.517,-44.775c-75.762,-27.088 -147.837,-78.209 -203.062,-144.046c-55.683,-66.379 -90.6,-143.696 -98.325,-217.708c-13.646,-130.775 -5.708,-305.105 -1.508,-376.105c33.875,-10.491 88.67,-28.437 134.8,-48.02c38.779,-16.459 77.22,-35.23 108.491,-51.305l0,89.034c0,77.179 62.792,139.966 139.971,139.966l73.463,-0.429c33.841,0.071 61.233,28.134 60.195,62.217c-1,32.808 -28.783,58.479 -61.6,58.479l-148.037,0c-85.704,0 -155.329,70.138 -154.496,156.025c0.825,85.058 71.404,152.979 156.467,152.979l74.721,0c25.262,0 45.812,20.554 45.812,45.75c0,0 -0.204,147.675 -0.204,178.392l-0,52.683c-0,6.796 6.725,11.55 13.129,9.279l49.667,-17.587c10.6,-3.754 21.075,-7.892 31.429,-12.346l-0,-215.758c-2.854,-74.684 -64.467,-134.567 -139.833,-134.567" style="fill:#4a2a97;fill-rule:nonzero;"/></g><g id="Layer1"></g></svg>