<?xml version="1.0" encoding="UTF-8"?><svg id="e" xmlns="http://www.w3.org/2000/svg" width="504.8284" height="574.1123" viewBox="0 0 504.8284 574.1123"><defs><style>.g{fill:#73b8a6;}.h{fill:#bdd9d2;}</style></defs><path class="h" d="M210.7407,517.7955c-39.5913-14.1556-77.2568-40.8689-106.1172-75.2745-29.0986-34.6889-47.3462-75.0935-51.3818-113.77-7.1309-68.3403-2.9824-159.4423-.7876-196.544,17.7017-5.4841,46.3369-14.8615,70.4443-25.0947,20.2627-8.6017,40.353-18.4106,56.6953-26.8111V24.623c-16.2559,8.8487-46.2407,24.5974-75.9224,37.1974-34.3311,14.5737-80.9414,27.943-81.4058,28.0756l-16.4717,4.7018-1.3062,17.0798c-.4038,5.2767-9.772,130.2955-.1846,222.1799,5.0444,48.3353,27.2837,98.1559,62.623,140.2849,34.5679,41.2106,80.0234,73.2614,127.9922,90.2489l25.9546,9.1874c3.3477,1.1849,6.8604-1.2979,6.8604-4.8488v-27.5342c0-10.9318-7.1294-20.1961-16.9927-23.4001Z"/><path class="g" d="M179.5937,126.828c0,40.3315,32.812,73.1439,73.144,73.1439l38.3916-.2248c17.6831,.0372,31.9976,14.7032,31.4561,32.515-.5215,17.1432-15.04,30.5586-32.1914,30.5586h-77.3608c-44.7861,0-81.1724,36.6527-80.7368,81.5367,.4307,44.449,37.3145,79.9435,81.7656,79.9435h39.0493c13.2007,0,23.9409,10.7401,23.9409,23.9066,0,0-.1069,77.173-.1069,93.2237v27.5331c0,3.5512,3.5132,6.0341,6.8608,4.8486l25.9536-9.1912c100.3374-35.5331,180.6445-133.0242,190.9526-231.8129,9.5967-91.967-.5366-216.0596-.9731-221.297l-1.4136-16.9578-16.3652-4.6619c-.4717-.1343-47.5493-13.6025-81.687-28.1667-43.2314-18.4443-86.9497-43.7695-87.3838-44.0212L283.6513,.7047c-3.4292-1.9937-7.729,.4802-7.729,4.4467V38.9929c0,9.4116,5.2852,17.5844,13.0493,21.7186,6.5376,3.7672,48.7017,27.8014,91.9937,46.271,24.1289,10.2945,53.1055,19.7623,70.9326,25.2712,2.4014,36.7942,7.0059,127.1224-.124,195.4486-4.0449,38.7658-22.3687,79.4166-51.5957,114.4641-20.9941,25.1756-46.5283,46.2249-73.9941,61.2909,.0317-26.1479,.0713-55.1942,.0713-55.2155,0-40.3322-32.812-73.1445-73.144-73.1445h-40.0781c-17.7065,0-32.0522-14.6677-31.5229-32.4909,.5088-17.1528,15.0327-30.5822,32.1934-30.5822h76.3301c44.4512,0,81.335-35.4945,81.7661-79.9438,.4355-44.8842-35.9507-81.537-80.7358-81.537l-38.3896,.2248c-13.1719-.0342-23.877-10.7604-23.877-23.9402V5.5183c0-3.9528-4.2734-6.4284-7.7026-4.4622l-29.1367,16.7066c-.1411,.0809-4.7476,2.7142-12.3643,6.8603V126.828Z"/></svg>