<?xml version="1.0" encoding="utf-8"?>
<!-- Generator: Adobe Illustrator 26.5.0, SVG Export Plug-In . SVG Version: 6.00 Build 0)  -->
<svg version="1.1" id="Layer_1" xmlns="http://www.w3.org/2000/svg" xmlns:xlink="http://www.w3.org/1999/xlink" x="0px" y="0px"
	 viewBox="0 0 57 57" style="enable-background:new 0 0 57 57;" xml:space="preserve">
<style type="text/css">
	.st0{fill:#8697FF;}
	.st1{fill:url(#SVGID_1_);}
	.st2{fill-rule:evenodd;clip-rule:evenodd;fill:url(#SVGID_00000118390776092273160250000011906737092926672778_);}
	.st3{fill-rule:evenodd;clip-rule:evenodd;fill:url(#SVGID_00000062169318769435353550000011479067199161653929_);}
	.st4{fill:url(#SVGID_00000109727375498201356210000013377751879309899680_);}
</style>
<path class="st0" d="M44.2,57H12.8C5.7,57,0,51.3,0,44.2V12.8C0,5.7,5.7,0,12.8,0h31.4C51.3,0,57,5.7,57,12.8v31.4
	C57,51.3,51.3,57,44.2,57z"/>
<g>
	
		<linearGradient id="SVGID_1_" gradientUnits="userSpaceOnUse" x1="19.7819" y1="30.2178" x2="49.375" y2="21.8601" gradientTransform="matrix(1 0 0 -1 0 57.89)">
		<stop  offset="0" style="stop-color:#FFFFFF"/>
		<stop  offset="1" style="stop-color:#FFFFFF"/>
	</linearGradient>
	<path class="st1" d="M49.7,31.2c1.7-3.8-6.6-14.3-14.6-18.7c-5-3.4-10.2-2.9-11.3-1.4c-2.3,3.3,7.7,6,14.4,9.3
		c-1.4,0.6-2.8,1.7-3.6,3.2c-2.5-2.7-8-5.1-14.4-3.2c-4.3,1.3-7.9,4.3-9.3,8.8c-0.3-0.2-0.7-0.2-1.1-0.2c-1.5,0-2.7,1.2-2.7,2.7
		c0,1.5,1.2,2.7,2.7,2.7c0.3,0,1.1-0.2,1.1-0.2l13.9,0.1c-5.6,8.9-10,10.2-10,11.7c0,1.5,4.2,1.1,5.8,0.5
		c7.6-2.7,15.7-11.3,17.1-13.7C43.7,33.6,48.6,33.6,49.7,31.2z"/>
	
		<linearGradient id="SVGID_00000016790868924713546070000013026735821281914251_" gradientUnits="userSpaceOnUse" x1="43.3329" y1="29.6135" x2="21.9054" y2="51.0055" gradientTransform="matrix(1 0 0 -1 0 57.89)">
		<stop  offset="0" style="stop-color:#8697FF"/>
		<stop  offset="1" style="stop-color:#8697FF;stop-opacity:0"/>
	</linearGradient>
	<path style="fill-rule:evenodd;clip-rule:evenodd;fill:url(#SVGID_00000016790868924713546070000013026735821281914251_);" d="
		M38.2,20.3C38.2,20.3,38.2,20.3,38.2,20.3c0.3-0.1,0.3-0.6,0.2-0.9c-0.2-0.8-3.6-4.2-6.7-5.7c-4.3-2-7.5-1.9-8-1
		c0.9,1.8,5,3.5,9.2,5.3C34.7,18.8,36.5,19.5,38.2,20.3C38.2,20.3,38.2,20.3,38.2,20.3z"/>
	
		<linearGradient id="SVGID_00000119802213158964229710000000143651741961427347_" gradientUnits="userSpaceOnUse" x1="33.305" y1="18.5899" x2="12.764" y2="30.3511" gradientTransform="matrix(1 0 0 -1 0 57.89)">
		<stop  offset="0" style="stop-color:#8697FF"/>
		<stop  offset="1" style="stop-color:#8697FF;stop-opacity:0"/>
	</linearGradient>
	<path style="fill-rule:evenodd;clip-rule:evenodd;fill:url(#SVGID_00000119802213158964229710000000143651741961427347_);" d="
		M32.7,38.5c-0.9-0.3-1.9-0.6-3-0.9c1.2-2.1,1.4-5.3,0.3-7.3c-1.6-2.8-3.6-4.3-8.2-4.3c-2.5,0-9.4,0.9-9.5,6.6c0,0.6,0,1.2,0,1.7
		l12.5,0.1c-1.7,2.7-3.3,4.7-4.6,6.2c1.7,0.4,3,0.8,4.3,1.1c1.2,0.3,2.3,0.6,3.4,0.9C29.7,41.2,31.3,39.9,32.7,38.5z"/>
	
		<linearGradient id="SVGID_00000018215783224671577080000000729838801337236153_" gradientUnits="userSpaceOnUse" x1="18.3229" y1="27.7576" x2="32.2491" y2="10.1354" gradientTransform="matrix(1 0 0 -1 0 57.89)">
		<stop  offset="0" style="stop-color:#FFFFFF"/>
		<stop  offset="0.9839" style="stop-color:#D1D8FF"/>
	</linearGradient>
	<path style="fill:url(#SVGID_00000018215783224671577080000000729838801337236153_);" d="M10.8,33.6c0.5,4.4,3,6.1,8,6.6
		c5,0.5,7.9,0.2,11.8,0.5c3.2,0.3,6.1,1.9,7.1,1.4c1-0.5,0.4-2.4-0.9-3.5c-1.7-1.5-4-2.6-8-3c0.8-2.2,0.6-5.3-0.7-7
		c-1.8-2.4-5.2-3.5-9.4-3.1C14.4,26,10.1,28.2,10.8,33.6z"/>
</g>
</svg>
